  0
SECTION
  2
HEADER
  9
$ACADVER
  1
AC1015
  9
$ACADMAINTVER
 70
     6
  9
$DWGCODEPAGE
  3
ANSI_1252
  9
$INSBASE
 10
0.0
 20
0.0
 30
0.0
  9
$EXTMIN
 10
-5.5
 20
-6.75
 30
0.0
  9
$EXTMAX
 10
-0.75
 20
6.75
 30
0.0
  9
$LIMMIN
 10
0.0
 20
0.0
  9
$LIMMAX
 10
12.0
 20
9.0
  9
$ORTHOMODE
 70
     0
  9
$REGENMODE
 70
     1
  9
$FILLMODE
 70
     1
  9
$QTEXTMODE
 70
     0
  9
$MIRRTEXT
 70
     1
  9
$LTSCALE
 40
1.0
  9
$ATTMODE
 70
     1
  9
$TEXTSIZE
 40
0.25
  9
$TRACEWID
 40
0.05
  9
$TEXTSTYLE
  7
Standard
  9
$CLAYER
  8
0
  9
$CELTYPE
  6
ByLayer
  9
$CECOLOR
 62
   256
  9
$CELTSCALE
 40
1.0
  9
$DISPSILH
 70
     0
  9
$DIMSCALE
 40
1.0
  9
$DIMASZ
 40
0.236
  9
$DIMEXO
 40
0.039
  9
$DIMDLI
 40
0.38
  9
$DIMRND
 40
0.0
  9
$DIMDLE
 40
0.0
  9
$DIMEXE
 40
0.039
  9
$DIMTP
 40
0.0
  9
$DIMTM
 40
0.0
  9
$DIMTXT
 40
0.25
  9
$DIMCEN
 40
0.09
  9
$DIMTSZ
 40
0.0
  9
$DIMTOL
 70
     0
  9
$DIMLIM
 70
     0
  9
$DIMTIH
 70
     1
  9
$DIMTOH
 70
     1
  9
$DIMSE1
 70
     0
  9
$DIMSE2
 70
     0
  9
$DIMTAD
 70
     1
  9
$DIMZIN
 70
     1
  9
$DIMBLK
  1

  9
$DIMASO
 70
     1
  9
$DIMSHO
 70
     1
  9
$DIMPOST
  1

  9
$DIMAPOST
  1

  9
$DIMALT
 70
     0
  9
$DIMALTD
 70
     2
  9
$DIMALTF
 40
25.4
  9
$DIMLFAC
 40
1.0
  9
$DIMTOFL
 70
     0
  9
$DIMTVP
 40
0.0
  9
$DIMTIX
 70
     0
  9
$DIMSOXD
 70
     0
  9
$DIMSAH
 70
     0
  9
$DIMBLK1
  1

  9
$DIMBLK2
  1

  9
$DIMSTYLE
  2
Standard
  9
$DIMCLRD
 70
     0
  9
$DIMCLRE
 70
     0
  9
$DIMCLRT
 70
     0
  9
$DIMTFAC
 40
1.0
  9
$DIMGAP
 40
0.06
  9
$DIMJUST
 70
     0
  9
$DIMSD1
 70
     0
  9
$DIMSD2
 70
     0
  9
$DIMTOLJ
 70
     1
  9
$DIMTZIN
 70
     1
  9
$DIMALTZ
 70
     0
  9
$DIMALTTZ
 70
     0
  9
$DIMUPT
 70
     0
  9
$DIMDEC
 70
     2
  9
$DIMTDEC
 70
     2
  9
$DIMALTU
 70
     2
  9
$DIMALTTD
 70
     2
  9
$DIMTXSTY
  7
Standard
  9
$DIMAUNIT
 70
     0
  9
$DIMADEC
 70
     2
  9
$DIMALTRND
 40
0.0
  9
$DIMAZIN
 70
     0
  9
$DIMDSEP
 70
    46
  9
$DIMATFIT
 70
     3
  9
$DIMFRAC
 70
     0
  9
$DIMLDRBLK
  1

  9
$DIMLUNIT
 70
     2
  9
$DIMLWD
 70
    -2
  9
$DIMLWE
 70
    -2
  9
$DIMTMOVE
 70
     0
  9
$LUNITS
 70
     2
  9
$LUPREC
 70
     2
  9
$SKETCHINC
 40
0.1
  9
$FILLETRAD
 40
0.5
  9
$AUNITS
 70
     0
  9
$AUPREC
 70
     2
  9
$MENU
  1
.
  9
$ELEVATION
 40
0.0
  9
$PELEVATION
 40
0.0
  9
$THICKNESS
 40
0.0
  9
$LIMCHECK
 70
     0
  9
$CHAMFERA
 40
0.0
  9
$CHAMFERB
 40
0.0
  9
$CHAMFERC
 40
0.0
  9
$CHAMFERD
 40
0.0
  9
$SKPOLY
 70
     0
  9
$TDCREATE
 40
2458799.920439468
  9
$TDUCREATE
 40
2458800.128772801
  9
$TDUPDATE
 40
2458799.920481655
  9
$TDUUPDATE
 40
2458800.128814988
  9
$TDINDWG
 40
0.0000000116
  9
$TDUSRTIMER
 40
0.0000000116
  9
$USRTIMER
 70
     1
  9
$ANGBASE
 50
0.0
  9
$ANGDIR
 70
     0
  9
$PDMODE
 70
     0
  9
$PDSIZE
 40
-1.0
  9
$PLINEWID
 40
0.0
  9
$SPLFRAME
 70
     0
  9
$SPLINETYPE
 70
     6
  9
$SPLINESEGS
 70
     8
  9
$HANDSEED
  5
205
  9
$SURFTAB1
 70
     6
  9
$SURFTAB2
 70
     6
  9
$SURFTYPE
 70
     6
  9
$SURFU
 70
     6
  9
$SURFV
 70
     6
  9
$UCSBASE
  2

  9
$UCSNAME
  2

  9
$UCSORG
 10
0.0
 20
0.0
 30
0.0
  9
$UCSXDIR
 10
1.0
 20
0.0
 30
0.0
  9
$UCSYDIR
 10
0.0
 20
1.0
 30
0.0
  9
$UCSORTHOREF
  2

  9
$UCSORTHOVIEW
 70
     0
  9
$UCSORGTOP
 10
0.0
 20
0.0
 30
0.0
  9
$UCSORGBOTTOM
 10
0.0
 20
0.0
 30
0.0
  9
$UCSORGLEFT
 10
0.0
 20
0.0
 30
0.0
  9
$UCSORGRIGHT
 10
0.0
 20
0.0
 30
0.0
  9
$UCSORGFRONT
 10
0.0
 20
0.0
 30
0.0
  9
$UCSORGBACK
 10
0.0
 20
0.0
 30
0.0
  9
$PUCSBASE
  2

  9
$PUCSNAME
  2

  9
$PUCSORG
 10
0.0
 20
0.0
 30
0.0
  9
$PUCSXDIR
 10
1.0
 20
0.0
 30
0.0
  9
$PUCSYDIR
 10
0.0
 20
1.0
 30
0.0
  9
$PUCSORTHOREF
  2

  9
$PUCSORTHOVIEW
 70
     0
  9
$PUCSORGTOP
 10
0.0
 20
0.0
 30
0.0
  9
$PUCSORGBOTTOM
 10
0.0
 20
0.0
 30
0.0
  9
$PUCSORGLEFT
 10
0.0
 20
0.0
 30
0.0
  9
$PUCSORGRIGHT
 10
0.0
 20
0.0
 30
0.0
  9
$PUCSORGFRONT
 10
0.0
 20
0.0
 30
0.0
  9
$PUCSORGBACK
 10
0.0
 20
0.0
 30
0.0
  9
$USERI1
 70
     0
  9
$USERI2
 70
     0
  9
$USERI3
 70
     0
  9
$USERI4
 70
     0
  9
$USERI5
 70
     0
  9
$USERR1
 40
0.0
  9
$USERR2
 40
0.0
  9
$USERR3
 40
0.0
  9
$USERR4
 40
0.0
  9
$USERR5
 40
0.0
  9
$WORLDVIEW
 70
     1
  9
$SHADEDGE
 70
     3
  9
$SHADEDIF
 70
    70
  9
$TILEMODE
 70
     1
  9
$MAXACTVP
 70
    64
  9
$PINSBASE
 10
0.0
 20
0.0
 30
0.0
  9
$PLIMCHECK
 70
     0
  9
$PEXTMIN
 10
1.0000000000E+20
 20
1.0000000000E+20
 30
1.0000000000E+20
  9
$PEXTMAX
 10
-1.0000000000E+20
 20
-1.0000000000E+20
 30
-1.0000000000E+20
  9
$PLIMMIN
 10
0.0
 20
0.0
  9
$PLIMMAX
 10
12.0
 20
9.0
  9
$UNITMODE
 70
     0
  9
$VISRETAIN
 70
     1
  9
$PLINEGEN
 70
     0
  9
$PSLTSCALE
 70
     1
  9
$TREEDEPTH
 70
  3020
  9
$CMLSTYLE
  2
Standard
  9
$CMLJUST
 70
     0
  9
$CMLSCALE
 40
1.0
  9
$PROXYGRAPHICS
 70
     1
  9
$MEASUREMENT
 70
     0
  9
$CELWEIGHT
370
    -1
  9
$ENDCAPS
280
     0
  9
$JOINSTYLE
280
     0
  9
$LWDISPLAY
290
     1
  9
$INSUNITS
 70
     1
  9
$HYPERLINKBASE
  1

  9
$STYLESHEET
  1

  9
$XEDIT
290
     1
  9
$CEPSNTYPE
380
     0
  9
$PSTYLEMODE
290
     1
  9
$FINGERPRINTGUID
  2
{94e367da-6fab-44d3-9c50-b6bb0d55c149}
  9
$VERSIONGUID
  2
{FAEB1C32-E019-11D5-929B-00C0DF256EC4}
  9
$EXTNAMES
290
     1
  9
$PSVPSCALE
 40
0.0
  9
$OLESTARTUP
290
     0
  0
ENDSEC
  0
SECTION
  2
CLASSES
  0
CLASS
  1
ACDBDICTIONARYWDFLT
  2
AcDbDictionaryWithDefault
  3
ObjectDBX Classes
 90
        0
280
     0
281
     0
  0
CLASS
  1
VISUALSTYLE
  2
AcDbVisualStyle
  3
ObjectDBX Classes
 90
     4095
280
     0
281
     0
  0
CLASS
  1
MATERIAL
  2
AcDbMaterial
  3
ObjectDBX Classes
 90
     1153
280
     0
281
     0
  0
CLASS
  1
SCALE
  2
AcDbScale
  3
ObjectDBX Classes
 90
     1153
280
     0
281
     0
  0
CLASS
  1
TABLESTYLE
  2
AcDbTableStyle
  3
ObjectDBX Classes
 90
     4095
280
     0
281
     0
  0
CLASS
  1
MLEADERSTYLE
  2
AcDbMLeaderStyle
  3
ACDB_MLEADERSTYLE_CLASS
 90
     4095
280
     0
281
     0
  0
CLASS
  1
SUN
  2
AcDbSun
  3
SCENEOE
 90
     1153
280
     0
281
     0
  0
CLASS
  1
ACDBPLACEHOLDER
  2
AcDbPlaceHolder
  3
ObjectDBX Classes
 90
        0
280
     0
281
     0
  0
CLASS
  1
LAYOUT
  2
AcDbLayout
  3
ObjectDBX Classes
 90
        0
280
     0
281
     0
  0
ENDSEC
  0
SECTION
  2
TABLES
  0
TABLE
  2
VPORT
  5
8
330
0
100
AcDbSymbolTable
 70
     1
  0
VPORT
  5
29
330
8
100
AcDbSymbolTableRecord
100
AcDbViewportTableRecord
  2
*Active
 70
     0
 10
0.0
 20
0.0
 11
1.0
 21
1.0
 12
-3.125
 22
0.0
 13
0.0
 23
0.0
 14
0.5
 24
0.5
 15
0.5
 25
0.5
 16
0.0
 26
0.0
 36
1.0
 17
0.0
 27
0.0
 37
0.0
 40
13.77
 41
0.3518518519
 42
50.0
 43
0.0
 44
0.0
 50
0.0
 51
0.0
 71
     0
 72
   100
 73
     1
 74
     3
 75
     0
 76
     0
 77
     0
 78
     0
281
     0
 65
     1
110
0.0
120
0.0
130
0.0
111
1.0
121
0.0
131
0.0
112
0.0
122
1.0
132
0.0
 79
     0
146
0.0
  0
ENDTAB
  0
TABLE
  2
LTYPE
  5
5
330
0
100
AcDbSymbolTable
 70
     6
  0
LTYPE
  5
14
330
5
100
AcDbSymbolTableRecord
100
AcDbLinetypeTableRecord
  2
ByBlock
 70
     0
  3

 72
    65
 73
     0
 40
0.0
  0
LTYPE
  5
15
330
5
100
AcDbSymbolTableRecord
100
AcDbLinetypeTableRecord
  2
ByLayer
 70
     0
  3

 72
    65
 73
     0
 40
0.0
  0
LTYPE
  5
16
330
5
100
AcDbSymbolTableRecord
100
AcDbLinetypeTableRecord
  2
Continuous
 70
     0
  3
Solid line
 72
    65
 73
     0
 40
0.0
  0
LTYPE
  5
6E
330
5
100
AcDbSymbolTableRecord
100
AcDbLinetypeTableRecord
  2
HIDDEN
 70
     0
  3
Hidden __ __ __ __ __ __ __ __ __ __ __ __ __ __
 72
    65
 73
     2
 40
0.075
 49
0.05
 74
     0
 49
-0.025
 74
     0
  0
LTYPE
  5
6F
330
5
100
AcDbSymbolTableRecord
100
AcDbLinetypeTableRecord
  2
PHANTOM
 70
     0
  3
Phantom ______  __  __  ______  __  __  ______
 72
    65
 73
     6
 40
0.5
 49
0.25
 74
     0
 49
-0.05
 74
     0
 49
0.05
 74
     0
 49
-0.05
 74
     0
 49
0.05
 74
     0
 49
-0.05
 74
     0
  0
LTYPE
  5
70
330
5
100
AcDbSymbolTableRecord
100
AcDbLinetypeTableRecord
  2
CENTER
 70
     0
  3
Center ____ _ ____ _ ____ _ ____ _ ____ _ ____
 72
    65
 73
     4
 40
0.4
 49
0.25
 74
     0
 49
-0.05
 74
     0
 49
0.05
 74
     0
 49
-0.05
 74
     0
  0
LTYPE
  5
71
330
5
100
AcDbSymbolTableRecord
100
AcDbLinetypeTableRecord
  2
CENTERX2
 70
     0
  3
Center (2x) ________  __  ________  __  _____
 72
    65
 73
     4
 40
0.8
 49
0.5
 74
     0
 49
-0.1
 74
     0
 49
0.1
 74
     0
 49
-0.1
 74
     0
  0
LTYPE
  5
72
330
5
100
AcDbSymbolTableRecord
100
AcDbLinetypeTableRecord
  2
DOT2
 70
     0
  3
Dot (.5x) ........................................
 72
    65
 73
     2
 40
0.025
 49
0.0
 74
     0
 49
-0.025
 74
     0
  0
ENDTAB
  0
TABLE
  2
LAYER
  5
2
330
0
100
AcDbSymbolTable
 70
     1
  0
LAYER
  5
10
330
2
100
AcDbSymbolTableRecord
100
AcDbLayerTableRecord
  2
0
 70
     0
 62
     7
  6
Continuous
370
    -3
390
F
  0
ENDTAB
  0
TABLE
  2
STYLE
  5
3
330
0
100
AcDbSymbolTable
 70
     2
  0
STYLE
  5
11
330
3
100
AcDbSymbolTableRecord
100
AcDbTextStyleTableRecord
  2
Standard
 70
     0
 40
0.0
 41
1.0
 50
0.0
 71
     0
 42
0.25
  3
txt
  4

  0
STYLE
  5
202
330
3
100
AcDbSymbolTableRecord
100
AcDbTextStyleTableRecord
  2
SLDTEXTSTYLE0
 70
     0
 40
0.0
 41
0.7
 50
0.0
 71
     0
 42
0.25
  3
TXT
  4

  0
ENDTAB
  0
TABLE
  2
VIEW
  5
6
330
0
100
AcDbSymbolTable
 70
     0
  0
ENDTAB
  0
TABLE
  2
UCS
  5
7
330
0
100
AcDbSymbolTable
 70
     0
  0
ENDTAB
  0
TABLE
  2
APPID
  5
9
330
0
100
AcDbSymbolTable
 70
     1
  0
APPID
  5
12
330
9
100
AcDbSymbolTableRecord
100
AcDbRegAppTableRecord
  2
ACAD
 70
     0
  0
ENDTAB
  0
TABLE
  2
DIMSTYLE
  5
A
330
0
100
AcDbSymbolTable
 70
     1
100
AcDbDimStyleTable
  0
DIMSTYLE
105
27
330
A
100
AcDbSymbolTableRecord
100
AcDbDimStyleTableRecord
  2
Standard
 70
     0
178
     0
340
11
  0
ENDTAB
  0
TABLE
  2
BLOCK_RECORD
  5
1
330
0
100
AcDbSymbolTable
 70
     1
  0
BLOCK_RECORD
  5
1F
330
1
100
AcDbSymbolTableRecord
100
AcDbBlockTableRecord
  2
*Model_Space
340
22
  0
BLOCK_RECORD
  5
1B
330
1
100
AcDbSymbolTableRecord
100
AcDbBlockTableRecord
  2
*Paper_Space
340
1E
  0
BLOCK_RECORD
  5
23
330
1
100
AcDbSymbolTableRecord
100
AcDbBlockTableRecord
  2
*Paper_Space0
340
26
  0
ENDTAB
  0
ENDSEC
  0
SECTION
  2
BLOCKS
  0
BLOCK
  5
20
330
1F
100
AcDbEntity
  8
0
100
AcDbBlockBegin
  2
*Model_Space
 70
     0
 10
0.0
 20
0.0
 30
0.0
  3
*Model_Space
  1

  0
ENDBLK
  5
21
330
1F
100
AcDbEntity
  8
0
100
AcDbBlockEnd
  0
BLOCK
  5
1C
330
1B
100
AcDbEntity
 67
     1
  8
0
100
AcDbBlockBegin
  2
*Paper_Space
 70
     0
 10
0.0
 20
0.0
 30
0.0
  3
*Paper_Space
  1

  0
ENDBLK
  5
1D
330
1B
100
AcDbEntity
 67
     1
  8
0
100
AcDbBlockEnd
  0
BLOCK
  5
24
330
23
100
AcDbEntity
  8
0
100
AcDbBlockBegin
  2
*Paper_Space0
 70
     0
 10
0.0
 20
0.0
 30
0.0
  3
*Paper_Space0
  1

  0
ENDBLK
  5
25
330
23
100
AcDbEntity
  8
0
100
AcDbBlockEnd
  0
ENDSEC
  0
SECTION
  2
ENTITIES
  0
SPLINE
  5
7F
330
1F
100
AcDbEntity
  8
0
  6
Continuous
 62
     7
370
    25
100
AcDbSpline
210
0.0
220
0.0
230
1.0
 70
     8
 71
     3
 72
    15
 73
    11
 74
     0
 42
0.000000001
 43
0.00000001
 40
0.0
 40
0.0
 40
0.0
 40
0.0
 40
0.0885888342205163
 40
0.1873163157507644
 40
0.2972302858199153
 40
0.417760285474686
 40
0.5480875648759104
 40
0.6885042199334017
 40
0.8383424415681612
 40
1.0
 40
1.0
 40
1.0
 40
1.0
 10
-4.987543434043515
 20
-0.4376898109494254
 30
0.0
 10
-4.990148235416869
 20
-0.4365227753424921
 30
0.0
 10
-4.995655947543483
 20
-0.4340551414452388
 30
0.0
 10
-5.004574115598656
 20
-0.4305337788292211
 30
0.0
 10
-5.014769887897359
 20
-0.4275867610025753
 30
0.0
 10
-5.025965210142421
 20
-0.4244452775794606
 30
0.0
 10
-5.038342268316018
 20
-0.4219919678883037
 30
0.0
 10
-5.051756315030746
 20
-0.4200081586594724
 30
0.0
 10
-5.066294655600418
 20
-0.4189993799687458
 30
0.0
 10
-5.076328437649552
 20
-0.4187535388383042
 30
0.0
 10
-5.081535688635595
 20
-0.4186259541984712
 30
0.0
  0
SPLINE
  5
80
330
1F
100
AcDbEntity
  8
0
  6
Continuous
 62
     7
370
    25
100
AcDbSpline
210
0.0
220
0.0
230
1.0
 70
     8
 71
     3
 72
    23
 73
    19
 74
     0
 42
0.000000001
 43
0.00000001
 40
0.0
 40
0.0
 40
0.0
 40
0.0
 40
0.0777810776303002
 40
0.1516068995074389
 40
0.2217570477211017
 40
0.2890847523956608
 40
0.3533148141433284
 40
0.4157424901711515
 40
0.4767396591103154
 40
0.536695642401127
 40
0.5955987098534866
 40
0.6526702847599335
 40
0.7088701900334566
 40
0.7649188242278793
 40
0.8211732552012927
 40
0.8785908880642566
 40
0.9380412602200262
 40
1.0
 40
1.0
 40
1.0
 40
1.0
 10
-5.081535688635595
 20
-0.4186259541984712
 30
0.0
 10
-5.087027263429103
 20
-0.4187626424789065
 30
0.0
 10
-5.097731160227939
 20
-0.4190290682861487
 30
0.0
 10
-5.113295011296455
 20
-0.420873015516069
 30
0.0
 10
-5.127986040483932
 20
-0.4235091277587473
 30
0.0
 10
-5.141764620035403
 20
-0.4271736860582828
 30
0.0
 10
-5.154641383596233
 20
-0.4318958969545197
 30
0.0
 10
-5.1665913248579
 20
-0.4376465840847005
 30
0.0
 10
-5.177771589508381
 20
-0.4442218856643481
 30
0.0
 10
-5.187834555317874
 20
-0.4520116782327535
 30
0.0
 10
-5.196884408193819
 20
-0.4605415915068513
 30
0.0
 10
-5.204861346291787
 20
-0.4697425091146674
 30
0.0
 10
-5.211629442296688
 20
-0.4796282439497291
 30
0.0
 10
-5.217172945197146
 20
-0.4901767996762713
 30
0.0
 10
-5.22161744415273
 20
-0.5013354616113402
 30
0.0
 10
-5.224645285126841
 20
-0.513195949512034
 30
0.0
 10
-5.226771201588389
 20
-0.5256685699410515
 30
0.0
 10
-5.227070149420848
 20
-0.5342426886531307
 30
0.0
 10
-5.227222711536358
 20
-0.5386183206106849
 30
0.0
  0
SPLINE
  5
81
330
1F
100
AcDbEntity
  8
0
  6
Continuous
 62
     7
370
    25
100
AcDbSpline
210
0.0
220
0.0
230
1.0
 70
     8
 71
     3
 72
    23
 73
    19
 74
     0
 42
0.000000001
 43
0.00000001
 40
0.0
 40
0.0
 40
0.0
 40
0.0
 40
0.061440721721796
 40
0.1210355791465872
 40
0.1789552008269305
 40
0.2359638879134572
 40
0.292913854890715
 40
0.349967961201351
 40
0.4078670813497173
 40
0.4667843713082141
 40
0.5272369338887546
 40
0.5888688334370872
 40
0.6525217595026813
 40
0.7178532429249828
 40
0.7849435986173473
 40
0.8541451694488207
 40
0.9260558482762469
 40
1.0
 40
1.0
 40
1.0
 40
1.0
 10
-5.227222711536358
 20
-0.5386183206106849
 30
0.0
 10
-5.227056429402749
 20
-0.5423170093989119
 30
0.0
 10
-5.226728860751549
 20
-0.5496032672263038
 30
0.0
 10
-5.22525242176746
 20
-0.5603068365802044
 30
0.0
 10
-5.222662840785205
 20
-0.5705107373489836
 30
0.0
 10
-5.219353474549762
 20
-0.5803404811168928
 30
0.0
 10
-5.214917244608741
 20
-0.5896610160484769
 30
0.0
 10
-5.209704321626027
 20
-0.5986218857149901
 30
0.0
 10
-5.203567078759407
 20
-0.6071370741129336
 30
0.0
 10
-5.196422427647427
 20
-0.6150913677987054
 30
0.0
 10
-5.188639420706946
 20
-0.6227406482157489
 30
0.0
 10
-5.18007341029652
 20
-0.6299508244647172
 30
0.0
 10
-5.170963153995447
 20
-0.6369529945433322
 30
0.0
 10
-5.161091355887436
 20
-0.6434521577929789
 30
0.0
 10
-5.150682677248761
 20
-0.6497248004047642
 30
0.0
 10
-5.139523696565162
 20
-0.6554636777119985
 30
0.0
 10
-5.127830476282597
 20
-0.6610548102399116
 30
0.0
 10
-5.119676931827048
 20
-0.6643363532526931
 30
0.0
 10
-5.115543322223382
 20
-0.6659999999999979
 30
0.0
  0
SPLINE
  5
82
330
1F
100
AcDbEntity
  8
0
  6
Continuous
 62
     7
370
    25
100
AcDbSpline
210
0.0
220
0.0
230
1.0
 70
     8
 71
     3
 72
    23
 73
    19
 74
     0
 42
0.000000001
 43
0.00000001
 40
0.0
 40
0.0
 40
0.0
 40
0.0
 40
0.0867576402491923
 40
0.1680994746102527
 40
0.2453906095483008
 40
0.3178803077870785
 40
0.3866041797422055
 40
0.451153529945001
 40
0.5112269981041029
 40
0.5686479710871051
 40
0.6233010567274061
 40
0.6770341930339213
 40
0.7295477657924435
 40
0.7820475777333055
 40
0.8345060855629169
 40
0.8885565243053656
 40
0.9430507343605753
 40
1.0
 40
1.0
 40
1.0
 40
1.0
 10
-5.115543322223382
 20
-0.6659999999999979
 30
0.0
 10
-5.11231191765513
 20
-0.6673432792693182
 30
0.0
 10
-5.106050827466229
 20
-0.6699459842158686
 30
0.0
 10
-5.097117672694857
 20
-0.6742093972961614
 30
0.0
 10
-5.088791801666986
 20
-0.6784089056482987
 30
0.0
 10
-5.08121771711119
 20
-0.6829230011858745
 30
0.0
 10
-5.074243781618834
 20
-0.6874227053752792
 30
0.0
 10
-5.067931172601766
 20
-0.6920118320846317
 30
0.0
 10
-5.062334036163537
 20
-0.6967704797097488
 30
0.0
 10
-5.057344939037358
 20
-0.7016120281512369
 30
0.0
 10
-5.053034211686353
 20
-0.7067324413768978
 30
0.0
 10
-5.049199891323143
 20
-0.7119833587305712
 30
0.0
 10
-5.046121301271632
 20
-0.7176084243784024
 30
0.0
 10
-5.043448269008199
 20
-0.7233820707761831
 30
0.0
 10
-5.04156006380127
 20
-0.7295240818010763
 30
0.0
 10
-5.040092008121688
 20
-0.7358573247525902
 30
0.0
 10
-5.039361796567813
 20
-0.7425069605897984
 30
0.0
 10
-5.039264697175358
 20
-0.7470011252571188
 30
0.0
 10
-5.039215077948572
 20
-0.7492977099236621
 30
0.0
  0
SPLINE
  5
83
330
1F
100
AcDbEntity
  8
0
  6
Continuous
 62
     7
370
    25
100
AcDbSpline
210
0.0
220
0.0
230
1.0
 70
     8
 71
     3
 72
    23
 73
    19
 74
     0
 42
0.000000001
 43
0.00000001
 40
0.0
 40
0.0
 40
0.0
 40
0.0
 40
0.0619076023535366
 40
0.1208375360167234
 40
0.1776080648280192
 40
0.2332067907771993
 40
0.2884923309876082
 40
0.3430047316657708
 40
0.3986728151668854
 40
0.4561483851842613
 40
0.514626427013095
 40
0.5750156335008434
 40
0.6371526464661358
 40
0.702604973008168
 40
0.7706549431281026
 40
0.8425880943972279
 40
0.9193636691025526
 40
1.0
 40
1.0
 40
1.0
 40
1.0
 10
-5.039215077948573
 20
-0.7492977099236622
 30
0.0
 10
-5.039314544100353
 20
-0.7517912843939051
 30
0.0
 10
-5.039508692221766
 20
-0.7566584959059516
 30
0.0
 10
-5.04047414857861
 20
-0.7637706975342451
 30
0.0
 10
-5.042299459708016
 20
-0.7704434008236418
 30
0.0
 10
-5.044635242960438
 20
-0.7767927499812906
 30
0.0
 10
-5.047636422695777
 20
-0.7827665467971812
 30
0.0
 10
-5.051408681442946
 20
-0.7882856718777399
 30
0.0
 10
-5.05580454412328
 20
-0.7934330584152827
 30
0.0
 10
-5.060829972131467
 20
-0.7982018279552445
 30
0.0
 10
-5.066480051823372
 20
-0.8025446801746171
 30
0.0
 10
-5.07282268744641
 20
-0.8061768584312919
 30
0.0
 10
-5.079671320486075
 20
-0.809439208382991
 30
0.0
 10
-5.0871472479515
 20
-0.811995589777816
 30
0.0
 10
-5.095187579505157
 20
-0.8139969805595595
 30
0.0
 10
-5.103796708437681
 20
-0.8155260449108328
 30
0.0
 10
-5.113006444472861
 20
-0.8164175012838881
 30
0.0
 10
-5.119348139944353
 20
-0.8166209642459558
 30
0.0
 10
-5.122596757337885
 20
-0.8167251908396926
 30
0.0
  0
SPLINE
  5
84
330
1F
100
AcDbEntity
  8
0
  6
Continuous
 62
     7
370
    25
100
AcDbSpline
210
0.0
220
0.0
230
1.0
 70
     8
 71
     3
 72
    15
 73
    11
 74
     0
 42
0.000000001
 43
0.00000001
 40
0.0
 40
0.0
 40
0.0
 40
0.0
 40
0.1365035835432492
 40
0.2703180741453621
 40
0.4021341656994944
 40
0.532438554837304
 40
0.6592137975712526
 40
0.7787897568732198
 40
0.8919397229228223
 40
1.0
 40
1.0
 40
1.0
 40
1.0
 10
-5.122596757337885
 20
-0.8167251908396926
 30
0.0
 10
-5.127218392416612
 20
-0.8165883703526594
 30
0.0
 10
-5.136370617299328
 20
-0.8163174247144687
 30
0.0
 10
-5.149927763014779
 20
-0.8148798642722742
 30
0.0
 10
-5.163133002448798
 20
-0.8125082815306115
 30
0.0
 10
-5.175930918434695
 20
-0.8093548895957036
 30
0.0
 10
-5.18806530020656
 20
-0.8053977867235309
 30
0.0
 10
-5.199446708166156
 20
-0.8010655766650218
 30
0.0
 10
-5.20993947624791
 20
-0.7962201895072
 30
0.0
 10
-5.216417165902349
 20
-0.7924516182801008
 30
0.0
 10
-5.219581490162314
 20
-0.7906106870228987
 30
0.0
  0
SPLINE
  5
86
330
1F
100
AcDbEntity
  8
0
  6
Continuous
 62
     7
370
    25
100
AcDbSpline
210
0.0
220
0.0
230
1.0
 70
     8
 71
     3
 72
    15
 73
    11
 74
     0
 42
0.000000001
 43
0.00000001
 40
0.0
 40
0.0
 40
0.0
 40
0.0
 40
0.0952129821264558
 40
0.2003196356777009
 40
0.3171055411555637
 40
0.4459693091354642
 40
0.5812934240676401
 40
0.7181133752725366
 40
0.8574685312713808
 40
1.0
 40
1.0
 40
1.0
 40
1.0
 10
-5.234684103771569
 20
-0.8472013507872117
 30
0.0
 10
-5.231646667314369
 20
-0.8490912138578253
 30
0.0
 10
-5.225256171492144
 20
-0.8530673174660837
 30
0.0
 10
-5.214352146862168
 20
-0.8579122982697172
 30
0.0
 10
-5.201991658122454
 20
-0.8624574778366574
 30
0.0
 10
-5.188226484280214
 20
-0.866376645896645
 30
0.0
 10
-5.173539113967082
 20
-0.8696918032526849
 30
0.0
 10
-5.158298227280016
 20
-0.8722531317743502
 30
0.0
 10
-5.142639827159686
 20
-0.8737703768518422
 30
0.0
 10
-5.13206051921516
 20
-0.8740293564478956
 30
0.0
 10
-5.126711261154679
 20
-0.8741603053435093
 30
0.0
  0
SPLINE
  5
87
330
1F
100
AcDbEntity
  8
0
  6
Continuous
 62
     7
370
    25
100
AcDbSpline
210
0.0
220
0.0
230
1.0
 70
     8
 71
     3
 72
    23
 73
    19
 74
     0
 42
0.000000001
 43
0.00000001
 40
0.0
 40
0.0
 40
0.0
 40
0.0
 40
0.0803522034423313
 40
0.1563251196842575
 40
0.2282841685251382
 40
0.296305569174415
 40
0.360910404931149
 40
0.4235258162795288
 40
0.4838241630296026
 40
0.5427261523345658
 40
0.6005218646906454
 40
0.6570769896998303
 40
0.7124850566531302
 40
0.7677243609012263
 40
0.8234949234357448
 40
0.880565529344463
 40
0.9390865459825554
 40
1.0
 40
1.0
 40
1.0
 40
1.0
 10
-5.12671126115468
 20
-0.8741603053435095
 30
0.0
 10
-5.120576161388676
 20
-0.8739651244417342
 30
0.0
 10
-5.108640331826969
 20
-0.8735854002210786
 30
0.0
 10
-5.091298602054275
 20
-0.8716261216689578
 30
0.0
 10
-5.07506268740998
 20
-0.8686526500068793
 30
0.0
 10
-5.059966202362512
 20
-0.8645524992302623
 30
0.0
 10
-5.045970557432581
 20
-0.8593405728625343
 30
0.0
 10
-5.033126891095409
 20
-0.8529535281774498
 30
0.0
 10
-5.021341392933234
 20
-0.845560978591702
 30
0.0
 10
-5.010812248537405
 20
-0.837033290116984
 30
0.0
 10
-5.001501874862048
 20
-0.8276014723659441
 30
0.0
 10
-4.993318091152428
 20
-0.8175194046442772
 30
0.0
 10
-4.986363318344643
 20
-0.8067796830249656
 30
0.0
 10
-4.980700272795049
 20
-0.7953706851190899
 30
0.0
 10
-4.976337635995262
 20
-0.7832721286873859
 30
0.0
 10
-4.973148596269391
 20
-0.7705620810235266
 30
0.0
 10
-4.971163200603184
 20
-0.7571968107517324
 30
0.0
 10
-4.970909403797727
 20
-0.7480730887199494
 30
0.0
 10
-4.970779963444755
 20
-0.7434198473282422
 30
0.0
  0
SPLINE
  5
88
330
1F
100
AcDbEntity
  8
0
  6
Continuous
 62
     7
370
    25
100
AcDbSpline
210
0.0
220
0.0
230
1.0
 70
     8
 71
     3
 72
    23
 73
    19
 74
     0
 42
0.000000001
 43
0.00000001
 40
0.0
 40
0.0
 40
0.0
 40
0.0
 40
0.061402034106285
 40
0.1213233387874252
 40
0.1791348421338252
 40
0.2357848036551544
 40
0.2917339931050745
 40
0.3468363772372275
 40
0.4028241922971683
 40
0.4588988177004923
 40
0.5165099144742618
 40
0.5766832324837501
 40
0.6394295639031544
 40
0.7049946016998947
 40
0.7736063636535648
 40
0.8452333515108382
 40
0.9209237251837804
 40
1.0
 40
1.0
 40
1.0
 40
1.0
 10
-4.970779963444755
 20
-0.7434198473282422
 30
0.0
 10
-4.970821544326348
 20
-0.7397210165658669
 30
0.0
 10
-4.970903703353454
 20
-0.7324125535119514
 30
0.0
 10
-4.972242093067776
 20
-0.7216937389933065
 30
0.0
 10
-4.974216989025708
 20
-0.7113752920187073
 30
0.0
 10
-4.977083645222952
 20
-0.7015075223673016
 30
0.0
 10
-4.980788380206699
 20
-0.6921034207192678
 30
0.0
 10
-4.985267711479993
 20
-0.6830835247170088
 30
0.0
 10
-4.990647543543531
 20
-0.6745608507203953
 30
0.0
 10
-4.996835683070859
 20
-0.6664172417386727
 30
0.0
 10
-5.003898227360554
 20
-0.6586812283360093
 30
0.0
 10
-5.011678898847753
 20
-0.6510798911554387
 30
0.0
 10
-5.02047480146746
 20
-0.6438930249212236
 30
0.0
 10
-5.030066602702225
 20
-0.636920083576958
 30
0.0
 10
-5.040477898063407
 20
-0.6301885743908131
 30
0.0
 10
-5.051821385935098
 20
-0.6238318461005535
 30
0.0
 10
-5.063939772976872
 20
-0.617581797570132
 30
0.0
 10
-5.07247329278604
 20
-0.6138370173643728
 30
0.0
 10
-5.076833398559259
 20
-0.6119236641221353
 30
0.0
  0
SPLINE
  5
89
330
1F
100
AcDbEntity
  8
0
  6
Continuous
 62
     7
370
    25
100
AcDbSpline
210
0.0
220
0.0
230
1.0
 70
     8
 71
     3
 72
    23
 73
    19
 74
     0
 42
0.000000001
 43
0.00000001
 40
0.0
 40
0.0
 40
0.0
 40
0.0
 40
0.0903844640998438
 40
0.1760651252402322
 40
0.2565319650985359
 40
0.331865026944336
 40
0.4018771952241831
 40
0.4678485426459904
 40
0.5287798456314373
 40
0.5848893382027525
 40
0.6383840883331501
 40
0.690220775756501
 40
0.7408792027268998
 40
0.7911695345250995
 40
0.8411866605291091
 40
0.8924285401228759
 40
0.9454392043788448
 40
1.0
 40
1.0
 40
1.0
 40
1.0
 10
-5.076833398559259
 20
-0.6119236641221353
 30
0.0
 10
-5.080260237588759
 20
-0.610495380769399
 30
0.0
 10
-5.086935575534456
 20
-0.6077131450181279
 30
0.0
 10
-5.096461360793802
 20
-0.6032084102106167
 30
0.0
 10
-5.105402158511382
 20
-0.5989134116194319
 30
0.0
 10
-5.113538534118054
 20
-0.5944534827065101
 30
0.0
 10
-5.120967193083297
 20
-0.5899642419139814
 30
0.0
 10
-5.127758801881061
 20
-0.5855695238516968
 30
0.0
 10
-5.133826505110986
 20
-0.5811236679700055
 30
0.0
 10
-5.139191661989376
 20
-0.5766174639192698
 30
0.0
 10
-5.143982864284939
 20
-0.5720153458182553
 30
0.0
 10
-5.147997538058203
 20
-0.5670067971330922
 30
0.0
 10
-5.151508229080743
 20
-0.5617926386500413
 30
0.0
 10
-5.154273974239825
 20
-0.5562239743828677
 30
0.0
 10
-5.156391026696252
 20
-0.5503575545121766
 30
0.0
 10
-5.157887913446714
 20
-0.5441927704282061
 30
0.0
 10
-5.158856422489296
 20
-0.537725487218846
 30
0.0
 10
-5.158922182267433
 20
-0.5333037808356527
 30
0.0
 10
-5.15895553596384
 20
-0.531061068702288
 30
0.0
  0
SPLINE
  5
8A
330
1F
100
AcDbEntity
  8
0
  6
Continuous
 62
     7
370
    25
100
AcDbSpline
210
0.0
220
0.0
230
1.0
 70
     8
 71
     3
 72
    19
 73
    15
 74
     0
 42
0.000000001
 43
0.00000001
 40
0.0
 40
0.0
 40
0.0
 40
0.0
 40
0.1025957647959423
 40
0.2032311585894472
 40
0.308382951228067
 40
0.4212300729013292
 40
0.4809529350013536
 40
0.542816933754189
 40
0.6076948180231315
 40
0.676344485422058
 40
0.7491939474961535
 40
0.8269035192592051
 40
0.9109673772610244
 40
0.9999999999999999
 40
0.9999999999999999
 40
0.9999999999999999
 40
0.9999999999999999
 10
-5.15895553596384
 20
-0.531061068702288
 30
0.0
 10
-5.158787023642909
 20
-0.5273689656952211
 30
0.0
 10
-5.158453218887056
 20
-0.5200553073463584
 30
0.0
 10
-5.154957131071754
 20
-0.5094119199521323
 30
0.0
 10
-5.149174301224284
 20
-0.4994832005888447
 30
0.0
 10
-5.142672970379766
 20
-0.4918445440062902
 30
0.0
 10
-5.136310229208069
 20
-0.4863126596139077
 30
0.0
 10
-5.130711920609411
 20
-0.4826125123935697
 30
0.0
 10
-5.124453396369113
 20
-0.4794231029410799
 30
0.0
 10
-5.117540831801851
 20
-0.4767294700317787
 30
0.0
 10
-5.109942153739812
 20
-0.4746349725748177
 30
0.0
 10
-5.101640633691632
 20
-0.4731927129396183
 30
0.0
 10
-5.092704941314712
 20
-0.4720427014482421
 30
0.0
 10
-5.086493776240774
 20
-0.4718128705867966
 30
0.0
 10
-5.083299047414221
 20
-0.4716946564885475
 30
0.0
  0
SPLINE
  5
8B
330
1F
100
AcDbEntity
  8
0
  6
Continuous
 62
     7
370
    25
100
AcDbSpline
210
0.0
220
0.0
230
1.0
 70
     8
 71
     3
 72
    15
 73
    11
 74
     0
 42
0.000000001
 43
0.00000001
 40
0.0
 40
0.0
 40
0.0
 40
0.0
 40
0.1625886587017821
 40
0.3157337186087319
 40
0.4569352466503005
 40
0.5904071093638406
 40
0.7124011528284641
 40
0.8210046859526454
 40
0.9168706431267488
 40
1.0
 40
1.0
 40
1.0
 40
1.0
 10
-5.083299047414221
 20
-0.4716946564885475
 30
0.0
 10
-5.078816684615631
 20
-0.4718294705004794
 30
0.0
 10
-5.070112307041864
 20
-0.4720912681538192
 30
0.0
 10
-5.057580530419123
 20
-0.4734707504907069
 30
0.0
 10
-5.045930754502496
 20
-0.4754020543194914
 30
0.0
 10
-5.035372012602997
 20
-0.4783090183122735
 30
0.0
 10
-5.025858937342195
 20
-0.4815150936863807
 30
0.0
 10
-5.017424656034743
 20
-0.4846632039327877
 30
0.0
 10
-5.010171605203391
 20
-0.4878943745934666
 30
0.0
 10
-5.005864327376295
 20
-0.4903070031856115
 30
0.0
 10
-5.003863932910405
 20
-0.4914274809160284
 30
0.0
  0
SPLINE
  5
8D
330
1F
100
AcDbEntity
  8
0
  6
Continuous
 62
     7
370
    25
100
AcDbSpline
210
0.0
220
0.0
230
1.0
 70
     8
 71
     3
 72
    13
 73
     9
 74
     0
 42
0.000000001
 43
0.00000001
 40
0.0
 40
0.0
 40
0.0
 40
0.0
 40
0.1038798927636207
 40
0.214306143244425
 40
0.3332213273395205
 40
0.459787115760187
 40
0.725008636780093
 40
1.0
 40
1.0
 40
1.0
 40
1.0
 10
-1.139387070992345
 20
-5.850985590112117
 30
0.0
 10
-1.141984674293947
 20
-5.852156691086715
 30
0.0
 10
-1.147343578028205
 20
-5.854572694093064
 30
0.0
 10
-1.155990466314013
 20
-5.857553620007582
 30
0.0
 10
-1.165373930590342
 20
-5.860248172136703
 30
0.0
 10
-1.179056959952834
 20
-5.863240100534107
 30
0.0
 10
-1.197168662498892
 20
-5.866020928664366
 30
0.0
 10
-1.211983644848461
 20
-5.866487623363493
 30
0.0
 10
-1.219525101765246
 20
-5.866725190839693
 30
0.0
  0
SPLINE
  5
8E
330
1F
100
AcDbEntity
  8
0
  6
Continuous
 62
     7
370
    25
100
AcDbSpline
210
0.0
220
0.0
230
1.0
 70
     8
 71
     3
 72
    23
 73
    19
 74
     0
 42
0.000000001
 43
0.00000001
 40
0.0
 40
0.0
 40
0.0
 40
0.0
 40
0.0658481387443118
 40
0.1285663156420538
 40
0.1887394998209939
 40
0.246596828689537
 40
0.3031045871031453
 40
0.35895745662131
 40
0.4148745320209528
 40
0.4715724651794032
 40
0.529328812427751
 40
0.5879913881429899
 40
0.648735912614384
 40
0.7117879256881837
 40
0.778152922288032
 40
0.8479967623059962
 40
0.9217258914326706
 40
1.0
 40
1.0
 40
1.0
 40
1.0
 10
-1.219525101765246
 20
-5.866725190839693
 30
0.0
 10
-1.225157546535496
 20
-5.866573365498134
 30
0.0
 10
-1.236154708884765
 20
-5.866276931534199
 30
0.0
 10
-1.252189927996616
 20
-5.864161464751632
 30
0.0
 10
-1.26726962980746
 20
-5.860652063903118
 30
0.0
 10
-1.281403674674267
 20
-5.85576354319249
 30
0.0
 10
-1.294592568457099
 20
-5.849527853724648
 30
0.0
 10
-1.306840760342966
 20
-5.841916520704705
 30
0.0
 10
-1.31819328586026
 20
-5.832985954989906
 30
0.0
 10
-1.328426266954429
 20
-5.822568782256882
 30
0.0
 10
-1.337707883311706
 20
-5.810996229548216
 30
0.0
 10
-1.345715957803653
 20
-5.798093942816947
 30
0.0
 10
-1.352529305737785
 20
-5.784024566654653
 30
0.0
 10
-1.358059006993278
 20
-5.768702466482946
 30
0.0
 10
-1.362401438822667
 20
-5.752201933159911
 30
0.0
 10
-1.365545774857014
 20
-5.734510378429398
 30
0.0
 10
-1.367618179766391
 20
-5.715628283437068
 30
0.0
 10
-1.367914497566408
 20
-5.702626545958554
 30
0.0
 10
-1.36806708649807
 20
-5.695931297709922
 30
0.0
  0
SPLINE
  5
8F
330
1F
100
AcDbEntity
  8
0
  6
Continuous
 62
     7
370
    25
100
AcDbSpline
210
0.0
220
0.0
230
1.0
 70
     8
 71
     3
 72
    23
 73
    19
 74
     0
 42
0.000000001
 43
0.00000001
 40
0.0
 40
0.0
 40
0.0
 40
0.0
 40
0.0812536854378969
 40
0.1577186482227157
 40
0.2294579773586619
 40
0.2976490707028224
 40
0.3619221711402323
 40
0.4238253063451661
 40
0.4833862278975057
 40
0.541689693928032
 40
0.5988774089936573
 40
0.654444572135148
 40
0.7097438037608682
 40
0.7651535725506686
 40
0.8213049400077082
 40
0.8788045555565427
 40
0.9381746368315468
 40
0.9999999999999999
 40
0.9999999999999999
 40
0.9999999999999999
 40
0.9999999999999999
 10
-1.36806708649807
 20
-5.695931297709922
 30
0.0
 10
-1.367857645114481
 20
-5.688899728437556
 30
0.0
 10
-1.367451105869849
 20
-5.675250998604012
 30
0.0
 10
-1.365240741184299
 20
-5.655494763230879
 30
0.0
 10
-1.361867195622656
 20
-5.637051071753903
 30
0.0
 10
-1.357049103244537
 20
-5.620024852350485
 30
0.0
 10
-1.351214790934196
 20
-5.604221942447719
 30
0.0
 10
-1.343992605958132
 20
-5.589820860427868
 30
0.0
 10
-1.335466553360005
 20
-5.576763769139236
 30
0.0
 10
-1.325676062208764
 20
-5.565155147372427
 30
0.0
 10
-1.314928802886367
 20
-5.554936829222282
 30
0.0
 10
-1.30341729287757
 20
-5.546001788975349
 30
0.0
 10
-1.291094532229528
 20
-5.538511732154986
 30
0.0
 10
-1.278005947552757
 20
-5.532346978708135
 30
0.0
 10
-1.264153380390562
 20
-5.527552588647152
 30
0.0
 10
-1.249558479662528
 20
-5.524102794347188
 30
0.0
 10
-1.234193637953227
 20
-5.522065904128695
 30
0.0
 10
-1.223701750054694
 20
-5.521820065836682
 30
0.0
 10
-1.218349529246162
 20
-5.521694656488548
 30
0.0
  0
SPLINE
  5
90
330
1F
100
AcDbEntity
  8
0
  6
Continuous
 62
     7
370
    25
100
AcDbSpline
210
0.0
220
0.0
230
1.0
 70
     8
 71
     3
 72
    15
 73
    11
 74
     0
 42
0.000000001
 43
0.00000001
 40
0.0
 40
0.0
 40
0.0
 40
0.0
 40
0.1510454794427342
 40
0.2941102168467597
 40
0.4296416360337853
 40
0.5581658608133372
 40
0.6794731619076163
 40
0.7938774894058079
 40
0.9000323013671004
 40
1.0
 40
1.0
 40
1.0
 40
1.0
 10
-1.218349529246162
 20
-5.521694656488548
 30
0.0
 10
-1.214317016625871
 20
-5.521761236955994
 30
0.0
 10
-1.206465055974241
 20
-5.521890879999868
 30
0.0
 10
-1.195027637454763
 20
-5.522834272100574
 30
0.0
 10
-1.184250625545301
 20
-5.524301127814215
 30
0.0
 10
-1.174187230451727
 20
-5.526461126736372
 30
0.0
 10
-1.164757544274472
 20
-5.528851454987064
 30
0.0
 10
-1.156072560777135
 20
-5.531660344645956
 30
0.0
 10
-1.148001333267246
 20
-5.534525441415828
 30
0.0
 10
-1.14301307009373
 20
-5.536854943662299
 30
0.0
 10
-1.140593804055322
 20
-5.537984732824426
 30
0.0
  0
SPLINE
  5
92
330
1F
100
AcDbEntity
  8
0
  6
Continuous
 62
     7
370
    25
100
AcDbSpline
210
0.0
220
0.0
230
1.0
 70
     8
 71
     3
 72
    15
 73
    11
 74
     0
 42
0.000000001
 43
0.00000001
 40
0.0
 40
0.0
 40
0.0
 40
0.0
 40
0.0622161018965229
 40
0.1423789148486492
 40
0.2399035032818428
 40
0.356316627234684
 40
0.4897733756382811
 40
0.6418939062729422
 40
0.8115812516791788
 40
1.0
 40
1.0
 40
1.0
 40
1.0
 10
-1.126037729985666
 20
-5.484954243201334
 30
0.0
 10
-1.127854625860454
 20
-5.484100657900253
 30
0.0
 10
-1.132012515139271
 20
-5.482147264081064
 30
0.0
 10
-1.13934212280146
 20
-5.479627354644175
 30
0.0
 10
-1.14848017462497
 20
-5.477092314844331
 30
0.0
 10
-1.159319939707185
 20
-5.474251698803086
 30
0.0
 10
-1.172063764779523
 20
-5.471800367718527
 30
0.0
 10
-1.186660565390849
 20
-5.470152147537445
 30
0.0
 10
-1.203075769526697
 20
-5.468940688471415
 30
0.0
 10
-1.214624349407197
 20
-5.468734461320563
 30
0.0
 10
-1.22070067428433
 20
-5.468625954198473
 30
0.0
  0
SPLINE
  5
93
330
1F
100
AcDbEntity
  8
0
  6
Continuous
 62
     7
370
    25
100
AcDbSpline
210
0.0
220
0.0
230
1.0
 70
     8
 71
     3
 72
    23
 73
    19
 74
     0
 42
0.000000001
 43
0.00000001
 40
0.0
 40
0.0
 40
0.0
 40
0.0
 40
0.0645368137490959
 40
0.1264512164128262
 40
0.1864649688635134
 40
0.244591678539294
 40
0.3019181771250921
 40
0.3588408383343801
 40
0.4158558631180536
 40
0.4737074920908979
 40
0.5321875993055611
 40
0.5914186887105221
 40
0.6520869140066532
 40
0.7147615219801203
 40
0.7804269185068995
 40
0.8494315435242634
 40
0.9224677898588447
 40
1.0
 40
1.0
 40
1.0
 40
1.0
 10
-1.22070067428433
 20
-5.468625954198472
 30
0.0
 10
-1.228378620425155
 20
-5.468795145593064
 30
0.0
 10
-1.243422524402722
 20
-5.469126653400934
 30
0.0
 10
-1.265457916127767
 20
-5.471971045431369
 30
0.0
 10
-1.286402567639899
 20
-5.476553565495902
 30
0.0
 10
-1.306299328898761
 20
-5.482960918399604
 30
0.0
 10
-1.325112205019918
 20
-5.491201946106127
 30
0.0
 10
-1.34281819576627
 20
-5.501344912794973
 30
0.0
 10
-1.359465109582027
 20
-5.513249733640701
 30
0.0
 10
-1.374929351898404
 20
-5.526940162805093
 30
0.0
 10
-1.389025535410608
 20
-5.542405316115018
 30
0.0
 10
-1.401348586316415
 20
-5.559738786093274
 30
0.0
 10
-1.411776574289107
 20
-5.578837934323912
 30
0.0
 10
-1.420351300443473
 20
-5.599660642067367
 30
0.0
 10
-1.427116066737943
 20
-5.622170511775384
 30
0.0
 10
-1.432135330117949
 20
-5.646385139399172
 30
0.0
 10
-1.435332520634297
 20
-5.672339117322763
 30
0.0
 10
-1.435993766671353
 20
-5.690240207509717
 30
0.0
 10
-1.436334262070589
 20
-5.699458015267175
 30
0.0
  0
SPLINE
  5
94
330
1F
100
AcDbEntity
  8
0
  6
Continuous
 62
     7
370
    25
100
AcDbSpline
210
0.0
220
0.0
230
1.0
 70
     8
 71
     3
 72
    23
 73
    19
 74
     0
 42
0.000000001
 43
0.00000001
 40
0.0
 40
0.0
 40
0.0
 40
0.0
 40
0.0761547248997536
 40
0.1480771804759028
 40
0.2163557301867433
 40
0.2814845594360728
 40
0.3437726745383674
 40
0.4039527888451418
 40
0.462919657236786
 40
0.5211217678443307
 40
0.5787430004014203
 40
0.6356066415736372
 40
0.6924602817814008
 40
0.7498233132802321
 40
0.8087002772277497
 40
0.8697101606303581
 40
0.9333773752620651
 40
1.0
 40
1.0
 40
1.0
 40
1.0
 10
-1.436334262070589
 20
-5.699458015267175
 30
0.0
 10
-1.436110463290908
 20
-5.708171793747438
 30
0.0
 10
-1.435675303261996
 20
-5.725115085845827
 30
0.0
 10
-1.432718219612086
 20
-5.749722727425921
 30
0.0
 10
-1.42834960289406
 20
-5.772822708666665
 30
0.0
 10
-1.422252416764861
 20
-5.794403005491674
 30
0.0
 10
-1.414399370704882
 20
-5.814409266482556
 30
0.0
 10
-1.405013163418144
 20
-5.832968672877099
 30
0.0
 10
-1.393757776975911
 20
-5.849900717120136
 30
0.0
 10
-1.380995705860846
 20
-5.865349370794755
 30
0.0
 10
-1.366670263651616
 20
-5.879012385011551
 30
0.0
 10
-1.351158589152688
 20
-5.891059034586432
 30
0.0
 10
-1.33434440424461
 20
-5.901166525178113
 30
0.0
 10
-1.316310442093265
 20
-5.909437948731728
 30
0.0
 10
-1.297052773790504
 20
-5.915905542144234
 30
0.0
 10
-1.276553752462661
 20
-5.920595482393609
 30
0.0
 10
-1.254816514944774
 20
-5.923472311254883
 30
0.0
 10
-1.239910517995792
 20
-5.923927532003355
 30
0.0
 10
-1.232288460543872
 20
-5.92416030534351
 30
0.0
  0
SPLINE
  5
95
330
1F
100
AcDbEntity
  8
0
  6
Continuous
 62
     7
370
    25
100
AcDbSpline
210
0.0
220
0.0
230
1.0
 70
     8
 71
     3
 72
    15
 73
    11
 74
     0
 42
0.000000001
 43
0.00000001
 40
0.0
 40
0.0
 40
0.0
 40
0.0
 40
0.1649872852109746
 40
0.318540580196125
 40
0.4624374818868109
 40
0.5955674813581511
 40
0.7173118421096093
 40
0.8249846835785118
 40
0.9191349145285206
 40
0.9999999999999999
 40
0.9999999999999999
 40
0.9999999999999999
 40
0.9999999999999999
 10
-1.232288460543872
 20
-5.92416030534351
 30
0.0
 10
-1.22640797546659
 20
-5.924084421003418
 30
0.0
 10
-1.215054536163938
 20
-5.923937911278804
 30
0.0
 10
-1.198614890890308
 20
-5.922685160005759
 30
0.0
 10
-1.183357857331616
 20
-5.921007488528558
 30
0.0
 10
-1.169345504047592
 20
-5.918578740244217
 30
0.0
 10
-1.156762729084728
 20
-5.915625159967315
 30
0.0
 10
-1.145641686937127
 20
-5.912573236396216
 30
0.0
 10
-1.136098948021866
 20
-5.909291359048749
 30
0.0
 10
-1.13044351441471
 20
-5.906653791442018
 30
0.0
 10
-1.127830445276696
 20
-5.905435114503815
 30
0.0
  0
SPLINE
  5
A0
330
1F
100
AcDbEntity
  8
0
  6
Continuous
 62
     7
370
    25
100
AcDbSpline
210
0.0
220
0.0
230
1.0
 70
     8
 71
     3
 72
    11
 73
     7
 74
     0
 42
0.000000001
 43
0.00000001
 40
0.0
 40
0.0
 40
0.0
 40
0.0
 40
0.256072563358359
 40
0.507381899413182
 40
0.7554647167784214
 40
0.9999999999999999
 40
0.9999999999999999
 40
0.9999999999999999
 40
0.9999999999999999
 10
-2.00765184615933
 20
-5.681836891698472
 30
0.0
 10
-2.011894265970348
 20
-5.695583542376531
 30
0.0
 10
-2.020300191984413
 20
-5.72282114112639
 30
0.0
 10
-2.031616968100224
 20
-5.763730489483438
 30
0.0
 10
-2.041846400498994
 20
-5.804258349292929
 30
0.0
 10
-2.04773284552987
 20
-5.831301158913534
 30
0.0
 10
-2.050654872757613
 20
-5.844725190839693
 30
0.0
  0
SPLINE
  5
A2
330
1F
100
AcDbEntity
  8
0
  6
Continuous
 62
     7
370
    25
100
AcDbSpline
210
0.0
220
0.0
230
1.0
 70
     8
 71
     3
 72
    11
 73
     7
 74
     0
 42
0.000000001
 43
0.00000001
 40
0.0
 40
0.0
 40
0.0
 40
0.0
 40
0.2434135525114418
 40
0.4908859961458649
 40
0.7432095285479965
 40
1.0
 40
1.0
 40
1.0
 40
1.0
 10
-2.05234311822517
 20
-5.844725190839693
 30
0.0
 10
-2.05531620095119
 20
-5.831363198759947
 30
0.0
 10
-2.061311942192912
 20
-5.804416405021949
 30
0.0
 10
-2.071255321638338
 20
-5.763818884036194
 30
0.0
 10
-2.082124421247058
 20
-5.722679783607094
 30
0.0
 10
-2.09011879698307
 20
-5.69518740720726
 30
0.0
 10
-2.094151055963719
 20
-5.681320610687021
 30
0.0
  0
SPLINE
  5
AF
330
1F
100
AcDbEntity
  8
0
  6
Continuous
 62
     7
370
    25
100
AcDbSpline
210
0.0
220
0.0
230
1.0
 70
     8
 71
     3
 72
    23
 73
    19
 74
     0
 42
0.000000001
 43
0.00000001
 40
0.0
 40
0.0
 40
0.0
 40
0.0
 40
0.0635874246455906
 40
0.1241740751431633
 40
0.1826915913866987
 40
0.2395473191804918
 40
0.2955686681026528
 40
0.3516205655930984
 40
0.408233813758559
 40
0.4663215880534906
 40
0.5255023243444574
 40
0.5859197258432681
 40
0.6478683410081548
 40
0.7117950617733905
 40
0.7788461499723616
 40
0.84882812544444
 40
0.9223387207865743
 40
1.0
 40
1.0
 40
1.0
 40
1.0
 10
-3.056825637010952
 20
-5.469045883528147
 30
0.0
 10
-3.063958736458897
 20
-5.469323966342439
 30
0.0
 10
-3.077888315016128
 20
-5.469867008877507
 30
0.0
 10
-3.09818190006913
 20
-5.473051641629596
 30
0.0
 10
-3.117328944585669
 20
-5.477971633610102
 30
0.0
 10
-3.135362434254757
 20
-5.484775386788847
 30
0.0
 10
-3.152182292877253
 20
-5.49360146021762
 30
0.0
 10
-3.167888490083675
 20
-5.504227440662662
 30
0.0
 10
-3.182442937742346
 20
-5.516752186874823
 30
0.0
 10
-3.195659837487461
 20
-5.531151532511507
 30
0.0
 10
-3.207621229335563
 20
-5.547138977974514
 30
0.0
 10
-3.218059024319001
 20
-5.564674426586115
 30
0.0
 10
-3.226843207271107
 20
-5.583670577379195
 30
0.0
 10
-3.234227601529216
 20
-5.604047354310845
 30
0.0
 10
-3.239836703470847
 20
-5.625913044363803
 30
0.0
 10
-3.244042674435972
 20
-5.649172611029336
 30
0.0
 10
-3.246651850085641
 20
-5.673874117096645
 30
0.0
 10
-3.247137965771146
 20
-5.69083083688351
 30
0.0
 10
-3.247387697185094
 20
-5.699541984732823
 30
0.0
  0
SPLINE
  5
B0
330
1F
100
AcDbEntity
  8
0
  6
Continuous
 62
     7
370
    25
100
AcDbSpline
210
0.0
220
0.0
230
1.0
 70
     8
 71
     3
 72
    23
 73
    19
 74
     0
 42
0.000000001
 43
0.00000001
 40
0.0
 40
0.0
 40
0.0
 40
0.0
 40
0.0767191081022937
 40
0.1496903395758891
 40
0.2189083324392487
 40
0.2853908248720543
 40
0.3492106790230111
 40
0.4110490902851948
 40
0.4711272911633692
 40
0.5304161979824299
 40
0.5883364127995233
 40
0.645191152951198
 40
0.7012370145816934
 40
0.7574375116328524
 40
0.8149116033668806
 40
0.874058952705444
 40
0.9355257185509492
 40
1.0
 40
1.0
 40
1.0
 40
1.0
 10
-3.247387697185093
 20
-5.699541984732822
 30
0.0
 10
-3.247207722116695
 20
-5.707918701043754
 30
0.0
 10
-3.246856564109646
 20
-5.724262914892569
 30
0.0
 10
-3.244206616794872
 20
-5.748035221222347
 30
0.0
 10
-3.240475688635263
 20
-5.77052543246279
 30
0.0
 10
-3.234962007869286
 20
-5.791621503431688
 30
0.0
 10
-3.228156346534879
 20
-5.81149203636449
 30
0.0
 10
-3.219587274883826
 20
-5.829899747047901
 30
0.0
 10
-3.209793684708011
 20
-5.847121062760012
 30
0.0
 10
-3.198350162266967
 20
-5.862775634174325
 30
0.0
 10
-3.185674373610621
 20
-5.876974139322632
 30
0.0
 10
-3.171700518647684
 20
-5.88939138764254
 30
0.0
 10
-3.156455650408275
 20
-5.899881355663364
 30
0.0
 10
-3.140010121473143
 20
-5.908502284627536
 30
0.0
 10
-3.122375995338694
 20
-5.915318660401198
 30
0.0
 10
-3.103540595310462
 20
-5.920274198183075
 30
0.0
 10
-3.083518354814886
 20
-5.923307255104361
 30
0.0
 10
-3.069774747116247
 20
-5.923871464095424
 30
0.0
 10
-3.062738842223261
 20
-5.92416030534351
 30
0.0
  0
SPLINE
  5
B1
330
1F
100
AcDbEntity
  8
0
  6
Continuous
 62
     7
370
    25
100
AcDbSpline
210
0.0
220
0.0
230
1.0
 70
     8
 71
     3
 72
    23
 73
    19
 74
     0
 42
0.000000001
 43
0.00000001
 40
0.0
 40
0.0
 40
0.0
 40
0.0
 40
0.060307464232781
 40
0.1183809323392019
 40
0.1744948398708969
 40
0.2293229077344719
 40
0.2833329207632947
 40
0.3377444585896769
 40
0.3927745814007786
 40
0.4492353278592602
 40
0.507092396069879
 40
0.5668112358155608
 40
0.6291462196668984
 40
0.6945668107614056
 40
0.7640344268582044
 40
0.8378246806454231
 40
0.9163623734147516
 40
1.0
 40
1.0
 40
1.0
 40
1.0
 10
-3.062738842223261
 20
-5.92416030534351
 30
0.0
 10
-3.055927557591206
 20
-5.924020127225791
 30
0.0
 10
-3.042557301762542
 20
-5.923744963670498
 30
0.0
 10
-3.023015657555462
 20
-5.920958682164556
 30
0.0
 10
-3.004414631955308
 20
-5.916578584415206
 30
0.0
 10
-2.986882355905411
 20
-5.910199591078664
 30
0.0
 10
-2.970234418771148
 20
-5.902216944885247
 30
0.0
 10
-2.954665682664829
 20
-5.892230667165929
 30
0.0
 10
-2.940074393824349
 20
-5.880448265831807
 30
0.0
 10
-2.926396540040552
 20
-5.867039391505565
 30
0.0
 10
-2.914105968805043
 20
-5.851656416285223
 30
0.0
 10
-2.903266537631965
 20
-5.834425354796696
 30
0.0
 10
-2.894284326648298
 20
-5.815218745941499
 30
0.0
 10
-2.886675185577064
 20
-5.794267560804049
 30
0.0
 10
-2.880777133254756
 20
-5.771428233268418
 30
0.0
 10
-2.876467485708055
 20
-5.746747416716331
 30
0.0
 10
-2.873669568186124
 20
-5.720231966635716
 30
0.0
 10
-2.873151209933806
 20
-5.701928221494952
 30
0.0
 10
-2.872883880391201
 20
-5.69248854961832
 30
0.0
  0
SPLINE
  5
B2
330
1F
100
AcDbEntity
  8
0
  6
Continuous
 62
     7
370
    25
100
AcDbSpline
210
0.0
220
0.0
230
1.0
 70
     8
 71
     3
 72
    23
 73
    19
 74
     0
 42
0.000000001
 43
0.00000001
 40
0.0
 40
0.0
 40
0.0
 40
0.0
 40
0.0739435196556208
 40
0.1445884701546771
 40
0.2122844169623494
 40
0.2773020654260535
 40
0.3404145866182252
 40
0.4016244381331854
 40
0.4618039734004502
 40
0.5212344820055719
 40
0.5796674303538114
 40
0.6367274959823058
 40
0.6933957201903624
 40
0.7506553336553698
 40
0.8090440047211401
 40
0.8698227706960161
 40
0.9331597504763589
 40
1.0
 40
1.0
 40
1.0
 40
1.0
 10
-2.8728838803912
 20
-5.692488549618319
 30
0.0
 10
-2.873023091054233
 20
-5.684450133818697
 30
0.0
 10
-2.873295302289117
 20
-5.668731890376303
 30
0.0
 10
-2.875592926152949
 20
-5.645744286186219
 30
0.0
 10
-2.879383231064446
 20
-5.623952668591705
 30
0.0
 10
-2.88446369255977
 20
-5.603262492252795
 30
0.0
 10
-2.891065571202378
 20
-5.583738726442537
 30
0.0
 10
-2.899279433333177
 20
-5.565414028818438
 30
0.0
 10
-2.908857665240834
 20
-5.548222781278071
 30
0.0
 10
-2.919825587066426
 20
-5.532244666097801
 30
0.0
 10
-2.93218703166664
 20
-5.517735179796917
 30
0.0
 10
-2.94611263487698
 20
-5.505171133296594
 30
0.0
 10
-2.961214514823248
 20
-5.494257813092399
 30
0.0
 10
-2.97781177215383
 20
-5.48546617702405
 30
0.0
 10
-2.995692922209243
 20
-5.478430780386528
 30
0.0
 10
-3.01490825171531
 20
-5.473348403364961
 30
0.0
 10
-3.035458701107485
 20
-5.470137945705412
 30
0.0
 10
-3.049600031791195
 20
-5.469471804855475
 30
0.0
 10
-3.056860979627841
 20
-5.469129770992366
 30
0.0
  0
SPLINE
  5
B6
330
1F
100
AcDbEntity
  8
0
  6
Continuous
 62
     7
370
    25
100
AcDbSpline
210
0.0
220
0.0
230
1.0
 70
     8
 71
     3
 72
    11
 73
     7
 74
     0
 42
0.000000001
 43
0.00000001
 40
0.0
 40
0.0
 40
0.0
 40
0.0
 40
0.2296464408885824
 40
0.4730603180193778
 40
0.7289228305226365
 40
1.0
 40
1.0
 40
1.0
 40
1.0
 10
-4.820390650467657
 20
-0.6939874165076317
 30
0.0
 10
-4.81754110799198
 20
-0.6944933474599657
 30
0.0
 10
-4.811671191329925
 20
-0.6955355402162781
 30
0.0
 10
-4.802520129456537
 20
-0.6963836307826957
 30
0.0
 10
-4.792827390360849
 20
-0.6969153024173043
 30
0.0
 10
-4.786187918557053
 20
-0.6969057021101642
 30
0.0
 10
-4.78277232985697
 20
-0.6969007633587765
 30
0.0
  0
SPLINE
  5
B7
330
1F
100
AcDbEntity
  8
0
  6
Continuous
 62
     7
370
    25
100
AcDbSpline
210
0.0
220
0.0
230
1.0
 70
     8
 71
     3
 72
    23
 73
    19
 74
     0
 42
0.000000001
 43
0.00000001
 40
0.0
 40
0.0
 40
0.0
 40
0.0
 40
0.0621171164790696
 40
0.1227857143257941
 40
0.1822846940868276
 40
0.2413206027302997
 40
0.2999253697711775
 40
0.3586530947590092
 40
0.4176584484887998
 40
0.4773078372943402
 40
0.5367319439497228
 40
0.5958432174106627
 40
0.655333672080425
 40
0.7169324042401629
 40
0.7812697835146717
 40
0.8494349965368566
 40
0.9219031944567581
 40
1.0
 40
1.0
 40
1.0
 40
1.0
 10
-4.78277232985697
 20
-0.6969007633587765
 30
0.0
 10
-4.777591086910491
 20
-0.6968979245517778
 30
0.0
 10
-4.767349423221974
 20
-0.6968923131363594
 30
0.0
 10
-4.752199294231433
 20
-0.6954721547728725
 30
0.0
 10
-4.737430400811369
 20
-0.6931533569594829
 30
0.0
 10
-4.723048566647353
 20
-0.6897155533136388
 30
0.0
 10
-4.709065566465712
 20
-0.685127476850021
 30
0.0
 10
-4.695421099172668
 20
-0.6796150242080912
 30
0.0
 10
-4.682213356777709
 20
-0.6729279891714415
 30
0.0
 10
-4.669460750844568
 20
-0.6652998565575832
 30
0.0
 10
-4.657516745696203
 20
-0.6563918505819109
 30
0.0
 10
-4.647053590212341
 20
-0.6457909917390835
 30
0.0
 10
-4.638014428529941
 20
-0.6337263109146024
 30
0.0
 10
-4.630671185725777
 20
-0.6200701110180711
 30
0.0
 10
-4.624658506527501
 20
-0.6050075518739992
 30
0.0
 10
-4.62028139668846
 20
-0.5884552786643634
 30
0.0
 10
-4.617292027417975
 20
-0.5704299351266423
 30
0.0
 10
-4.616613056171154
 20
-0.5578873916056205
 30
0.0
 10
-4.61626087947529
 20
-0.5513816793893109
 30
0.0
  0
SPLINE
  5
B8
330
1F
100
AcDbEntity
  8
0
  6
Continuous
 62
     7
370
    25
100
AcDbSpline
210
0.0
220
0.0
230
1.0
 70
     8
 71
     3
 72
    15
 73
    11
 74
     0
 42
0.000000001
 43
0.00000001
 40
0.0
 40
0.0
 40
0.0
 40
0.0
 40
0.1399064170772894
 40
0.2740132591461061
 40
0.4028682011679312
 40
0.5286815238802994
 40
0.6509347865348886
 40
0.7689717857077971
 40
0.884754327675767
 40
1.0
 40
1.0
 40
1.0
 40
1.0
 10
-4.61626087947529
 20
-0.5513816793893109
 30
0.0
 10
-4.616384299236926
 20
-0.5463085856740917
 30
0.0
 10
-4.616626022610561
 20
-0.5363726944412196
 30
0.0
 10
-4.61868177896069
 20
-0.5218817938501559
 30
0.0
 10
-4.622026048833621
 20
-0.5081682308027266
 30
0.0
 10
-4.626739502567949
 20
-0.4953148426633313
 30
0.0
 10
-4.632608313136676
 20
-0.4833847963084652
 30
0.0
 10
-4.639523851017013
 20
-0.4724629130058769
 30
0.0
 10
-4.647502388533538
 20
-0.4625795512290514
 30
0.0
 10
-4.65371769820215
 20
-0.4569521835116236
 30
0.0
 10
-4.656818131383687
 20
-0.4541450381679369
 30
0.0
  0
SPLINE
  5
B9
330
1F
100
AcDbEntity
  8
0
  6
Continuous
 62
     7
370
    25
100
AcDbSpline
210
0.0
220
0.0
230
1.0
 70
     8
 71
     3
 72
    15
 73
    11
 74
     0
 42
0.000000001
 43
0.00000001
 40
0.0
 40
0.0
 40
0.0
 40
0.0
 40
0.1048285008080523
 40
0.2129550962708302
 40
0.3263295385536202
 40
0.4449824192080905
 40
0.5710068772665435
 40
0.7054000124203054
 40
0.8478105531298394
 40
1.0
 40
1.0
 40
1.0
 40
1.0
 10
-4.656818131383687
 20
-0.4541450381679368
 30
0.0
 10
-4.660364189041337
 20
-0.4512836444533939
 30
0.0
 10
-4.667567869758375
 20
-0.4454708323912908
 30
0.0
 10
-4.679832824500333
 20
-0.4382784269533638
 30
0.0
 10
-4.693301822088262
 20
-0.4321771702084042
 30
0.0
 10
-4.708023062147194
 20
-0.4271061527090987
 30
0.0
 10
-4.724053940656319
 20
-0.4232671526493941
 30
0.0
 10
-4.741365398757058
 20
-0.4206951473150502
 30
0.0
 10
-4.759923928061057
 20
-0.4189211800499396
 30
0.0
 10
-4.772719452976065
 20
-0.4187818837196332
 30
0.0
 10
-4.779329581765366
 20
-0.41870992366412
 30
0.0
  0
SPLINE
  5
BA
330
1F
100
AcDbEntity
  8
0
  6
Continuous
 62
     7
370
    25
100
AcDbSpline
210
0.0
220
0.0
230
1.0
 70
     8
 71
     3
 72
    15
 73
    11
 74
     0
 42
0.000000001
 43
0.00000001
 40
0.0
 40
0.0
 40
0.0
 40
0.0
 40
0.152200731851059
 40
0.2967968004797027
 40
0.4330825283026813
 40
0.5618749493359634
 40
0.6831667005286575
 40
0.7963228533980214
 40
0.9021935270971828
 40
1.0
 40
1.0
 40
1.0
 40
1.0
 10
-4.779329581765367
 20
-0.4187099236641201
 30
0.0
 10
-4.784899812995596
 20
-0.4188099446937829
 30
0.0
 10
-4.795761960548749
 20
-0.4190049892328174
 30
0.0
 10
-4.811607610483957
 20
-0.4194883238060999
 30
0.0
 10
-4.82658614452637
 20
-0.4202318322030517
 30
0.0
 10
-4.840691583060492
 20
-0.4212634075904567
 30
0.0
 10
-4.853940321752781
 20
-0.4223950217959027
 30
0.0
 10
-4.866316614122745
 20
-0.4238250075441041
 30
0.0
 10
-4.877797053149555
 20
-0.4254837124938955
 30
0.0
 10
-4.885134404465316
 20
-0.4268072032403836
 30
0.0
 10
-4.888657826040175
 20
-0.4274427480916009
 30
0.0
  0
SPLINE
  5
C2
330
1F
100
AcDbEntity
  8
0
  6
Continuous
 62
     7
370
    25
100
AcDbSpline
210
0.0
220
0.0
230
1.0
 70
     8
 71
     3
 72
    13
 73
     9
 74
     0
 42
0.000000001
 43
0.00000001
 40
0.0
 40
0.0
 40
0.0
 40
0.0
 40
0.1374483936207643
 40
0.2697955285260159
 40
0.3976577546917947
 40
0.5205928999238025
 40
0.7612410046523069
 40
1.0
 40
1.0
 40
1.0
 40
1.0
 10
-4.098589287752961
 20
-0.586114779639788
 30
0.0
 10
-4.098617157400651
 20
-0.594661917783795
 30
0.0
 10
-4.098671862342123
 20
-0.6114389756467606
 30
0.0
 10
-4.098276754307832
 20
-0.6361643993902547
 30
0.0
 10
-4.097787623067538
 20
-0.659984507114497
 30
0.0
 10
-4.096919708387194
 20
-0.690532054038074
 30
0.0
 10
-4.095132539987252
 20
-0.7279518515870439
 30
0.0
 10
-4.092787538561241
 20
-0.7576718428171744
 30
0.0
 10
-4.091619658101244
 20
-0.772473282442746
 30
0.0
  0
SPLINE
  5
C4
330
1F
100
AcDbEntity
  8
0
  6
Continuous
 62
     7
370
    25
100
AcDbSpline
210
0.0
220
0.0
230
1.0
 70
     8
 71
     3
 72
    11
 73
     7
 74
     0
 42
0.000000001
 43
0.00000001
 40
0.0
 40
0.0
 40
0.0
 40
0.0
 40
0.2386394267138797
 40
0.4875000847807164
 40
0.7425776874592639
 40
1.0
 40
1.0
 40
1.0
 40
1.0
 10
-4.09330273747863
 20
-0.7730411423544826
 30
0.0
 10
-4.098391454542448
 20
-0.7611402575553771
 30
0.0
 10
-4.108786844919458
 20
-0.7368287578655736
 30
0.0
 10
-4.126302889829605
 20
-0.7005564060030534
 30
0.0
 10
-4.145146687047134
 20
-0.6638077690603782
 30
0.0
 10
-4.158926991004826
 20
-0.6396673939379361
 30
0.0
 10
-4.165848665734832
 20
-0.6275419847328223
 30
0.0
  0
SPLINE
  5
CA
330
1F
100
AcDbEntity
  8
0
  6
Continuous
 62
     7
370
    25
100
AcDbSpline
210
0.0
220
0.0
230
1.0
 70
     8
 71
     3
 72
    13
 73
     9
 74
     0
 42
0.000000001
 43
0.00000001
 40
0.0
 40
0.0
 40
0.0
 40
0.0
 40
0.146398201870997
 40
0.2861588451869917
 40
0.4175254403287196
 40
0.5418321037702398
 40
0.7767986782565071
 40
1.0
 40
1.0
 40
1.0
 40
1.0
 10
-4.293734161918038
 20
-0.699420913346849
 30
0.0
 10
-4.293757461357065
 20
-0.690155913956559
 30
0.0
 10
-4.293803003860185
 20
-0.6720459816465995
 30
0.0
 10
-4.293947895418906
 20
-0.6456225621402406
 30
0.0
 10
-4.294278666433451
 20
-0.6205986757078407
 30
0.0
 10
-4.294960765337522
 20
-0.5895555070109338
 30
0.0
 10
-4.2960257059124
 20
-0.552704661337688
 30
0.0
 10
-4.297646745477421
 20
-0.5237529744881111
 30
0.0
 10
-4.298436451994374
 20
-0.50964885496183
 30
0.0
  0
SPLINE
  5
CC
330
1F
100
AcDbEntity
  8
0
  6
Continuous
 62
     7
370
    25
100
AcDbSpline
210
0.0
220
0.0
230
1.0
 70
     8
 71
     3
 72
    11
 73
     7
 74
     0
 42
0.000000001
 43
0.00000001
 40
0.0
 40
0.0
 40
0.0
 40
0.0
 40
0.2457784938535998
 40
0.4972791673686422
 40
0.750372151610738
 40
1.0
 40
1.0
 40
1.0
 40
1.0
 10
-4.296082026898954
 20
-0.5090436023974215
 30
0.0
 10
-4.290694906626479
 20
-0.521577228859421
 30
0.0
 10
-4.279795243919589
 20
-0.5469362878780075
 30
0.0
 10
-4.2615359154688
 20
-0.5843802233786813
 30
0.0
 10
-4.242167622726264
 20
-0.6214926303016476
 30
0.0
 10
-4.228651666002787
 20
-0.6459022271362511
 30
0.0
 10
-4.221940268788267
 20
-0.6580229007633566
 30
0.0
  0
SPLINE
  5
D0
330
1F
100
AcDbEntity
  8
0
  6
Continuous
 62
     7
370
    25
100
AcDbSpline
210
0.0
220
0.0
230
1.0
 70
     8
 71
     3
 72
    15
 73
    11
 74
     0
 42
0.000000001
 43
0.00000001
 40
0.0
 40
0.0
 40
0.0
 40
0.0
 40
0.1004370151322802
 40
0.2075239794957172
 40
0.3222396397019407
 40
0.4444948062544433
 40
0.5727148016113794
 40
0.7077140371012107
 40
0.8504290784138447
 40
1.0
 40
1.0
 40
1.0
 40
1.0
 10
-3.931993785904202
 20
-0.8637478455987574
 30
0.0
 10
-3.928748933515207
 20
-0.8641581114302607
 30
0.0
 10
-3.922044386593404
 20
-0.8650058068530341
 30
0.0
 10
-3.911594020925983
 20
-0.8659576282532708
 30
0.0
 10
-3.900433484480058
 20
-0.8669486268156837
 30
0.0
 10
-3.888554834000126
 20
-0.8675273522373085
 30
0.0
 10
-3.876020133449016
 20
-0.8681951842520848
 30
0.0
 10
-3.862803233351867
 20
-0.8684504356581173
 30
0.0
 10
-3.848893238963416
 20
-0.8687503508829564
 30
0.0
 10
-3.839375597997919
 20
-0.8687741042686079
 30
0.0
 10
-3.83450515428445
 20
-0.8687862595419827
 30
0.0
  0
SPLINE
  5
D1
330
1F
100
AcDbEntity
  8
0
  6
Continuous
 62
     7
370
    25
100
AcDbSpline
210
0.0
220
0.0
230
1.0
 70
     8
 71
     3
 72
    19
 73
    15
 74
     0
 42
0.000000001
 43
0.00000001
 40
0.0
 40
0.0
 40
0.0
 40
0.0
 40
0.1476925100971552
 40
0.2882355473539975
 40
0.4211152345037784
 40
0.5483465429599949
 40
0.6096405478170812
 40
0.6688377320848661
 40
0.7268793421106072
 40
0.7837161357098499
 40
0.8389719142782679
 40
0.8932060370052918
 40
0.9469484530931395
 40
1.0
 40
1.0
 40
1.0
 40
1.0
 10
-3.83450515428445
 20
-0.8687862595419827
 30
0.0
 10
-3.824843321235914
 20
-0.8686004735013327
 30
0.0
 10
-3.805987363439842
 20
-0.8682378949177454
 30
0.0
 10
-3.778527825816722
 20
-0.865669828609834
 30
0.0
 10
-3.752677300141676
 20
-0.8612102456537569
 30
0.0
 10
-3.732272149782818
 20
-0.8560314135461666
 30
0.0
 10
-3.71687335085613
 20
-0.8509621717160187
 30
0.0
 10
-3.705987078697878
 20
-0.846722062672785
 30
0.0
 10
-3.695554796502943
 20
-0.8421434694225929
 30
0.0
 10
-3.685666767110386
 20
-0.8370200368810122
 30
0.0
 10
-3.676302512335073
 20
-0.8314655014644863
 30
0.0
 10
-3.667473572092042
 20
-0.8254552531008578
 30
0.0
 10
-3.659017513438894
 20
-0.8191531444673923
 30
0.0
 10
-3.653850549301419
 20
-0.8144454767279093
 30
0.0
 10
-3.651283780238649
 20
-0.8121068702290057
 30
0.0
  0
SPLINE
  5
D2
330
1F
100
AcDbEntity
  8
0
  6
Continuous
 62
     7
370
    25
100
AcDbSpline
210
0.0
220
0.0
230
1.0
 70
     8
 71
     3
 72
    23
 73
    19
 74
     0
 42
0.000000001
 43
0.00000001
 40
0.0
 40
0.0
 40
0.0
 40
0.0
 40
0.0523157673719246
 40
0.1054608273266933
 40
0.158978590548544
 40
0.2140083687225561
 40
0.2699744630043351
 40
0.3271833405559272
 40
0.3858058837519941
 40
0.4461595413841605
 40
0.508212806720543
 40
0.5719812385814159
 40
0.6375311766342386
 40
0.7056334378200919
 40
0.7754717223676315
 40
0.8480312756202988
 40
0.9225345370115268
 40
1.0
 40
1.0
 40
1.0
 40
1.0
 10
-3.651283780238649
 20
-0.8121068702290056
 30
0.0
 10
-3.648922598691912
 20
-0.8097062887757864
 30
0.0
 10
-3.64416280691409
 20
-0.8048670726304558
 30
0.0
 10
-3.637686411575058
 20
-0.796937489468726
 30
0.0
 10
-3.631484771306346
 20
-0.7885813739045492
 30
0.0
 10
-3.62574954399818
 20
-0.7796798566360714
 30
0.0
 10
-3.620248440955244
 20
-0.7703575200659748
 30
0.0
 10
-3.615212914309455
 20
-0.7605110848276632
 30
0.0
 10
-3.610613087211968
 20
-0.7501482376150015
 30
0.0
 10
-3.606314496602276
 20
-0.7393206811267465
 30
0.0
 10
-3.602451978131618
 20
-0.7279787377874342
 30
0.0
 10
-3.599069007000881
 20
-0.7161339376733333
 30
0.0
 10
-3.596346386798587
 20
-0.7037234893156885
 30
0.0
 10
-3.593983973118541
 20
-0.6908447126613643
 30
0.0
 10
-3.592144003269111
 20
-0.6774243030373995
 30
0.0
 10
-3.590789237262165
 20
-0.6635324036185263
 30
0.0
 10
-3.590066412045708
 20
-0.6491015954604962
 30
0.0
 10
-3.589901960113202
 20
-0.6393263861639543
 30
0.0
 10
-3.589818131383687
 20
-0.6343435114503795
 30
0.0
  0
SPLINE
  5
D4
330
1F
100
AcDbEntity
  8
0
  6
Continuous
 62
     7
370
    25
100
AcDbSpline
210
0.0
220
0.0
230
1.0
 70
     8
 71
     3
 72
    31
 73
    27
 74
     0
 42
0.000000001
 43
0.00000001
 40
0.0
 40
0.0
 40
0.0
 40
0.0
 40
0.0539763330004487
 40
0.1073054226706626
 40
0.1599566176087478
 40
0.2123444660943572
 40
0.2650940770000749
 40
0.3183768342767766
 40
0.3726738148740194
 40
0.4281057050977816
 40
0.4561736307795508
 40
0.4846973761017533
 40
0.5135387633175384
 40
0.5430656363504668
 40
0.573474348243506
 40
0.6048574292858299
 40
0.6374425578399764
 40
0.6711600940783814
 40
0.70657343898127
 40
0.7431951730978953
 40
0.7814399783404127
 40
0.8215056044609432
 40
0.8634517499900896
 40
0.9070449487893331
 40
0.9526297313184121
 40
1.0
 40
1.0
 40
1.0
 40
1.0
 10
-3.58973424391947
 20
-0.6337052123091582
 30
0.0
 10
-3.58963377669481
 20
-0.6272543706109257
 30
0.0
 10
-3.589434046972404
 20
-0.6144300408254137
 30
0.0
 10
-3.590911505602286
 20
-0.5953491266140035
 30
0.0
 10
-3.593813531937192
 20
-0.5766314881853165
 30
0.0
 10
-3.598392240125951
 20
-0.5583178986050008
 30
0.0
 10
-3.60452580516125
 20
-0.5403875571253218
 30
0.0
 10
-3.612318929498347
 20
-0.5228625958264684
 30
0.0
 10
-3.621602946229926
 20
-0.5057270806700443
 30
0.0
 10
-3.630416220651421
 20
-0.4917950750233133
 30
0.0
 10
-3.638519431948411
 20
-0.4811259638792886
 30
0.0
 10
-3.645422965474916
 20
-0.4735895269886353
 30
0.0
 10
-3.653011641411691
 20
-0.4664903345681563
 30
0.0
 10
-3.661358999973481
 20
-0.4599232970337453
 30
0.0
 10
-3.670472883141916
 20
-0.4539111723371793
 30
0.0
 10
-3.680227380526727
 20
-0.4482384809986949
 30
0.0
 10
-3.690743471919207
 20
-0.4431560629776822
 30
0.0
 10
-3.701972226076463
 20
-0.4384863922708808
 30
0.0
 10
-3.713957694862824
 20
-0.4344700296851043
 30
0.0
 10
-3.726584786975436
 20
-0.430688584492318
 30
0.0
 10
-3.739985207131613
 20
-0.4276538951679819
 30
0.0
 10
-3.754100984572798
 20
-0.4249721514395067
 30
0.0
 10
-3.768935803969065
 20
-0.4226685638570279
 30
0.0
 10
-3.784523113450516
 20
-0.421064788055352
 30
0.0
 10
-3.800787564210348
 20
-0.4197528067731387
 30
0.0
 10
-3.811887003323481
 20
-0.4193400920688184
 30
0.0
 10
-3.817543322223381
 20
-0.4191297709923643
 30
0.0
  0
SPLINE
  5
D5
330
1F
100
AcDbEntity
  8
0
  6
Continuous
 62
     7
370
    25
100
AcDbSpline
210
0.0
220
0.0
230
1.0
 70
     8
 71
     3
 72
    11
 73
     7
 74
     0
 42
0.000000001
 43
0.00000001
 40
0.0
 40
0.0
 40
0.0
 40
0.0
 40
0.2709766368729488
 40
0.5307501883589973
 40
0.7751794714998492
 40
1.0
 40
1.0
 40
1.0
 40
1.0
 10
-3.817543322223381
 20
-0.4191297709923643
 30
0.0
 10
-3.827931275995055
 20
-0.4192529474119198
 30
0.0
 10
-3.848277710597703
 20
-0.4194942077236384
 30
0.0
 10
-3.877931703587568
 20
-0.4215399834429306
 30
0.0
 10
-3.905746302293056
 20
-0.4242937759325979
 30
0.0
 10
-3.923548519449967
 20
-0.4268769087021453
 30
0.0
 10
-3.932077673368421
 20
-0.4281145038167918
 30
0.0
  0
SPLINE
  5
F3
330
1F
100
AcDbEntity
  8
0
  6
Continuous
 62
     7
370
    25
100
AcDbSpline
210
0.0
220
0.0
230
1.0
 70
     8
 71
     3
 72
    23
 73
    19
 74
     0
 42
0.000000001
 43
0.00000001
 40
0.0
 40
0.0
 40
0.0
 40
0.0
 40
0.0614439797950449
 40
0.1221128683722109
 40
0.1821278327867073
 40
0.2423314947185489
 40
0.3014777192072264
 40
0.3614793726972509
 40
0.4218446839452041
 40
0.4828549279762088
 40
0.5440299129098836
 40
0.6055901738974624
 40
0.66753589360843
 40
0.730123023254279
 40
0.7947223533242035
 40
0.8609047800725477
 40
0.9292625265070426
 40
1.0
 40
1.0
 40
1.0
 40
1.0
 10
-3.393862507836334
 20
-5.705563431834445
 30
0.0
 10
-3.391033320169778
 20
-5.70443967131762
 30
0.0
 10
-3.385410633906959
 20
-5.702206326073205
 30
0.0
 10
-3.377369491961122
 20
-5.698103171929314
 30
0.0
 10
-3.369571772637111
 20
-5.693684526115923
 30
0.0
 10
-3.362242792124687
 20
-5.688650623813307
 30
0.0
 10
-3.35525891221737
 20
-5.683150758931172
 30
0.0
 10
-3.34875913132194
 20
-5.677077199809114
 30
0.0
 10
-3.342498172962359
 20
-5.670629271647374
 30
0.0
 10
-3.336735662816673
 20
-5.663655138473072
 30
0.0
 10
-3.331383667499214
 20
-5.656283238362112
 30
0.0
 10
-3.326793094737718
 20
-5.648359249340705
 30
0.0
 10
-3.322798798873499
 20
-5.640040030424936
 30
0.0
 10
-3.31964554915174
 20
-5.631210098586349
 30
0.0
 10
-3.316988486713747
 20
-5.621998834741817
 30
0.0
 10
-3.31522623377801
 20
-5.612287519015486
 30
0.0
 10
-3.313873173770558
 20
-5.602201695146176
 30
0.0
 10
-3.313662682406597
 20
-5.59531262607059
 30
0.0
 10
-3.313555636116391
 20
-5.591809160305343
 30
0.0
  0
SPLINE
  5
F4
330
1F
100
AcDbEntity
  8
0
  6
Continuous
 62
     7
370
    25
100
AcDbSpline
210
0.0
220
0.0
230
1.0
 70
     8
 71
     3
 72
    15
 73
    11
 74
     0
 42
0.000000001
 43
0.00000001
 40
0.0
 40
0.0
 40
0.0
 40
0.0
 40
0.1388661977163825
 40
0.271090083755732
 40
0.3983928074489248
 40
0.5207585028537713
 40
0.6410155269224529
 40
0.7598501494506458
 40
0.8793546016014807
 40
1.0
 40
1.0
 40
1.0
 40
1.0
 10
-3.313555636116391
 20
-5.591809160305343
 30
0.0
 10
-3.313657186436223
 20
-5.587295554968624
 30
0.0
 10
-3.313855429674402
 20
-5.578484241136364
 30
0.0
 10
-3.315732485421025
 20
-5.565656884430382
 30
0.0
 10
-3.318388429803476
 20
-5.553521145065395
 30
0.0
 10
-3.322414452608902
 20
-5.542169510123838
 30
0.0
 10
-3.327443185525707
 20
-5.531536931146756
 30
0.0
 10
-3.333615047688773
 20
-5.521628585684849
 30
0.0
 10
-3.340937238022648
 20
-5.512506433585199
 30
0.0
 10
-3.346577212844285
 20
-5.50710865714097
 30
0.0
 10
-3.349410597948452
 20
-5.504396946564884
 30
0.0
  0
SPLINE
  5
F5
330
1F
100
AcDbEntity
  8
0
  6
Continuous
 62
     7
370
    25
100
AcDbSpline
210
0.0
220
0.0
230
1.0
 70
     8
 71
     3
 72
    15
 73
    11
 74
     0
 42
0.000000001
 43
0.00000001
 40
0.0
 40
0.0
 40
0.0
 40
0.0
 40
0.1034026641019
 40
0.209787686605464
 40
0.3218443006975895
 40
0.4406044238132256
 40
0.5664574584716162
 40
0.7012197646693209
 40
0.8455240434288417
 40
1.0
 40
1.0
 40
1.0
 40
1.0
 10
-3.349410597948452
 20
-5.504396946564884
 30
0.0
 10
-3.353003163569329
 20
-5.501438145919195
 30
0.0
 10
-3.360291912240635
 20
-5.495435206362687
 30
0.0
 10
-3.372877703412821
 20
-5.488193015477303
 30
0.0
 10
-3.386703127759445
 20
-5.481946462683814
 30
0.0
 10
-3.401961535964533
 20
-5.476928085564484
 30
0.0
 10
-3.418622108224397
 20
-5.473214940326774
 30
0.0
 10
-3.436635724684033
 20
-5.470544606422608
 30
0.0
 10
-3.4560811974673
 20
-5.469028746526485
 30
0.0
 10
-3.469512249838097
 20
-5.468984637433037
 30
0.0
 10
-3.47645639947517
 20
-5.468961832061067
 30
0.0
  0
SPLINE
  5
F6
330
1F
100
AcDbEntity
  8
0
  6
Continuous
 62
     7
370
    25
100
AcDbSpline
210
0.0
220
0.0
230
1.0
 70
     8
 71
     3
 72
    13
 73
     9
 74
     0
 42
0.000000001
 43
0.00000001
 40
0.0
 40
0.0
 40
0.0
 40
0.0
 40
0.2717980594490482
 40
0.5356982292475412
 40
0.6622984551229094
 40
0.7813947303233117
 40
0.893973661182797
 40
1.0
 40
1.0
 40
1.0
 40
1.0
 10
-3.47645639947517
 20
-5.468961832061067
 30
0.0
 10
-3.486423226987386
 20
-5.469132813389751
 30
0.0
 10
-3.506067266611265
 20
-5.469469807683222
 30
0.0
 10
-3.530318420319488
 20
-5.471052436986699
 30
0.0
 10
-3.548901310378689
 20
-5.473036880054589
 30
0.0
 10
-3.561960691408042
 20
-5.474488265568743
 30
0.0
 10
-3.57422033678501
 20
-5.476259620987375
 30
0.0
 10
-3.582120771342094
 20
-5.477621778845513
 30
0.0
 10
-3.585952582681277
 20
-5.478282442748092
 30
0.0
  0
SPLINE
  5
FB
330
1F
100
AcDbEntity
  8
0
  6
Continuous
 62
     7
370
    25
100
AcDbSpline
210
0.0
220
0.0
230
1.0
 70
     8
 71
     3
 72
    23
 73
    19
 74
     0
 42
0.000000001
 43
0.00000001
 40
0.0
 40
0.0
 40
0.0
 40
0.0
 40
0.0668079421015983
 40
0.1296467490666807
 40
0.1899429745465913
 40
0.2472571385743709
 40
0.3018771543757036
 40
0.3554658934033448
 40
0.4075289590841953
 40
0.4598634976991619
 40
0.513580168132905
 40
0.5702845690071344
 40
0.6305440620891984
 40
0.6948319533790065
 40
0.7637860422586026
 40
0.8374383895169903
 40
0.9160550491516455
 40
1.0
 40
1.0
 40
1.0
 40
1.0
 10
-3.476989572781467
 20
-5.73069473848998
 30
0.0
 10
-3.474179811543872
 20
-5.730744353119106
 30
0.0
 10
-3.468727220150565
 20
-5.730840634716324
 30
0.0
 10
-3.46075517783655
 20
-5.731549883155701
 30
0.0
 10
-3.453303568414518
 20
-5.733027859708739
 30
0.0
 10
-3.446282907258253
 20
-5.734870239539821
 30
0.0
 10
-3.439841966833378
 20
-5.737554638538778
 30
0.0
 10
-3.433860417364532
 20
-5.740693102410449
 30
0.0
 10
-3.428431493290892
 20
-5.744553941797894
 30
0.0
 10
-3.423418445187687
 20
-5.748943335575342
 30
0.0
 10
-3.418846656216332
 20
-5.754060474002387
 30
0.0
 10
-3.414644694010089
 20
-5.759894634975755
 30
0.0
 10
-3.410779799432341
 20
-5.766478781356651
 30
0.0
 10
-3.407281010261398
 20
-5.773834669277369
 30
0.0
 10
-3.403994403405289
 20
-5.78189803276988
 30
0.0
 10
-3.401075032329187
 20
-5.790739894821119
 30
0.0
 10
-3.398483062265684
 20
-5.800336096839493
 30
0.0
 10
-3.397020704536574
 20
-5.807016147383433
 30
0.0
 10
-3.396265559780514
 20
-5.810465648854962
 30
0.0
  0
SPLINE
  5
FC
330
1F
100
AcDbEntity
  8
0
  6
Continuous
 62
     7
370
    25
100
AcDbSpline
210
0.0
220
0.0
230
1.0
 70
     8
 71
     3
 72
    15
 73
    11
 74
     0
 42
0.000000001
 43
0.00000001
 40
0.0
 40
0.0
 40
0.0
 40
0.0
 40
0.1830455673296387
 40
0.3514216042270684
 40
0.5034626757441045
 40
0.6409166902080202
 40
0.7604144610046211
 40
0.8602922845541915
 40
0.9401604340270324
 40
1.0
 40
1.0
 40
1.0
 40
1.0
 10
-3.396265559780514
 20
-5.810465648854962
 30
0.0
 10
-3.39491410305347
 20
-5.816879713701836
 30
0.0
 10
-3.392319497251265
 20
-5.829193811174875
 30
0.0
 10
-3.388284808903595
 20
-5.846765917040228
 30
0.0
 10
-3.384442744420972
 20
-5.862706379735289
 30
0.0
 10
-3.380691132919247
 20
-5.876864536618113
 30
0.0
 10
-3.377189320660237
 20
-5.889154603704224
 30
0.0
 10
-3.374049468653904
 20
-5.899398901498455
 30
0.0
 10
-3.371199847696426
 20
-5.907502249064308
 30
0.0
 10
-3.369113417428402
 20
-5.912051476356741
 30
0.0
 10
-3.368219758253796
 20
-5.913999999999998
 30
0.0
  0
SPLINE
  5
FE
330
1F
100
AcDbEntity
  8
0
  6
Continuous
 62
     7
370
    25
100
AcDbSpline
210
0.0
220
0.0
230
1.0
 70
     8
 71
     3
 72
    15
 73
    11
 74
     0
 42
0.000000001
 43
0.00000001
 40
0.0
 40
0.0
 40
0.0
 40
0.0
 40
0.067129241125477
 40
0.1526587605888108
 40
0.256383076958712
 40
0.3782494088546515
 40
0.5152216735139263
 40
0.6644965517799433
 40
0.825753259865918
 40
1.0
 40
1.0
 40
1.0
 40
1.0
 10
-3.297800783122594
 20
-5.913916112535781
 30
0.0
 10
-3.298978134103238
 20
-5.911441842303709
 30
0.0
 10
-3.301655550657779
 20
-5.905815098716902
 30
0.0
 10
-3.30510372208851
 20
-5.895926175064564
 30
0.0
 10
-3.30899666977718
 20
-5.883848368891095
 30
0.0
 10
-3.312892756647307
 20
-5.86957639742467
 30
0.0
 10
-3.317175281464741
 20
-5.8534893871809
 30
0.0
 10
-3.32154478374593
 20
-5.8357643463335
 30
0.0
 10
-3.326419940878505
 20
-5.816599014629522
 30
0.0
 10
-3.329558950802767
 20
-5.80327745217182
 30
0.0
 10
-3.33118922390265
 20
-5.796358778625954
 30
0.0
  0
SPLINE
  5
FF
330
1F
100
AcDbEntity
  8
0
  6
Continuous
 62
     7
370
    25
100
AcDbSpline
210
0.0
220
0.0
230
1.0
 70
     8
 71
     3
 72
    15
 73
    11
 74
     0
 42
0.000000001
 43
0.00000001
 40
0.0
 40
0.0
 40
0.0
 40
0.0
 40
0.149679406197383
 40
0.2892587001020825
 40
0.4199562243919259
 40
0.542578490239991
 40
0.6595394478300847
 40
0.7729661646567064
 40
0.8851748025423404
 40
1.0
 40
1.0
 40
1.0
 40
1.0
 10
-3.33118922390265
 20
-5.796358778625954
 30
0.0
 10
-3.332514087977181
 20
-5.790815260593893
 30
0.0
 10
-3.335074416547068
 20
-5.780102291718055
 30
0.0
 10
-3.340460785823418
 20
-5.765029047363643
 30
0.0
 10
-3.346519604490241
 20
-5.751341200142455
 30
0.0
 10
-3.353588051839208
 20
-5.739118572429937
 30
0.0
 10
-3.361726398744012
 20
-5.728365468060943
 30
0.0
 10
-3.371252381545515
 20
-5.719393022269926
 30
0.0
 10
-3.381962827892014
 20
-5.711966654701631
 30
0.0
 10
-3.389900060320356
 20
-5.708511065945801
 30
0.0
 10
-3.393914414742345
 20
-5.706763358778626
 30
0.0
  0
SPLINE
  5
10B
330
1F
100
AcDbEntity
  8
0
  6
Continuous
 62
     7
370
    25
100
AcDbSpline
210
0.0
220
0.0
230
1.0
 70
     8
 71
     3
 72
    13
 73
     9
 74
     0
 42
0.000000001
 43
0.00000001
 40
0.0
 40
0.0
 40
0.0
 40
0.0
 40
0.1374483936207635
 40
0.2697955285260168
 40
0.3976577546917974
 40
0.5205928999237996
 40
0.7612410046523086
 40
1.0
 40
1.0
 40
1.0
 40
1.0
 10
-4.080280990958948
 20
-5.636114779639788
 30
0.0
 10
-4.080308860606638
 20
-5.644661917783795
 30
0.0
 10
-4.080363565548111
 20
-5.661438975646763
 30
0.0
 10
-4.079968457513816
 20
-5.686164399390254
 30
0.0
 10
-4.079479326273526
 20
-5.709984507114498
 30
0.0
 10
-4.07861141159318
 20
-5.740532054038075
 30
0.0
 10
-4.076824243193238
 20
-5.777951851587042
 30
0.0
 10
-4.074479241767229
 20
-5.807671842817176
 30
0.0
 10
-4.073311361307232
 20
-5.822473282442748
 30
0.0
  0
SPLINE
  5
10D
330
1F
100
AcDbEntity
  8
0
  6
Continuous
 62
     7
370
    25
100
AcDbSpline
210
0.0
220
0.0
230
1.0
 70
     8
 71
     3
 72
    11
 73
     7
 74
     0
 42
0.000000001
 43
0.00000001
 40
0.0
 40
0.0
 40
0.0
 40
0.0
 40
0.2386394267138794
 40
0.4875000847807143
 40
0.7425776874592583
 40
1.0
 40
1.0
 40
1.0
 40
1.0
 10
-4.074994440684616
 20
-5.823041142354484
 30
0.0
 10
-4.080083157748435
 20
-5.811140257555379
 30
0.0
 10
-4.090478548125445
 20
-5.786828757865574
 30
0.0
 10
-4.107994593035591
 20
-5.750556406003055
 30
0.0
 10
-4.126838390253122
 20
-5.713807769060379
 30
0.0
 10
-4.140618694210812
 20
-5.689667393937937
 30
0.0
 10
-4.147540368940819
 20
-5.677541984732823
 30
0.0
  0
SPLINE
  5
113
330
1F
100
AcDbEntity
  8
0
  6
Continuous
 62
     7
370
    25
100
AcDbSpline
210
0.0
220
0.0
230
1.0
 70
     8
 71
     3
 72
    13
 73
     9
 74
     0
 42
0.000000001
 43
0.00000001
 40
0.0
 40
0.0
 40
0.0
 40
0.0
 40
0.1463982018710003
 40
0.286158845186994
 40
0.4175254403287217
 40
0.5418321037702402
 40
0.7767986782565084
 40
0.9999999999999999
 40
0.9999999999999999
 40
0.9999999999999999
 40
0.9999999999999999
 10
-4.275425865124024
 20
-5.74942091334685
 30
0.0
 10
-4.275449164563052
 20
-5.74015591395656
 30
0.0
 10
-4.275494707066171
 20
-5.722045981646599
 30
0.0
 10
-4.275639598624893
 20
-5.695622562140241
 30
0.0
 10
-4.275970369639437
 20
-5.670598675707842
 30
0.0
 10
-4.276652468543507
 20
-5.639555507010934
 30
0.0
 10
-4.277717409118386
 20
-5.602704661337691
 30
0.0
 10
-4.279338448683408
 20
-5.573752974488114
 30
0.0
 10
-4.28012815520036
 20
-5.55964885496183
 30
0.0
  0
SPLINE
  5
115
330
1F
100
AcDbEntity
  8
0
  6
Continuous
 62
     7
370
    25
100
AcDbSpline
210
0.0
220
0.0
230
1.0
 70
     8
 71
     3
 72
    11
 73
     7
 74
     0
 42
0.000000001
 43
0.00000001
 40
0.0
 40
0.0
 40
0.0
 40
0.0
 40
0.2457784938535971
 40
0.4972791673686432
 40
0.7503721516107389
 40
1.0
 40
1.0
 40
1.0
 40
1.0
 10
-4.277773730104941
 20
-5.559043602397423
 30
0.0
 10
-4.272386609832465
 20
-5.571577228859422
 30
0.0
 10
-4.261486947125574
 20
-5.596936287878008
 30
0.0
 10
-4.243227618674785
 20
-5.634380223378681
 30
0.0
 10
-4.223859325932253
 20
-5.67149263030165
 30
0.0
 10
-4.210343369208775
 20
-5.695902227136253
 30
0.0
 10
-4.203631971994254
 20
-5.708022900763357
 30
0.0
  0
SPLINE
  5
119
330
1F
100
AcDbEntity
  8
0
  6
Continuous
 62
     7
370
    25
100
AcDbSpline
210
0.0
220
0.0
230
1.0
 70
     8
 71
     3
 72
    23
 73
    19
 74
     0
 42
0.000000001
 43
0.00000001
 40
0.0
 40
0.0
 40
0.0
 40
0.0
 40
0.0635874246455906
 40
0.1241740751431633
 40
0.1826915913866987
 40
0.2395473191804918
 40
0.2955686681026528
 40
0.351620565593097
 40
0.4082338137585589
 40
0.4663215880534904
 40
0.5255023243444583
 40
0.5859197258432681
 40
0.6478683410081548
 40
0.7117950617733905
 40
0.7788461499723616
 40
0.8488281254444398
 40
0.9223387207865743
 40
1.0
 40
1.0
 40
1.0
 40
1.0
 10
-4.604550827850646
 20
-5.469045883528147
 30
0.0
 10
-4.611683927298591
 20
-5.469323966342439
 30
0.0
 10
-4.625613505855823
 20
-5.469867008877507
 30
0.0
 10
-4.645907090908825
 20
-5.473051641629596
 30
0.0
 10
-4.665054135425365
 20
-5.477971633610102
 30
0.0
 10
-4.683087625094451
 20
-5.484775386788847
 30
0.0
 10
-4.699907483716946
 20
-5.493601460217617
 30
0.0
 10
-4.715613680923372
 20
-5.504227440662667
 30
0.0
 10
-4.730168128582037
 20
-5.516752186874817
 30
0.0
 10
-4.743385028327157
 20
-5.531151532511512
 30
0.0
 10
-4.755346420175256
 20
-5.54713897797451
 30
0.0
 10
-4.765784215158698
 20
-5.564674426586116
 30
0.0
 10
-4.774568398110802
 20
-5.583670577379192
 30
0.0
 10
-4.78195279236891
 20
-5.604047354310846
 30
0.0
 10
-4.787561894310541
 20
-5.625913044363799
 30
0.0
 10
-4.791767865275666
 20
-5.649172611029337
 30
0.0
 10
-4.794377040925337
 20
-5.673874117096644
 30
0.0
 10
-4.794863156610839
 20
-5.690830836883508
 30
0.0
 10
-4.795112888024788
 20
-5.699541984732823
 30
0.0
  0
SPLINE
  5
11A
330
1F
100
AcDbEntity
  8
0
  6
Continuous
 62
     7
370
    25
100
AcDbSpline
210
0.0
220
0.0
230
1.0
 70
     8
 71
     3
 72
    23
 73
    19
 74
     0
 42
0.000000001
 43
0.00000001
 40
0.0
 40
0.0
 40
0.0
 40
0.0
 40
0.0767191081022937
 40
0.1496903395758891
 40
0.2189083324392484
 40
0.2853908248720544
 40
0.3492106790230112
 40
0.4110490902851949
 40
0.4711272911633693
 40
0.53041619798243
 40
0.5883364127995234
 40
0.6451911529511993
 40
0.7012370145816933
 40
0.7574375116328523
 40
0.8149116033668805
 40
0.8740589527054439
 40
0.9355257185509476
 40
1.0
 40
1.0
 40
1.0
 40
1.0
 10
-4.795112888024788
 20
-5.699541984732822
 30
0.0
 10
-4.794932912956391
 20
-5.707918701043756
 30
0.0
 10
-4.79458175494934
 20
-5.724262914892571
 30
0.0
 10
-4.791931807634567
 20
-5.748035221222347
 30
0.0
 10
-4.788200879474958
 20
-5.770525432462792
 30
0.0
 10
-4.782687198708982
 20
-5.791621503431688
 30
0.0
 10
-4.775881537374572
 20
-5.81149203636449
 30
0.0
 10
-4.767312465723521
 20
-5.829899747047901
 30
0.0
 10
-4.757518875547705
 20
-5.847121062760012
 30
0.0
 10
-4.746075353106663
 20
-5.862775634174325
 30
0.0
 10
-4.733399564450314
 20
-5.876974139322632
 30
0.0
 10
-4.719425709487378
 20
-5.88939138764254
 30
0.0
 10
-4.704180841247969
 20
-5.899881355663363
 30
0.0
 10
-4.687735312312838
 20
-5.908502284627538
 30
0.0
 10
-4.670101186178386
 20
-5.915318660401197
 30
0.0
 10
-4.651265786150157
 20
-5.920274198183075
 30
0.0
 10
-4.631243545654582
 20
-5.923307255104364
 30
0.0
 10
-4.617499937955941
 20
-5.923871464095424
 30
0.0
 10
-4.610464033062956
 20
-5.92416030534351
 30
0.0
  0
SPLINE
  5
11B
330
1F
100
AcDbEntity
  8
0
  6
Continuous
 62
     7
370
    25
100
AcDbSpline
210
0.0
220
0.0
230
1.0
 70
     8
 71
     3
 72
    23
 73
    19
 74
     0
 42
0.000000001
 43
0.00000001
 40
0.0
 40
0.0
 40
0.0
 40
0.0
 40
0.060307464232781
 40
0.1183809323392019
 40
0.1744948398708969
 40
0.2293229077344719
 40
0.2833329207632947
 40
0.3377444585896769
 40
0.3927745814007786
 40
0.4492353278592602
 40
0.50709239606988
 40
0.5668112358155609
 40
0.6291462196668978
 40
0.6945668107614055
 40
0.7640344268582044
 40
0.8378246806454231
 40
0.9163623734147516
 40
1.0
 40
1.0
 40
1.0
 40
1.0
 10
-4.610464033062956
 20
-5.92416030534351
 30
0.0
 10
-4.6036527484309
 20
-5.924020127225791
 30
0.0
 10
-4.590282492602237
 20
-5.923744963670498
 30
0.0
 10
-4.570740848395157
 20
-5.920958682164556
 30
0.0
 10
-4.552139822795003
 20
-5.916578584415206
 30
0.0
 10
-4.534607546745105
 20
-5.910199591078664
 30
0.0
 10
-4.517959609610844
 20
-5.902216944885247
 30
0.0
 10
-4.502390873504524
 20
-5.892230667165929
 30
0.0
 10
-4.487799584664044
 20
-5.880448265831808
 30
0.0
 10
-4.474121730880247
 20
-5.867039391505565
 30
0.0
 10
-4.461831159644736
 20
-5.851656416285224
 30
0.0
 10
-4.45099172847166
 20
-5.834425354796696
 30
0.0
 10
-4.442009517487994
 20
-5.815218745941499
 30
0.0
 10
-4.434400376416756
 20
-5.794267560804046
 30
0.0
 10
-4.428502324094452
 20
-5.771428233268418
 30
0.0
 10
-4.42419267654775
 20
-5.746747416716331
 30
0.0
 10
-4.421394759025818
 20
-5.720231966635716
 30
0.0
 10
-4.4208764007735
 20
-5.701928221494952
 30
0.0
 10
-4.420609071230896
 20
-5.69248854961832
 30
0.0
  0
SPLINE
  5
11C
330
1F
100
AcDbEntity
  8
0
  6
Continuous
 62
     7
370
    25
100
AcDbSpline
210
0.0
220
0.0
230
1.0
 70
     8
 71
     3
 72
    23
 73
    19
 74
     0
 42
0.000000001
 43
0.00000001
 40
0.0
 40
0.0
 40
0.0
 40
0.0
 40
0.0739435196556208
 40
0.1445884701546771
 40
0.2122844169623494
 40
0.2773020654260535
 40
0.3404145866182252
 40
0.4016244381331847
 40
0.4618039734004504
 40
0.521234482005572
 40
0.5796674303538115
 40
0.6367274959823059
 40
0.6933957201903626
 40
0.75065533365537
 40
0.8090440047211387
 40
0.8698227706960147
 40
0.933159750476359
 40
1.0
 40
1.0
 40
1.0
 40
1.0
 10
-4.420609071230895
 20
-5.692488549618319
 30
0.0
 10
-4.420748281893928
 20
-5.684450133818697
 30
0.0
 10
-4.421020493128812
 20
-5.668731890376303
 30
0.0
 10
-4.423318116992644
 20
-5.645744286186219
 30
0.0
 10
-4.427108421904141
 20
-5.623952668591706
 30
0.0
 10
-4.432188883399465
 20
-5.603262492252793
 30
0.0
 10
-4.438790762042073
 20
-5.583738726442538
 30
0.0
 10
-4.44700462417287
 20
-5.565414028818437
 30
0.0
 10
-4.456582856080529
 20
-5.548222781278072
 30
0.0
 10
-4.467550777906121
 20
-5.5322446660978
 30
0.0
 10
-4.479912222506335
 20
-5.517735179796917
 30
0.0
 10
-4.493837825716674
 20
-5.505171133296594
 30
0.0
 10
-4.508939705662944
 20
-5.494257813092399
 30
0.0
 10
-4.525536962993525
 20
-5.485466177024051
 30
0.0
 10
-4.543418113048939
 20
-5.478430780386531
 30
0.0
 10
-4.562633442555002
 20
-5.47334840336496
 30
0.0
 10
-4.583183891947179
 20
-5.470137945705413
 30
0.0
 10
-4.59732522263089
 20
-5.469471804855475
 30
0.0
 10
-4.604586170467535
 20
-5.469129770992366
 30
0.0
  0
SPLINE
  5
122
330
1F
100
AcDbEntity
  8
0
  6
Continuous
 62
     7
370
    25
100
AcDbSpline
210
0.0
220
0.0
230
1.0
 70
     8
 71
     3
 72
    15
 73
    11
 74
     0
 42
0.000000001
 43
0.00000001
 40
0.0
 40
0.0
 40
0.0
 40
0.0
 40
0.0797517881433687
 40
0.169470513201789
 40
0.2733317438370593
 40
0.3897001223648452
 40
0.5204651822716545
 40
0.6655443733265428
 40
0.8253901710758269
 40
1.0
 40
1.0
 40
1.0
 40
1.0
 10
-1.830741959508687
 20
-0.8073442270992346
 30
0.0
 10
-1.832213158749624
 20
-0.8080638306529337
 30
0.0
 10
-1.835339419566941
 20
-0.8095929698281956
 30
0.0
 10
-1.840648330807671
 20
-0.8114533867962228
 30
0.0
 10
-1.846852127682907
 20
-0.8128925463556852
 30
0.0
 10
-1.853950831494168
 20
-0.8141221011902098
 30
0.0
 10
-1.861924624248916
 20
-0.8152562507042831
 30
0.0
 10
-1.870845193822256
 20
-0.8159180879938034
 30
0.0
 10
-1.880666720740045
 20
-0.8165759418822714
 30
0.0
 10
-1.887531785201003
 20
-0.8166739983365754
 30
0.0
 10
-1.891115841307351
 20
-0.8167251908396926
 30
0.0
  0
SPLINE
  5
123
330
1F
100
AcDbEntity
  8
0
  6
Continuous
 62
     7
370
    25
100
AcDbSpline
210
0.0
220
0.0
230
1.0
 70
     8
 71
     3
 72
    23
 73
    19
 74
     0
 42
0.000000001
 43
0.00000001
 40
0.0
 40
0.0
 40
0.0
 40
0.0
 40
0.0641664171608065
 40
0.1252310373226695
 40
0.1843479276249398
 40
0.2417640919251522
 40
0.2981006287989096
 40
0.3541838352613558
 40
0.4103472138545959
 40
0.4676480168941812
 40
0.5258480308876535
 40
0.5853211282389412
 40
0.6462929219002416
 40
0.7097408901407292
 40
0.7762917260632315
 40
0.8468696099183828
 40
0.9211771064982266
 40
1.0
 40
1.0
 40
1.0
 40
1.0
 10
-1.891115841307351
 20
-0.8167251908396926
 30
0.0
 10
-1.896637054631336
 20
-0.8165763940028716
 30
0.0
 10
-1.907412586481737
 20
-0.8162859931506828
 30
0.0
 10
-1.923153421946725
 20
-0.8141240489838739
 30
0.0
 10
-1.938068396875655
 20
-0.810719163068697
 30
0.0
 10
-1.952168476238494
 20
-0.8059115386523895
 30
0.0
 10
-1.965465008146673
 20
-0.799780089574753
 30
0.0
 10
-1.977827506869691
 20
-0.7921443290657371
 30
0.0
 10
-1.989454369491962
 20
-0.7832925173108077
 30
0.0
 10
-2.000089018747828
 20
-0.7730056928127809
 30
0.0
 10
-2.009839168572623
 20
-0.7614960312708895
 30
0.0
 10
-2.018208581137571
 20
-0.7485628676503739
 30
0.0
 10
-2.025392156671598
 20
-0.7344395824877604
 30
0.0
 10
-2.031265297748096
 20
-0.7190653567041243
 30
0.0
 10
-2.035847804624858
 20
-0.7024092377036775
 30
0.0
 10
-2.039287456306599
 20
-0.6845306116394505
 30
0.0
 10
-2.041360475189649
 20
-0.6653747035592767
 30
0.0
 10
-2.041788597727378
 20
-0.6522059915789294
 30
0.0
 10
-2.042008971078344
 20
-0.6454274809160284
 30
0.0
  0
SPLINE
  5
124
330
1F
100
AcDbEntity
  8
0
  6
Continuous
 62
     7
370
    25
100
AcDbSpline
210
0.0
220
0.0
230
1.0
 70
     8
 71
     3
 72
    23
 73
    19
 74
     0
 42
0.000000001
 43
0.00000001
 40
0.0
 40
0.0
 40
0.0
 40
0.0
 40
0.0773185452704488
 40
0.149949352420882
 40
0.2186646733950094
 40
0.2840744075021916
 40
0.3461780517618133
 40
0.4063073182390725
 40
0.4651034188833303
 40
0.5229312102826551
 40
0.5803578873834399
 40
0.6371910234039829
 40
0.6939111691879776
 40
0.7516508487101289
 40
0.8104919613925662
 40
0.8712026727047751
 40
0.9342146035103603
 40
1.0
 40
1.0
 40
1.0
 40
1.0
 10
-2.042008971078344
 20
-0.6454274809160284
 30
0.0
 10
-2.041771369959167
 20
-0.6386472380972839
 30
0.0
 10
-2.041310573214604
 20
-0.6254978311035173
 30
0.0
 10
-2.039021546683898
 20
-0.6064329587013227
 30
0.0
 10
-2.035492177220134
 20
-0.5886179814471928
 30
0.0
 10
-2.030401893560751
 20
-0.5721507259702836
 30
0.0
 10
-2.024243459839045
 20
-0.5568565157787159
 30
0.0
 10
-2.016540215755192
 20
-0.5429281254339412
 30
0.0
 10
-2.007547175531935
 20
-0.5302541887528378
 30
0.0
 10
-1.997210223961345
 20
-0.518975136310637
 30
0.0
 10
-1.98589222300696
 20
-0.5089398872251861
 30
0.0
 10
-1.973534986098024
 20
-0.5003895750430335
 30
0.0
 10
-1.96042706187247
 20
-0.4930052823848071
 30
0.0
 10
-1.946459946685142
 20
-0.4869252488998604
 30
0.0
 10
-1.931569867167662
 20
-0.4823488369571692
 30
0.0
 10
-1.915897872954783
 20
-0.4789827835000812
 30
0.0
 10
-1.899371191597057
 20
-0.4769307740666994
 30
0.0
 10
-1.888070874183579
 20
-0.4766885867385853
 30
0.0
 10
-1.882299047414221
 20
-0.4765648854961811
 30
0.0
  0
SPLINE
  5
125
330
1F
100
AcDbEntity
  8
0
  6
Continuous
 62
     7
370
    25
100
AcDbSpline
210
0.0
220
0.0
230
1.0
 70
     8
 71
     3
 72
    15
 73
    11
 74
     0
 42
0.000000001
 43
0.00000001
 40
0.0
 40
0.0
 40
0.0
 40
0.0
 40
0.1637109844832817
 40
0.3147074933693327
 40
0.453352174267206
 40
0.5791996831990803
 40
0.6951287923825831
 40
0.8037085169937739
 40
0.9054844688620028
 40
1.0
 40
1.0
 40
1.0
 40
1.0
 10
-1.882299047414221
 20
-0.4765648854961811
 30
0.0
 10
-1.877371194201902
 20
-0.4766298561933283
 30
0.0
 10
-1.867898205342688
 20
-0.476754751693201
 30
0.0
 10
-1.854278146219633
 20
-0.4776850838326858
 30
0.0
 10
-1.841850025911687
 20
-0.4791394104470857
 30
0.0
 10
-1.830589408572995
 20
-0.4812649203009004
 30
0.0
 10
-1.820358472491284
 20
-0.4838363419327113
 30
0.0
 10
-1.81092739335244
 20
-0.486579473654908
 30
0.0
 10
-1.802258480655687
 20
-0.4896240801600832
 30
0.0
 10
-1.796885952212884
 20
-0.4920882814160806
 30
0.0
 10
-1.794299047414221
 20
-0.4932748091603033
 30
0.0
  0
SPLINE
  5
127
330
1F
100
AcDbEntity
  8
0
  6
Continuous
 62
     7
370
    25
100
AcDbSpline
210
0.0
220
0.0
230
1.0
 70
     8
 71
     3
 72
    15
 73
    11
 74
     0
 42
0.000000001
 43
0.00000001
 40
0.0
 40
0.0
 40
0.0
 40
0.0
 40
0.0918241662143849
 40
0.1928961597635979
 40
0.3049240883919153
 40
0.4268286368448315
 40
0.5578894003508831
 40
0.6969118070408536
 40
0.8442022690365404
 40
1.0
 40
1.0
 40
1.0
 40
1.0
 10
-1.779709680763458
 20
-0.4378008408874025
 30
0.0
 10
-1.782621490914622
 20
-0.4364282964415478
 30
0.0
 10
-1.788738366452689
 20
-0.4335449753766761
 30
0.0
 10
-1.798826583413205
 20
-0.4299722521009007
 30
0.0
 10
-1.810143451286244
 20
-0.4268376037005553
 30
0.0
 10
-1.822633880232369
 20
-0.4240542524650349
 30
0.0
 10
-1.836210253343145
 20
-0.4219180221864196
 30
0.0
 10
-1.850753786159811
 20
-0.4203475567630042
 30
0.0
 10
-1.866217820177533
 20
-0.4193036864803928
 30
0.0
 10
-1.876839261912048
 20
-0.4191888175592815
 30
0.0
 10
-1.882299047414221
 20
-0.4191297709923643
 30
0.0
  0
SPLINE
  5
128
330
1F
100
AcDbEntity
  8
0
  6
Continuous
 62
     7
370
    25
100
AcDbSpline
210
0.0
220
0.0
230
1.0
 70
     8
 71
     3
 72
    23
 73
    19
 74
     0
 42
0.000000001
 43
0.00000001
 40
0.0
 40
0.0
 40
0.0
 40
0.0
 40
0.068929565243557
 40
0.1348242484068582
 40
0.1981934807564205
 40
0.2592979383348378
 40
0.3187145482804174
 40
0.3771593067866946
 40
0.4354914461139615
 40
0.4940685270726234
 40
0.5527464615476969
 40
0.6114280108654964
 40
0.6706389892651556
 40
0.7313865862393921
 40
0.7940171923306744
 40
0.8593335305705476
 40
0.9278278199523968
 40
1.0
 40
1.0
 40
1.0
 40
1.0
 10
-1.882299047414221
 20
-0.4191297709923643
 30
0.0
 10
-1.890676243736921
 20
-0.41939169032025
 30
0.0
 10
-1.907061798962375
 20
-0.4199039969973725
 30
0.0
 10
-1.931009769725907
 20
-0.4228494166937193
 30
0.0
 10
-1.953662683027143
 20
-0.4277035989782512
 30
0.0
 10
-1.975025187333258
 20
-0.4344056059677284
 30
0.0
 10
-1.995030218049439
 20
-0.4430363243632797
 30
0.0
 10
-2.013826645877383
 20
-0.4533789359552441
 30
0.0
 10
-2.031266380941435
 20
-0.4657083969447189
 30
0.0
 10
-2.047323344510121
 20
-0.4798252583362783
 30
0.0
 10
-2.061807112116062
 20
-0.4956202737062728
 30
0.0
 10
-2.074435644170702
 20
-0.5130244443241785
 30
0.0
 10
-2.085301146837111
 20
-0.5318760634470256
 30
0.0
 10
-2.094068517232962
 20
-0.5523117972732555
 30
0.0
 10
-2.10106037343712
 20
-0.5741899598499204
 30
0.0
 10
-2.10615304020157
 20
-0.5975487712681012
 30
0.0
 10
-2.109368427322451
 20
-0.6224177055251713
 30
0.0
 10
-2.109968345022897
 20
-0.6395118812155722
 30
0.0
 10
-2.110276146650862
 20
-0.6482824427480894
 30
0.0
  0
SPLINE
  5
129
330
1F
100
AcDbEntity
  8
0
  6
Continuous
 62
     7
370
    25
100
AcDbSpline
210
0.0
220
0.0
230
1.0
 70
     8
 71
     3
 72
    31
 73
    27
 74
     0
 42
0.000000001
 43
0.00000001
 40
0.0
 40
0.0
 40
0.0
 40
0.0
 40
0.0432456398390064
 40
0.0879996625632026
 40
0.134813774589488
 40
0.1837749652752344
 40
0.2351550463171696
 40
0.2894132034983061
 40
0.346427293462312
 40
0.4066686776423143
 40
0.4373903334927066
 40
0.4680701842007888
 40
0.4988974926833705
 40
0.5298033422065761
 40
0.5615144890487768
 40
0.5942488381342668
 40
0.6276720983414391
 40
0.6624929092289977
 40
0.6985577966188425
 40
0.7363284898385322
 40
0.7756311946743156
 40
0.8166448174381123
 40
0.8594569625648943
 40
0.9043458865337096
 40
0.9511630446680778
 40
1.0
 40
1.0
 40
1.0
 40
1.0
 10
-2.110276146650862
 20
-0.6482824427480894
 30
0.0
 10
-2.110516511927649
 20
-0.653348923196812
 30
0.0
 10
-2.111005626282943
 20
-0.663658599999617
 30
0.0
 10
-2.109843962727299
 20
-0.6794466837697601
 30
0.0
 10
-2.107519318345175
 20
-0.6957613628397497
 30
0.0
 10
-2.103685558229731
 20
-0.7125956637257441
 30
0.0
 10
-2.098428422919918
 20
-0.7299465259626841
 30
0.0
 10
-2.091766185114085
 20
-0.7478195653558718
 30
0.0
 10
-2.083702633827949
 20
-0.7662362134241535
 30
0.0
 10
-2.076144769959061
 20
-0.7818587891234612
 30
0.0
 10
-2.069017669287669
 20
-0.7942178188197445
 30
0.0
 10
-2.062797821230744
 20
-0.8030803752177299
 30
0.0
 10
-2.055706190217906
 20
-0.8112842405388373
 30
0.0
 10
-2.047927232710294
 20
-0.8190086864879471
 30
0.0
 10
-2.039317945523786
 20
-0.8261551138983998
 30
0.0
 10
-2.029927017814317
 20
-0.8327589251354995
 30
0.0
 10
-2.019765418318497
 20
-0.8388430034430373
 30
0.0
 10
-2.00885431886512
 20
-0.8443785221006286
 30
0.0
 10
-1.997110799205112
 20
-0.8493234237868493
 30
0.0
 10
-1.984613673445684
 20
-0.8537761642142159
 30
0.0
 10
-1.971307698481485
 20
-0.857606544596995
 30
0.0
 10
-1.95726807526687
 20
-0.8609559878622479
 30
0.0
 10
-1.942454022218377
 20
-0.8638294149358003
 30
0.0
 10
-1.92684361895499
 20
-0.8660668981591135
 30
0.0
 10
-1.910453388026802
 20
-0.8677424003445533
 30
0.0
 10
-1.899263857888656
 20
-0.8684334425449068
 30
0.0
 10
-1.893550955811168
 20
-0.8687862595419829
 30
0.0
  0
SPLINE
  5
12A
330
1F
100
AcDbEntity
  8
0
  6
Continuous
 62
     7
370
    25
100
AcDbSpline
210
0.0
220
0.0
230
1.0
 70
     8
 71
     3
 72
    15
 73
    11
 74
     0
 42
0.000000001
 43
0.00000001
 40
0.0
 40
0.0
 40
0.0
 40
0.0
 40
0.1562450520331387
 40
0.3049670460674623
 40
0.4470796525245649
 40
0.5816087045718228
 40
0.7065935150552891
 40
0.817523734192934
 40
0.9155120987036113
 40
0.9999999999999999
 40
0.9999999999999999
 40
0.9999999999999999
 40
0.9999999999999999
 10
-1.893550955811168
 20
-0.8687862595419827
 30
0.0
 10
-1.886886491151138
 20
-0.8686566733632839
 30
0.0
 10
-1.873878449779313
 20
-0.8684037404632357
 30
0.0
 10
-1.854857120802348
 20
-0.8669213673250805
 30
0.0
 10
-1.836833567555198
 20
-0.8647925002169748
 30
0.0
 10
-1.819944829339949
 20
-0.8618650186667575
 30
0.0
 10
-1.804528664375042
 20
-0.8583861269402601
 30
0.0
 10
-1.790692447873666
 20
-0.8550081863088752
 30
0.0
 10
-1.778675691733847
 20
-0.8514725528343434
 30
0.0
 10
-1.771389955875986
 20
-0.8487285223071473
 30
0.0
 10
-1.768016604666129
 20
-0.8474580152671735
 30
0.0
  0
SPLINE
  5
140
330
1F
100
AcDbEntity
  8
0
  6
Continuous
 62
     7
370
    25
100
AcDbSpline
210
0.0
220
0.0
230
1.0
 70
     8
 71
     3
 72
    13
 73
     9
 74
     0
 42
0.000000001
 43
0.00000001
 40
0.0
 40
0.0
 40
0.0
 40
0.0
 40
0.1038798927636207
 40
0.214306143244425
 40
0.3332213273395205
 40
0.459787115760187
 40
0.7250086367800995
 40
1.0
 40
1.0
 40
1.0
 40
1.0
 10
-4.868974857251887
 20
-5.850985590112117
 30
0.0
 10
-4.871572460553488
 20
-5.852156691086715
 30
0.0
 10
-4.876931364287747
 20
-5.854572694093064
 30
0.0
 10
-4.885578252573554
 20
-5.857553620007582
 30
0.0
 10
-4.894961716849884
 20
-5.860248172136703
 30
0.0
 10
-4.908644746212377
 20
-5.863240100534108
 30
0.0
 10
-4.926756448758434
 20
-5.866020928664366
 30
0.0
 10
-4.941571431108002
 20
-5.866487623363493
 30
0.0
 10
-4.949112888024787
 20
-5.866725190839693
 30
0.0
  0
SPLINE
  5
141
330
1F
100
AcDbEntity
  8
0
  6
Continuous
 62
     7
370
    25
100
AcDbSpline
210
0.0
220
0.0
230
1.0
 70
     8
 71
     3
 72
    23
 73
    19
 74
     0
 42
0.000000001
 43
0.00000001
 40
0.0
 40
0.0
 40
0.0
 40
0.0
 40
0.0658481387443139
 40
0.1285663156420538
 40
0.1887394998209938
 40
0.2465968286895369
 40
0.3031045871031471
 40
0.3589574566213082
 40
0.4148745320209509
 40
0.4715724651794044
 40
0.5293288124277521
 40
0.5879913881429899
 40
0.6487359126143841
 40
0.7117879256881844
 40
0.7781529222880321
 40
0.8479967623059959
 40
0.9217258914326706
 40
1.0
 40
1.0
 40
1.0
 40
1.0
 10
-4.949112888024787
 20
-5.866725190839693
 30
0.0
 10
-4.954745332795037
 20
-5.866573365498131
 30
0.0
 10
-4.965742495144305
 20
-5.866276931534197
 30
0.0
 10
-4.981777714256159
 20
-5.864161464751633
 30
0.0
 10
-4.996857416067003
 20
-5.860652063903116
 30
0.0
 10
-5.010991460933807
 20
-5.855763543192488
 30
0.0
 10
-5.024180354716641
 20
-5.849527853724648
 30
0.0
 10
-5.036428546602507
 20
-5.841916520704706
 30
0.0
 10
-5.0477810721198
 20
-5.832985954989903
 30
0.0
 10
-5.058014053213973
 20
-5.822568782256883
 30
0.0
 10
-5.067295669571248
 20
-5.810996229548216
 30
0.0
 10
-5.075303744063195
 20
-5.798093942816947
 30
0.0
 10
-5.082117091997326
 20
-5.78402456665465
 30
0.0
 10
-5.087646793252822
 20
-5.768702466482946
 30
0.0
 10
-5.091989225082207
 20
-5.752201933159911
 30
0.0
 10
-5.095133561116556
 20
-5.734510378429396
 30
0.0
 10
-5.097205966025934
 20
-5.715628283437068
 30
0.0
 10
-5.097502283825951
 20
-5.702626545958554
 30
0.0
 10
-5.097654872757612
 20
-5.695931297709922
 30
0.0
  0
SPLINE
  5
142
330
1F
100
AcDbEntity
  8
0
  6
Continuous
 62
     7
370
    25
100
AcDbSpline
210
0.0
220
0.0
230
1.0
 70
     8
 71
     3
 72
    23
 73
    19
 74
     0
 42
0.000000001
 43
0.00000001
 40
0.0
 40
0.0
 40
0.0
 40
0.0
 40
0.0812536854378969
 40
0.1577186482227157
 40
0.2294579773586615
 40
0.2976490707028226
 40
0.3619221711402325
 40
0.4238253063451653
 40
0.483386227897506
 40
0.5416896939280337
 40
0.5988774089936573
 40
0.6544445721351463
 40
0.7097438037608682
 40
0.7651535725506667
 40
0.8213049400077063
 40
0.8788045555565408
 40
0.938174636831549
 40
1.0
 40
1.0
 40
1.0
 40
1.0
 10
-5.097654872757612
 20
-5.695931297709922
 30
0.0
 10
-5.097445431374024
 20
-5.688899728437558
 30
0.0
 10
-5.097038892129391
 20
-5.675250998604013
 30
0.0
 10
-5.094828527443839
 20
-5.655494763230877
 30
0.0
 10
-5.091454981882198
 20
-5.6370510717539
 30
0.0
 10
-5.08663688950408
 20
-5.620024852350485
 30
0.0
 10
-5.080802577193738
 20
-5.604221942447718
 30
0.0
 10
-5.073580392217674
 20
-5.58982086042787
 30
0.0
 10
-5.065054339619548
 20
-5.576763769139236
 30
0.0
 10
-5.055263848468307
 20
-5.565155147372427
 30
0.0
 10
-5.044516589145908
 20
-5.554936829222283
 30
0.0
 10
-5.033005079137114
 20
-5.546001788975349
 30
0.0
 10
-5.020682318489069
 20
-5.538511732154983
 30
0.0
 10
-5.007593733812301
 20
-5.532346978708139
 30
0.0
 10
-4.993741166650103
 20
-5.527552588647151
 30
0.0
 10
-4.979146265922072
 20
-5.524102794347189
 30
0.0
 10
-4.963781424212767
 20
-5.522065904128692
 30
0.0
 10
-4.953289536314236
 20
-5.521820065836683
 30
0.0
 10
-4.947937315505705
 20
-5.521694656488549
 30
0.0
  0
SPLINE
  5
143
330
1F
100
AcDbEntity
  8
0
  6
Continuous
 62
     7
370
    25
100
AcDbSpline
210
0.0
220
0.0
230
1.0
 70
     8
 71
     3
 72
    15
 73
    11
 74
     0
 42
0.000000001
 43
0.00000001
 40
0.0
 40
0.0
 40
0.0
 40
0.0
 40
0.1510454794427342
 40
0.294110216846753
 40
0.4296416360337854
 40
0.5581658608133373
 40
0.6794731619076099
 40
0.7938774894058015
 40
0.9000323013671004
 40
1.0
 40
1.0
 40
1.0
 40
1.0
 10
-4.947937315505704
 20
-5.521694656488548
 30
0.0
 10
-4.943904802885414
 20
-5.521761236955994
 30
0.0
 10
-4.936052842233785
 20
-5.521890879999868
 30
0.0
 10
-4.924615423714305
 20
-5.522834272100575
 30
0.0
 10
-4.913838411804843
 20
-5.524301127814212
 30
0.0
 10
-4.903775016711269
 20
-5.526461126736372
 30
0.0
 10
-4.894345330534013
 20
-5.528851454987063
 30
0.0
 10
-4.885660347036677
 20
-5.531660344645956
 30
0.0
 10
-4.877589119526788
 20
-5.534525441415829
 30
0.0
 10
-4.872600856353272
 20
-5.536854943662298
 30
0.0
 10
-4.870181590314864
 20
-5.537984732824426
 30
0.0
  0
SPLINE
  5
145
330
1F
100
AcDbEntity
  8
0
  6
Continuous
 62
     7
370
    25
100
AcDbSpline
210
0.0
220
0.0
230
1.0
 70
     8
 71
     3
 72
    15
 73
    11
 74
     0
 42
0.000000001
 43
0.00000001
 40
0.0
 40
0.0
 40
0.0
 40
0.0
 40
0.0622161018965232
 40
0.1423789148486501
 40
0.2399035032818442
 40
0.3563166272346915
 40
0.4897733756382895
 40
0.6418939062729458
 40
0.8115812516791834
 40
1.0
 40
1.0
 40
1.0
 40
1.0
 10
-4.855625516245207
 20
-5.484954243201334
 30
0.0
 10
-4.857442412119996
 20
-5.484100657900253
 30
0.0
 10
-4.861600301398812
 20
-5.482147264081063
 30
0.0
 10
-4.868929909061002
 20
-5.479627354644177
 30
0.0
 10
-4.878067960884513
 20
-5.477092314844334
 30
0.0
 10
-4.888907725966727
 20
-5.474251698803088
 30
0.0
 10
-4.901651551039064
 20
-5.471800367718526
 30
0.0
 10
-4.916248351650393
 20
-5.470152147537448
 30
0.0
 10
-4.932663555786238
 20
-5.468940688471416
 30
0.0
 10
-4.944212135666739
 20
-5.468734461320564
 30
0.0
 10
-4.950288460543872
 20
-5.468625954198472
 30
0.0
  0
SPLINE
  5
146
330
1F
100
AcDbEntity
  8
0
  6
Continuous
 62
     7
370
    25
100
AcDbSpline
210
0.0
220
0.0
230
1.0
 70
     8
 71
     3
 72
    23
 73
    19
 74
     0
 42
0.000000001
 43
0.00000001
 40
0.0
 40
0.0
 40
0.0
 40
0.0
 40
0.0645368137490973
 40
0.1264512164128274
 40
0.1864649688635145
 40
0.2445916785392935
 40
0.3019181771250916
 40
0.3588408383343808
 40
0.4158558631180541
 40
0.4737074920908984
 40
0.5321875993055615
 40
0.5914186887105232
 40
0.6520869140066542
 40
0.7147615219801207
 40
0.7804269185069002
 40
0.8494315435242639
 40
0.9224677898588449
 40
1.0
 40
1.0
 40
1.0
 40
1.0
 10
-4.950288460543872
 20
-5.468625954198472
 30
0.0
 10
-4.957966406684697
 20
-5.468795145593064
 30
0.0
 10
-4.973010310662263
 20
-5.469126653400933
 30
0.0
 10
-4.99504570238731
 20
-5.471971045431369
 30
0.0
 10
-5.015990353899442
 20
-5.476553565495902
 30
0.0
 10
-5.035887115158303
 20
-5.482960918399604
 30
0.0
 10
-5.05469999127946
 20
-5.491201946106126
 30
0.0
 10
-5.072405982025812
 20
-5.501344912794974
 30
0.0
 10
-5.089052895841569
 20
-5.5132497336407
 30
0.0
 10
-5.104517138157946
 20
-5.526940162805093
 30
0.0
 10
-5.11861332167015
 20
-5.542405316115018
 30
0.0
 10
-5.130936372575958
 20
-5.559738786093273
 30
0.0
 10
-5.141364360548651
 20
-5.578837934323913
 30
0.0
 10
-5.149939086703014
 20
-5.599660642067367
 30
0.0
 10
-5.156703852997485
 20
-5.622170511775383
 30
0.0
 10
-5.161723116377493
 20
-5.646385139399173
 30
0.0
 10
-5.164920306893839
 20
-5.672339117322765
 30
0.0
 10
-5.165581552930896
 20
-5.690240207509717
 30
0.0
 10
-5.165922048330132
 20
-5.699458015267175
 30
0.0
  0
SPLINE
  5
147
330
1F
100
AcDbEntity
  8
0
  6
Continuous
 62
     7
370
    25
100
AcDbSpline
210
0.0
220
0.0
230
1.0
 70
     8
 71
     3
 72
    23
 73
    19
 74
     0
 42
0.000000001
 43
0.00000001
 40
0.0
 40
0.0
 40
0.0
 40
0.0
 40
0.0761547248997538
 40
0.1480771804759031
 40
0.2163557301867433
 40
0.2814845594360738
 40
0.3437726745383679
 40
0.4039527888451424
 40
0.4629196572367857
 40
0.5211217678443305
 40
0.5787430004014202
 40
0.6356066415736384
 40
0.6924602817814021
 40
0.7498233132802334
 40
0.8087002772277511
 40
0.8697101606303611
 40
0.933377375262065
 40
1.0
 40
1.0
 40
1.0
 40
1.0
 10
-5.165922048330132
 20
-5.699458015267175
 30
0.0
 10
-5.165698249550451
 20
-5.708171793747438
 30
0.0
 10
-5.165263089521538
 20
-5.725115085845827
 30
0.0
 10
-5.162306005871627
 20
-5.749722727425919
 30
0.0
 10
-5.157937389153607
 20
-5.772822708666671
 30
0.0
 10
-5.1518402030244
 20
-5.79440300549167
 30
0.0
 10
-5.143987156964426
 20
-5.814409266482561
 30
0.0
 10
-5.134600949677685
 20
-5.832968672877098
 30
0.0
 10
-5.123345563235453
 20
-5.849900717120136
 30
0.0
 10
-5.110583492120388
 20
-5.865349370794752
 30
0.0
 10
-5.09625804991116
 20
-5.879012385011552
 30
0.0
 10
-5.080746375412229
 20
-5.89105903458643
 30
0.0
 10
-5.063932190504151
 20
-5.901166525178112
 30
0.0
 10
-5.04589822835281
 20
-5.909437948731732
 30
0.0
 10
-5.026640560050047
 20
-5.915905542144235
 30
0.0
 10
-5.006141538722204
 20
-5.920595482393611
 30
0.0
 10
-4.984404301204315
 20
-5.923472311254883
 30
0.0
 10
-4.969498304255335
 20
-5.923927532003354
 30
0.0
 10
-4.961876246803414
 20
-5.92416030534351
 30
0.0
  0
SPLINE
  5
148
330
1F
100
AcDbEntity
  8
0
  6
Continuous
 62
     7
370
    25
100
AcDbSpline
210
0.0
220
0.0
230
1.0
 70
     8
 71
     3
 72
    15
 73
    11
 74
     0
 42
0.000000001
 43
0.00000001
 40
0.0
 40
0.0
 40
0.0
 40
0.0
 40
0.1649872852109796
 40
0.31854058019613
 40
0.4624374818868159
 40
0.595567481358151
 40
0.7173118421096093
 40
0.8249846835785167
 40
0.9191349145285206
 40
1.0
 40
1.0
 40
1.0
 40
1.0
 10
-4.961876246803414
 20
-5.92416030534351
 30
0.0
 10
-4.955995761726132
 20
-5.924084421003417
 30
0.0
 10
-4.944642322423481
 20
-5.923937911278804
 30
0.0
 10
-4.928202677149851
 20
-5.922685160005758
 30
0.0
 10
-4.912945643591158
 20
-5.921007488528558
 30
0.0
 10
-4.898933290307134
 20
-5.918578740244217
 30
0.0
 10
-4.886350515344271
 20
-5.915625159967317
 30
0.0
 10
-4.875229473196669
 20
-5.912573236396214
 30
0.0
 10
-4.865686734281408
 20
-5.90929135904875
 30
0.0
 10
-4.860031300674254
 20
-5.906653791442019
 30
0.0
 10
-4.857418231536238
 20
-5.905435114503815
 30
0.0
  0
SPLINE
  5
14A
330
1F
100
AcDbEntity
  8
0
  6
Continuous
 62
     7
370
    25
100
AcDbSpline
210
0.0
220
0.0
230
1.0
 70
     8
 71
     3
 72
    11
 73
     7
 74
     0
 42
0.000000001
 43
0.00000001
 40
0.0
 40
0.0
 40
0.0
 40
0.0
 40
0.2901651207373211
 40
0.5541981734976121
 40
0.788824661151339
 40
0.9999999999999999
 40
0.9999999999999999
 40
0.9999999999999999
 40
0.9999999999999999
 10
-4.78277232985697
 20
-0.6448396946564864
 30
0.0
 10
-4.786439902432672
 20
-0.6448496837150333
 30
0.0
 10
-4.793444748561178
 20
-0.6448687622244957
 30
0.0
 10
-4.803401069764266
 20
-0.6443043309237684
 30
0.0
 10
-4.81232214672633
 20
-0.6432107337975633
 30
0.0
 10
-4.817797152395824
 20
-0.6418660034323052
 30
0.0
 10
-4.820390650467656
 20
-0.6412290076335857
 30
0.0
  0
SPLINE
  5
14B
330
1F
100
AcDbEntity
  8
0
  6
Continuous
 62
     7
370
    25
100
AcDbSpline
210
0.0
220
0.0
230
1.0
 70
     8
 71
     3
 72
    23
 73
    19
 74
     0
 42
0.000000001
 43
0.00000001
 40
0.0
 40
0.0
 40
0.0
 40
0.0
 40
0.0698098111474889
 40
0.1361878024791056
 40
0.1991560895627431
 40
0.2591835601795228
 40
0.3173978745988688
 40
0.3747241781580709
 40
0.4315137067547901
 40
0.4882573753347138
 40
0.5457330775556379
 40
0.6034586868716502
 40
0.6628578488167601
 40
0.724327232742475
 40
0.7881074238240928
 40
0.8550802715953629
 40
0.9257902448621894
 40
1.0
 40
1.0
 40
1.0
 40
1.0
 10
-4.68444408558216
 20
-0.5543206106870209
 30
0.0
 10
-4.684556713141782
 20
-0.5578507941866042
 30
0.0
 10
-4.684776431539403
 20
-0.5647376189072804
 30
0.0
 10
-4.686021234757431
 20
-0.5747507925251001
 30
0.0
 10
-4.68812162126487
 20
-0.584110374438569
 30
0.0
 10
-4.690988371656454
 20
-0.5928304953891422
 30
0.0
 10
-4.694598866884556
 20
-0.6009613708882532
 30
0.0
 10
-4.69905464272555
 20
-0.6084791221435681
 30
0.0
 10
-4.704387208275391
 20
-0.6153062368843771
 30
0.0
 10
-4.710471824061183
 20
-0.6214795399762436
 30
0.0
 10
-4.717277840964573
 20
-0.6269249912679686
 30
0.0
 10
-4.724750159391906
 20
-0.631658016642998
 30
0.0
 10
-4.732838411763144
 20
-0.6357202730037633
 30
0.0
 10
-4.741617361739813
 20
-0.6389454745537487
 30
0.0
 10
-4.750984669446192
 20
-0.6415942955500137
 30
0.0
 10
-4.761027937236695
 20
-0.6433774013084741
 30
0.0
 10
-4.771686514944243
 20
-0.644602065535051
 30
0.0
 10
-4.779018039941815
 20
-0.6447592198676526
 30
0.0
 10
-4.78277232985697
 20
-0.6448396946564864
 30
0.0
  0
SPLINE
  5
14C
330
1F
100
AcDbEntity
  8
0
  6
Continuous
 62
     7
370
    25
100
AcDbSpline
210
0.0
220
0.0
230
1.0
 70
     8
 71
     3
 72
    23
 73
    19
 74
     0
 42
0.000000001
 43
0.00000001
 40
0.0
 40
0.0
 40
0.0
 40
0.0
 40
0.0716863033455453
 40
0.1400413327807621
 40
0.2055780775014471
 40
0.2685220425309433
 40
0.3292710567105923
 40
0.3882397138867839
 40
0.4465780026088882
 40
0.5041375160127987
 40
0.5616245620913561
 40
0.6185158057223973
 40
0.6761445504287317
 40
0.7348513766638894
 40
0.7959692190341956
 40
0.8602297047888173
 40
0.9282631492618072
 40
1.0
 40
1.0
 40
1.0
 40
1.0
 10
-4.775299047414221
 20
-0.4715267175572498
 30
0.0
 10
-4.771966679343497
 20
-0.4715984768850198
 30
0.0
 10
-4.765456798875946
 20
-0.471738660873193
 30
0.0
 10
-4.755926957394671
 20
-0.4726200762070989
 30
0.0
 10
-4.746925449893028
 20
-0.4743332081498986
 30
0.0
 10
-4.738421886641752
 20
-0.4766020925539292
 30
0.0
 10
-4.730380181955743
 20
-0.4793876726799526
 30
0.0
 10
-4.72296626027999
 20
-0.4831020730974295
 30
0.0
 10
-4.715956842082974
 20
-0.4872410410607851
 30
0.0
 10
-4.709543995697867
 20
-0.4921566385228919
 30
0.0
 10
-4.703743567838183
 20
-0.4976789062571885
 30
0.0
 10
-4.6986406857983
 20
-0.5038649052521792
 30
0.0
 10
-4.69436154214754
 20
-0.5107110610639549
 30
0.0
 10
-4.690800058315845
 20
-0.5181718434792476
 30
0.0
 10
-4.688035134511777
 20
-0.5262909452493807
 30
0.0
 10
-4.686041422758498
 20
-0.5350713432005842
 30
0.0
 10
-4.684769235384029
 20
-0.5444881023803959
 30
0.0
 10
-4.684554366597486
 20
-0.5509857201441583
 30
0.0
 10
-4.68444408558216
 20
-0.5543206106870209
 30
0.0
  0
SPLINE
  5
14D
330
1F
100
AcDbEntity
  8
0
  6
Continuous
 62
     7
370
    25
100
AcDbSpline
210
0.0
220
0.0
230
1.0
 70
     8
 71
     3
 72
    11
 73
     7
 74
     0
 42
0.000000001
 43
0.00000001
 40
0.0
 40
0.0
 40
0.0
 40
0.0
 40
0.177144133623819
 40
0.4008822575972589
 40
0.6757229433221977
 40
0.9999999999999999
 40
0.9999999999999999
 40
0.9999999999999999
 40
0.9999999999999999
 10
-4.820390650467656
 20
-0.4756170309518108
 30
0.0
 10
-4.817765768820879
 20
-0.4750823095647649
 30
0.0
 10
-4.811825586332422
 20
-0.4738722197218818
 30
0.0
 10
-4.801653308220141
 20
-0.4728416696798979
 30
0.0
 10
-4.789254488350852
 20
-0.471870225448311
 30
0.0
 10
-4.780199908146898
 20
-0.4716473503872916
 30
0.0
 10
-4.775299047414221
 20
-0.4715267175572498
 30
0.0
  0
SPLINE
  5
14F
330
1F
100
AcDbEntity
  8
0
  6
Continuous
 62
     7
370
    25
100
AcDbSpline
210
0.0
220
0.0
230
1.0
 70
     8
 71
     3
 72
    23
 73
    19
 74
     0
 42
0.000000001
 43
0.00000001
 40
0.0
 40
0.0
 40
0.0
 40
0.0
 40
0.0649117449365108
 40
0.1272336902742794
 40
0.1875616594892956
 40
0.2459352302307657
 40
0.3030721071937174
 40
0.3599249271526678
 40
0.4169884191070344
 40
0.4754695669556248
 40
0.5347497143909973
 40
0.5946785548280085
 40
0.6556815477008097
 40
0.7186057101994615
 40
0.7840551325057953
 40
0.8525671394948203
 40
0.9246105631395556
 40
1.0
 40
1.0
 40
1.0
 40
1.0
 10
-3.381738842223261
 20
-5.598778625954197
 30
0.0
 10
-3.381857553301365
 20
-5.601721261294708
 30
0.0
 10
-3.382090239212957
 20
-5.607489128941324
 30
0.0
 10
-3.383269687544601
 20
-5.615928900572601
 30
0.0
 10
-3.385185477625188
 20
-5.623924373010585
 30
0.0
 10
-3.387868607845419
 20
-5.631454379626568
 30
0.0
 10
-3.391369742182206
 20
-5.638458165145537
 30
0.0
 10
-3.395464151038498
 20
-5.645065329724079
 30
0.0
 10
-3.400409138987469
 20
-5.651145016917982
 30
0.0
 10
-3.406016542314469
 20
-5.656768188579504
 30
0.0
 10
-3.412322009327434
 20
-5.661817227224417
 30
0.0
 10
-3.419259257700305
 20
-5.66616129915209
 30
0.0
 10
-3.426679041093143
 20
-5.669991227965992
 30
0.0
 10
-3.434706294732945
 20
-5.673088471277579
 30
0.0
 10
-3.443309417116281
 20
-5.675520126774898
 30
0.0
 10
-3.452497179093874
 20
-5.677268627415631
 30
0.0
 10
-3.462241320147582
 20
-5.678348062575761
 30
0.0
 10
-3.468924478691009
 20
-5.67859254285305
 30
0.0
 10
-3.472341895658376
 20
-5.678717557251908
 30
0.0
  0
SPLINE
  5
150
330
1F
100
AcDbEntity
  8
0
  6
Continuous
 62
     7
370
    25
100
AcDbSpline
210
0.0
220
0.0
230
1.0
 70
     8
 71
     3
 72
    23
 73
    19
 74
     0
 42
0.000000001
 43
0.00000001
 40
0.0
 40
0.0
 40
0.0
 40
0.0
 40
0.0681053133954469
 40
0.1332675301837675
 40
0.1964378478783409
 40
0.2573562953144864
 40
0.3170222283903091
 40
0.3758416531200512
 40
0.4336842542509436
 40
0.4907011939407242
 40
0.5475810734810909
 40
0.6046082794026282
 40
0.6624913487762041
 40
0.7222846930295083
 40
0.7847311230507631
 40
0.8517009553427082
 40
0.9229977932245441
 40
1.0
 40
1.0
 40
1.0
 40
1.0
 10
-3.470662506345398
 20
-5.521274809160303
 30
0.0
 10
-3.467610495341251
 20
-5.52129458146457
 30
0.0
 10
-3.461638362649419
 20
-5.521333271634609
 30
0.0
 10
-3.452854342421747
 20
-5.522003364789638
 30
0.0
 10
-3.444458836584216
 20
-5.52324577325338
 30
0.0
 10
-3.436427858953302
 20
-5.525100584029177
 30
0.0
 10
-3.428761023682616
 20
-5.527541912128393
 30
0.0
 10
-3.421442155606555
 20
-5.530546183053574
 30
0.0
 10
-3.414554109339425
 20
-5.53418796803673
 30
0.0
 10
-3.408035058223704
 20
-5.538289019081347
 30
0.0
 10
-3.401998473236219
 20
-5.543043019178663
 30
0.0
 10
-3.396776521123358
 20
-5.548739952650486
 30
0.0
 10
-3.39229799569498
 20
-5.555183048210994
 30
0.0
 10
-3.388566040556434
 20
-5.56236929143328
 30
0.0
 10
-3.3857537805474
 20
-5.570386658272644
 30
0.0
 10
-3.383545251987903
 20
-5.579118069008126
 30
0.0
 10
-3.382246669655322
 20
-5.588695027911092
 30
0.0
 10
-3.381912404654367
 20
-5.595332309981169
 30
0.0
 10
-3.381738842223261
 20
-5.598778625954197
 30
0.0
  0
SPLINE
  5
151
330
1F
100
AcDbEntity
  8
0
  6
Continuous
 62
     7
370
    25
100
AcDbSpline
210
0.0
220
0.0
230
1.0
 70
     8
 71
     3
 72
    15
 73
    11
 74
     0
 42
0.000000001
 43
0.00000001
 40
0.0
 40
0.0
 40
0.0
 40
0.0
 40
0.0769044291241641
 40
0.1653333488259923
 40
0.2692568662351671
 40
0.387062588765571
 40
0.5187105850289135
 40
0.6644319998344634
 40
0.826042917444605
 40
1.0
 40
1.0
 40
1.0
 40
1.0
 10
-3.517685407108758
 20
-5.525275166984732
 30
0.0
 10
-3.516513644181172
 20
-5.524960584441427
 30
0.0
 10
-3.513994524137577
 20
-5.52428427768044
 30
0.0
 10
-3.509805936902474
 20
-5.52356117461616
 30
0.0
 10
-3.504959823980552
 20
-5.522904988117445
 30
0.0
 10
-3.499418318400782
 20
-5.522301306420856
 30
0.0
 10
-3.493197100905993
 20
-5.521920705385563
 30
0.0
 10
-3.486283265855011
 20
-5.521584363826526
 30
0.0
 10
-3.478697595199165
 20
-5.521314162852592
 30
0.0
 10
-3.473405767987417
 20
-5.521288244913969
 30
0.0
 10
-3.470662506345399
 20
-5.521274809160305
 30
0.0
  0
SPLINE
  5
155
330
1F
100
AcDbEntity
  8
0
  6
Continuous
 62
     7
370
    25
100
AcDbSpline
210
0.0
220
0.0
230
1.0
 70
     8
 71
     3
 72
    11
 73
     7
 74
     0
 42
0.000000001
 43
0.00000001
 40
0.0
 40
0.0
 40
0.0
 40
0.0
 40
0.2400122011515586
 40
0.4909508827830515
 40
0.7464785697871931
 40
0.9999999999999999
 40
0.9999999999999999
 40
0.9999999999999999
 40
0.9999999999999999
 10
-1.664532191161715
 20
-5.532157875119274
 30
0.0
 10
-1.662906579033327
 20
-5.539086072323909
 30
0.0
 10
-1.659581349292229
 20
-5.553257870746616
 30
0.0
 10
-1.65423096783847
 20
-5.574734680190402
 30
0.0
 10
-1.648607509451108
 20
-5.59655596255817
 30
0.0
 10
-1.644572715663447
 20
-5.611100102201751
 30
0.0
 10
-1.642563269704177
 20
-5.61834351145038
 30
0.0
  0
SPLINE
  5
157
330
1F
100
AcDbEntity
  8
0
  6
Continuous
 62
     7
370
    25
100
AcDbSpline
210
0.0
220
0.0
230
1.0
 70
     8
 71
     3
 72
    11
 73
     7
 74
     0
 42
0.000000001
 43
0.00000001
 40
0.0
 40
0.0
 40
0.0
 40
0.0
 40
0.2436403553521885
 40
0.4984580476361558
 40
0.7546952075781618
 40
1.0
 40
1.0
 40
1.0
 40
1.0
 10
-1.686584508074884
 20
-5.617179337130247
 30
0.0
 10
-1.684690111843648
 20
-5.610328389050084
 30
0.0
 10
-1.680814411344419
 20
-5.596312196208967
 30
0.0
 10
-1.675706623216729
 20
-5.574893926397245
 30
0.0
 10
-1.670676736983757
 20
-5.553411077405542
 30
0.0
 10
-1.667360713454115
 20
-5.539160711416201
 30
0.0
 10
-1.665738842223261
 20
-5.532190839694655
 30
0.0
  0
SPLINE
  5
15A
330
1F
100
AcDbEntity
  8
0
  6
Continuous
 62
     7
370
    25
100
AcDbSpline
210
0.0
220
0.0
230
1.0
 70
     8
 71
     3
 72
    11
 73
     7
 74
     0
 42
0.000000001
 43
0.00000001
 40
0.0
 40
0.0
 40
0.0
 40
0.0
 40
0.2761614142073245
 40
0.5334473829923817
 40
0.7758003416265966
 40
1.0
 40
1.0
 40
1.0
 40
1.0
 10
-3.819810497795901
 20
-0.8167251908396926
 30
0.0
 10
-3.823869698655421
 20
-0.8167269097660608
 30
0.0
 10
-3.83171065674787
 20
-0.8167302301313453
 30
0.0
 10
-3.843102860925555
 20
-0.8162514201507597
 30
0.0
 10
-3.85373096512712
 20
-0.8156908782021606
 30
0.0
 10
-3.86053895188654
 20
-0.81485816950292
 30
0.0
 10
-3.863810497795901
 20
-0.8144580152671734
 30
0.0
  0
SPLINE
  5
15B
330
1F
100
AcDbEntity
  8
0
  6
Continuous
 62
     7
370
    25
100
AcDbSpline
210
0.0
220
0.0
230
1.0
 70
     8
 71
     3
 72
    23
 73
    19
 74
     0
 42
0.000000001
 43
0.00000001
 40
0.0
 40
0.0
 40
0.0
 40
0.0
 40
0.0802734305430631
 40
0.1557242801683024
 40
0.2263910441021952
 40
0.2931355461754718
 40
0.3560577696089679
 40
0.4157586298266893
 40
0.4733589925492813
 40
0.5296731709709711
 40
0.5849229243201055
 40
0.6396519567773636
 40
0.6948444637885706
 40
0.751089447645934
 40
0.809109044626491
 40
0.8697230374357722
 40
0.9330690527481266
 40
1.0
 40
1.0
 40
1.0
 40
1.0
 10
-3.658001337490557
 20
-0.6355190839694635
 30
0.0
 10
-3.658182485653572
 20
-0.6429418852410199
 30
0.0
 10
-3.65853389915488
 20
-0.6573415487040803
 30
0.0
 10
-3.660665586161266
 20
-0.6781854473787944
 30
0.0
 10
-3.663924506225192
 20
-0.6976170962944569
 30
0.0
 10
-3.668725234041696
 20
-0.7155370661584487
 30
0.0
 10
-3.674743003428274
 20
-0.7320071820672018
 30
0.0
 10
-3.682065112295263
 20
-0.7470154180577864
 30
0.0
 10
-3.690752918415119
 20
-0.7605602659113623
 30
0.0
 10
-3.70077472958201
 20
-0.7726254955330121
 30
0.0
 10
-3.712029776054844
 20
-0.7831513510963025
 30
0.0
 10
-3.72428359555235
 20
-0.7923276833444457
 30
0.0
 10
-3.73765995398392
 20
-0.7999508470695744
 30
0.0
 10
-3.752002512721375
 20
-0.806341488208358
 30
0.0
 10
-3.767504172038016
 20
-0.8110576377461943
 30
0.0
 10
-3.783990472813363
 20
-0.8145267046121188
 30
0.0
 10
-3.801571528886283
 20
-0.8164362557558152
 30
0.0
 10
-3.813620322832044
 20
-0.8166271283488105
 30
0.0
 10
-3.819810497795901
 20
-0.8167251908396926
 30
0.0
  0
SPLINE
  5
15C
330
1F
100
AcDbEntity
  8
0
  6
Continuous
 62
     7
370
    25
100
AcDbSpline
210
0.0
220
0.0
230
1.0
 70
     8
 71
     3
 72
    23
 73
    19
 74
     0
 42
0.000000001
 43
0.00000001
 40
0.0
 40
0.0
 40
0.0
 40
0.0
 40
0.0695647974696635
 40
0.1352517702333881
 40
0.1975679041938321
 40
0.2576206225420414
 40
0.3150569285223698
 40
0.371590392822776
 40
0.4272073277164348
 40
0.4828851258787781
 40
0.5391870372230356
 40
0.59639074584213
 40
0.6556359232268887
 40
0.7170806786744398
 40
0.7819896300774518
 40
0.8503547362111037
 40
0.9228864330357928
 40
1.0
 40
1.0
 40
1.0
 40
1.0
 10
-3.81107767336842
 20
-0.4711908396946544
 30
0.0
 10
-3.805138817242873
 20
-0.4713208605228372
 30
0.0
 10
-3.793592160983409
 20
-0.4715736542894923
 30
0.0
 10
-3.77680853536013
 20
-0.4734983730974897
 30
0.0
 10
-3.761078691156178
 20
-0.4767958970617059
 30
0.0
 10
-3.746370618099686
 20
-0.4812695722781443
 30
0.0
 10
-3.732683518307955
 20
-0.487120942276719
 30
0.0
 10
-3.720058040843966
 20
-0.494262358181367
 30
0.0
 10
-3.708440588935544
 20
-0.5027042397086805
 30
0.0
 10
-3.697985631313644
 20
-0.5125221215608603
 30
0.0
 10
-3.688642622281765
 20
-0.5235708491356476
 30
0.0
 10
-3.680399617300427
 20
-0.5358410260243639
 30
0.0
 10
-3.673557398396006
 20
-0.5494343408477385
 30
0.0
 10
-3.667883858644188
 20
-0.5642555462284709
 30
0.0
 10
-3.663598872739254
 20
-0.5803404419454326
 30
0.0
 10
-3.660399752191985
 20
-0.5976295388423657
 30
0.0
 10
-3.658482042619666
 20
-0.6161638155760888
 30
0.0
 10
-3.658164810229593
 20
-0.6289369641887006
 30
0.0
 10
-3.658001337490557
 20
-0.6355190839694635
 30
0.0
  0
SPLINE
  5
15D
330
1F
100
AcDbEntity
  8
0
  6
Continuous
 62
     7
370
    25
100
AcDbSpline
210
0.0
220
0.0
230
1.0
 70
     8
 71
     3
 72
    11
 73
     7
 74
     0
 42
0.000000001
 43
0.00000001
 40
0.0
 40
0.0
 40
0.0
 40
0.0
 40
0.1899493907276275
 40
0.4194769431238501
 40
0.6893528428942712
 40
1.0
 40
1.0
 40
1.0
 40
1.0
 10
-3.863810497795901
 20
-0.4757484792461811
 30
0.0
 10
-3.860514914409592
 20
-0.4751059222635657
 30
0.0
 10
-3.85323707456287
 20
-0.4736869240882208
 30
0.0
 10
-3.841103455466015
 20
-0.472485223379804
 30
0.0
 10
-3.826821208830674
 20
-0.4715550468575169
 30
0.0
 10
-3.81656560873409
 20
-0.4713177962714852
 30
0.0
 10
-3.81107767336842
 20
-0.4711908396946544
 30
0.0
  0
SPLINE
  5
15F
330
1F
100
AcDbEntity
  8
0
  6
Continuous
 62
     7
370
    25
100
AcDbSpline
210
0.0
220
0.0
230
1.0
 70
     8
 71
     3
 72
    23
 73
    19
 74
     0
 42
0.000000001
 43
0.00000001
 40
0.0
 40
0.0
 40
0.0
 40
0.0
 40
0.0713198001128585
 40
0.1403859511763845
 40
0.2080808373761107
 40
0.2744033498085225
 40
0.3391409238546617
 40
0.4033295204750288
 40
0.4667378310034103
 40
0.5300428858144999
 40
0.5914464706125264
 40
0.6501611648273291
 40
0.7071068263315837
 40
0.7628337492176581
 40
0.8191954500149534
 40
0.8769202503125298
 40
0.9368802440590887
 40
0.9999999999999999
 40
0.9999999999999999
 40
0.9999999999999999
 40
0.9999999999999999
 10
-3.179120521612574
 20
-5.697778625954197
 30
0.0
 10
-3.179087615780977
 20
-5.692121316597166
 30
0.0
 10
-3.17902284391593
 20
-5.680985464366379
 30
0.0
 10
-3.177564837101792
 20
-5.664537823217842
 30
0.0
 10
-3.175477523710464
 20
-5.64856272073306
 30
0.0
 10
-3.172240264558678
 20
-5.633124484625055
 30
0.0
 10
-3.168202829600335
 20
-5.618172641685486
 30
0.0
 10
-3.163308995907657
 20
-5.603710045421987
 30
0.0
 10
-3.157229078195605
 20
-5.589836715867678
 30
0.0
 10
-3.150613758000325
 20
-5.576454213905752
 30
0.0
 10
-3.142862691856453
 20
-5.564112266348268
 30
0.0
 10
-3.134030872888896
 20
-5.55314531778773
 30
0.0
 10
-3.124047029843701
 20
-5.543860683765041
 30
0.0
 10
-3.113076187528048
 20
-5.536088843912342
 30
0.0
 10
-3.101044661652386
 20
-5.529943929207254
 30
0.0
 10
-3.088011129493412
 20
-5.525310327777456
 30
0.0
 10
-3.073954971124394
 20
-5.522229786435052
 30
0.0
 10
-3.064209801041073
 20
-5.521543032169433
 30
0.0
 10
-3.059212124666009
 20
-5.521190839694656
 30
0.0
  0
SPLINE
  5
160
330
1F
100
AcDbEntity
  8
0
  6
Continuous
 62
     7
370
    25
100
AcDbSpline
210
0.0
220
0.0
230
1.0
 70
     8
 71
     3
 72
    23
 73
    19
 74
     0
 42
0.000000001
 43
0.00000001
 40
0.0
 40
0.0
 40
0.0
 40
0.0
 40
0.0604381289616263
 40
0.1183180066693667
 40
0.1744976758647342
 40
0.2295950591215679
 40
0.2846353810216266
 40
0.3406698932074588
 40
0.3990923446017267
 40
0.460278142352033
 40
0.523415806440997
 40
0.587051230617026
 40
0.6515196513351252
 40
0.7173893381531508
 40
0.7851744189545489
 40
0.8543084024026755
 40
0.9258359008661138
 40
1.0
 40
1.0
 40
1.0
 40
1.0
 10
-3.060387697185094
 20
-5.87209923664122
 30
0.0
 10
-3.065104722815861
 20
-5.871767477890502
 30
0.0
 10
-3.074339109777031
 20
-5.871118003216911
 30
0.0
 10
-3.087708296137933
 20
-5.868191846168296
 30
0.0
 10
-3.100225902257784
 20
-5.863843029665525
 30
0.0
 10
-3.111848671227702
 20
-5.857920319589991
 30
0.0
 10
-3.122498986675067
 20
-5.850424438797362
 30
0.0
 10
-3.132355182053841
 20
-5.841522523125725
 30
0.0
 10
-3.141271085309522
 20
-5.831032970953993
 30
0.0
 10
-3.149161744731217
 20
-5.81909564822108
 30
0.0
 10
-3.156116800427781
 20
-5.806139661177604
 30
0.0
 10
-3.162260176190669
 20
-5.792502879319429
 30
0.0
 10
-3.167517500415963
 20
-5.778265711814405
 30
0.0
 10
-3.171652772913957
 20
-5.763331188216406
 30
0.0
 10
-3.175051515874659
 20
-5.747839939185853
 30
0.0
 10
-3.177359763725185
 20
-5.731701653765953
 30
0.0
 10
-3.178828011081191
 20
-5.714963691207276
 30
0.0
 10
-3.179021848799589
 20
-5.703575677847784
 30
0.0
 10
-3.179120521612574
 20
-5.697778625954197
 30
0.0
  0
SPLINE
  5
161
330
1F
100
AcDbEntity
  8
0
  6
Continuous
 62
     7
370
    25
100
AcDbSpline
210
0.0
220
0.0
230
1.0
 70
     8
 71
     3
 72
    23
 73
    19
 74
     0
 42
0.000000001
 43
0.00000001
 40
0.0
 40
0.0
 40
0.0
 40
0.0
 40
0.0761777479395574
 40
0.1493709446981096
 40
0.2198681227167462
 40
0.2882470146081038
 40
0.3545411789928316
 40
0.4188782980718178
 40
0.4821636725004206
 40
0.5443155686270551
 40
0.6045460728922094
 40
0.6617888610153728
 40
0.7171857052372066
 40
0.771747273931305
 40
0.8262985912945967
 40
0.8818186916582959
 40
0.9394843805463956
 40
1.0
 40
1.0
 40
1.0
 40
1.0
 10
-2.94106708649807
 20
-5.694839694656488
 30
0.0
 10
-2.941176364404672
 20
-5.700887527752061
 30
0.0
 10
-2.941390638842879
 20
-5.712746247224561
 30
0.0
 10
-2.942702004956479
 20
-5.730167320734172
 30
0.0
 10
-2.9450835915398
 20
-5.746844416614902
 30
0.0
 10
-2.948294577082152
 20
-5.762828387824166
 30
0.0
 10
-2.952631034222709
 20
-5.778035136567896
 30
0.0
 10
-2.957716082455531
 20
-5.792580202728321
 30
0.0
 10
-2.963870269409886
 20
-5.806352691883646
 30
0.0
 10
-2.970866433801456
 20
-5.819339808246395
 30
0.0
 10
-2.978712306564062
 20
-5.831290817975746
 30
0.0
 10
-2.987732279987581
 20
-5.841675478583936
 30
0.0
 10
-2.997476209851044
 20
-5.850753718841124
 30
0.0
 10
-3.008369454522499
 20
-5.858035433451377
 30
0.0
 10
-3.020021720070817
 20
-5.864046614944179
 30
0.0
 10
-3.032695291502554
 20
-5.868254302798773
 30
0.0
 10
-3.046206177929856
 20
-5.871235532991511
 30
0.0
 10
-3.055585133240028
 20
-5.871806743860111
 30
0.0
 10
-3.060387697185094
 20
-5.87209923664122
 30
0.0
  0
SPLINE
  5
162
330
1F
100
AcDbEntity
  8
0
  6
Continuous
 62
     7
370
    25
100
AcDbSpline
210
0.0
220
0.0
230
1.0
 70
     8
 71
     3
 72
    23
 73
    19
 74
     0
 42
0.000000001
 43
0.00000001
 40
0.0
 40
0.0
 40
0.0
 40
0.0
 40
0.0623931062580321
 40
0.1220625829919338
 40
0.1797233498295926
 40
0.2356899652675433
 40
0.2918663971665104
 40
0.3490995745546999
 40
0.4081209539679757
 40
0.4698657391679108
 40
0.5333867127282904
 40
0.5971707100143053
 40
0.6616521954243727
 40
0.726552360490542
 40
0.7926995055500682
 40
0.8602277258847473
 40
0.929144050109974
 40
1.0
 40
1.0
 40
1.0
 40
1.0
 10
-3.059177766066295
 20
-5.521107034231869
 30
0.0
 10
-3.05433108958203
 20
-5.521493835561671
 30
0.0
 10
-3.044849307281449
 20
-5.522250553286623
 30
0.0
 10
-3.031157090670307
 20
-5.525342047541418
 30
0.0
 10
-3.018401610850987
 20
-5.529834193266177
 30
0.0
 10
-3.006634739567348
 20
-5.535962044755063
 30
0.0
 10
-2.995903527313622
 20
-5.543692981840691
 30
0.0
 10
-2.986097740615323
 20
-5.552913271995748
 30
0.0
 10
-2.977309296308491
 20
-5.563679708798214
 30
0.0
 10
-2.96970547335651
 20
-5.57587684323851
 30
0.0
 10
-2.962984868089801
 20
-5.588983504039149
 30
0.0
 10
-2.957116002766654
 20
-5.602721012385119
 30
0.0
 10
-2.95203223735935
 20
-5.61688701657975
 30
0.0
 10
-2.948053066841857
 20
-5.631589670792671
 30
0.0
 10
-2.944790637942202
 20
-5.646711788518925
 30
0.0
 10
-2.942702115837372
 20
-5.662353939264811
 30
0.0
 10
-2.941272287333655
 20
-5.678438920290819
 30
0.0
 10
-2.941136116658641
 20
-5.689322426246237
 30
0.0
 10
-2.94106708649807
 20
-5.694839694656488
 30
0.0
  0
SPLINE
  5
164
330
1F
100
AcDbEntity
  8
0
  6
Continuous
 62
     7
370
    25
100
AcDbSpline
210
0.0
220
0.0
230
1.0
 70
     8
 71
     3
 72
    23
 73
    19
 74
     0
 42
0.000000001
 43
0.00000001
 40
0.0
 40
0.0
 40
0.0
 40
0.0
 40
0.0761777479395575
 40
0.1493709446981099
 40
0.2198681227167467
 40
0.2882470146081044
 40
0.3545411789928324
 40
0.4188782980718187
 40
0.4821636725004216
 40
0.5443155686270563
 40
0.6045460728922107
 40
0.6617888610153743
 40
0.7171857052372083
 40
0.7717472739313067
 40
0.8262985912945964
 40
0.8818186916582978
 40
0.9394843805463977
 40
1.0
 40
1.0
 40
1.0
 40
1.0
 10
-4.488792277337766
 20
-5.694839694656489
 30
0.0
 10
-4.488901555244367
 20
-5.700887527752061
 30
0.0
 10
-4.489115829682576
 20
-5.712746247224564
 30
0.0
 10
-4.490427195796173
 20
-5.730167320734171
 30
0.0
 10
-4.492808782379496
 20
-5.746844416614904
 30
0.0
 10
-4.496019767921846
 20
-5.762828387824166
 30
0.0
 10
-4.500356225062404
 20
-5.778035136567895
 30
0.0
 10
-4.505441273295226
 20
-5.792580202728321
 30
0.0
 10
-4.51159546024958
 20
-5.806352691883646
 30
0.0
 10
-4.518591624641149
 20
-5.819339808246393
 30
0.0
 10
-4.526437497403759
 20
-5.831290817975749
 30
0.0
 10
-4.535457470827275
 20
-5.841675478583932
 30
0.0
 10
-4.545201400690738
 20
-5.850753718841122
 30
0.0
 10
-4.556094645362196
 20
-5.858035433451378
 30
0.0
 10
-4.567746910910509
 20
-5.864046614944177
 30
0.0
 10
-4.580420482342251
 20
-5.868254302798775
 30
0.0
 10
-4.59393136876955
 20
-5.87123553299151
 30
0.0
 10
-4.603310324079722
 20
-5.871806743860112
 30
0.0
 10
-4.608112888024788
 20
-5.87209923664122
 30
0.0
  0
SPLINE
  5
165
330
1F
100
AcDbEntity
  8
0
  6
Continuous
 62
     7
370
    25
100
AcDbSpline
210
0.0
220
0.0
230
1.0
 70
     8
 71
     3
 72
    23
 73
    19
 74
     0
 42
0.000000001
 43
0.00000001
 40
0.0
 40
0.0
 40
0.0
 40
0.0
 40
0.0623931062580321
 40
0.1220625829919338
 40
0.1797233498295926
 40
0.2356899652675452
 40
0.2918663971665104
 40
0.3490995745547
 40
0.4081209539679757
 40
0.4698657391679108
 40
0.5333867127282915
 40
0.5971707100143054
 40
0.6616521954243727
 40
0.7265523604905426
 40
0.7926995055500682
 40
0.8602277258847474
 40
0.929144050109974
 40
1.0
 40
1.0
 40
1.0
 40
1.0
 10
-4.60690295690599
 20
-5.521107034231869
 30
0.0
 10
-4.602056280421725
 20
-5.52149383556167
 30
0.0
 10
-4.592574498121143
 20
-5.522250553286623
 30
0.0
 10
-4.578882281510002
 20
-5.525342047541416
 30
0.0
 10
-4.566126801690683
 20
-5.529834193266177
 30
0.0
 10
-4.554359930407041
 20
-5.535962044755062
 30
0.0
 10
-4.543628718153318
 20
-5.543692981840694
 30
0.0
 10
-4.533822931455016
 20
-5.552913271995746
 30
0.0
 10
-4.525034487148186
 20
-5.563679708798214
 30
0.0
 10
-4.517430664196204
 20
-5.575876843238511
 30
0.0
 10
-4.510710058929495
 20
-5.588983504039149
 30
0.0
 10
-4.504841193606349
 20
-5.60272101238512
 30
0.0
 10
-4.499757428199044
 20
-5.616887016579748
 30
0.0
 10
-4.495778257681552
 20
-5.631589670792673
 30
0.0
 10
-4.492515828781896
 20
-5.646711788518923
 30
0.0
 10
-4.49042730667707
 20
-5.662353939264812
 30
0.0
 10
-4.488997478173349
 20
-5.678438920290817
 30
0.0
 10
-4.488861307498334
 20
-5.689322426246237
 30
0.0
 10
-4.488792277337765
 20
-5.694839694656488
 30
0.0
  0
SPLINE
  5
167
330
1F
100
AcDbEntity
  8
0
  6
Continuous
 62
     7
370
    25
100
AcDbSpline
210
0.0
220
0.0
230
1.0
 70
     8
 71
     3
 72
    23
 73
    19
 74
     0
 42
0.000000001
 43
0.00000001
 40
0.0
 40
0.0
 40
0.0
 40
0.0
 40
0.0713198001128585
 40
0.1403859511763845
 40
0.2080808373761103
 40
0.2744033498085226
 40
0.3391409238546624
 40
0.4033295204750295
 40
0.4667378310034101
 40
0.5300428858144985
 40
0.5914464706125264
 40
0.6501611648273276
 40
0.707106826331584
 40
0.7628337492176582
 40
0.8191954500149535
 40
0.87692025031253
 40
0.9368802440590888
 40
1.0
 40
1.0
 40
1.0
 40
1.0
 10
-4.726845712452269
 20
-5.697778625954197
 30
0.0
 10
-4.726812806620671
 20
-5.692121316597165
 30
0.0
 10
-4.726748034755624
 20
-5.680985464366378
 30
0.0
 10
-4.725290027941489
 20
-5.664537823217846
 30
0.0
 10
-4.723202714550157
 20
-5.648562720733056
 30
0.0
 10
-4.719965455398375
 20
-5.633124484625059
 30
0.0
 10
-4.715928020440028
 20
-5.618172641685484
 30
0.0
 10
-4.711034186747351
 20
-5.60371004542199
 30
0.0
 10
-4.7049542690353
 20
-5.589836715867677
 30
0.0
 10
-4.698338948840021
 20
-5.576454213905751
 30
0.0
 10
-4.69058788269615
 20
-5.56411226634827
 30
0.0
 10
-4.681756063728591
 20
-5.553145317787729
 30
0.0
 10
-4.671772220683398
 20
-5.543860683765044
 30
0.0
 10
-4.660801378367743
 20
-5.536088843912339
 30
0.0
 10
-4.648769852492081
 20
-5.529943929207255
 30
0.0
 10
-4.635736320333107
 20
-5.525310327777456
 30
0.0
 10
-4.621680161964087
 20
-5.522229786435052
 30
0.0
 10
-4.611934991880768
 20
-5.521543032169433
 30
0.0
 10
-4.606937315505704
 20
-5.521190839694656
 30
0.0
  0
SPLINE
  5
168
330
1F
100
AcDbEntity
  8
0
  6
Continuous
 62
     7
370
    25
100
AcDbSpline
210
0.0
220
0.0
230
1.0
 70
     8
 71
     3
 72
    23
 73
    19
 74
     0
 42
0.000000001
 43
0.00000001
 40
0.0
 40
0.0
 40
0.0
 40
0.0
 40
0.0604381289616284
 40
0.1183180066693687
 40
0.1744976758647361
 40
0.2295950591215697
 40
0.2846353810216283
 40
0.3406698932074604
 40
0.399092344601728
 40
0.4602781423520342
 40
0.523415806440998
 40
0.587051230617027
 40
0.651519651335126
 40
0.7173893381531513
 40
0.7851744189545498
 40
0.8543084024026755
 40
0.9258359008661139
 40
1.0
 40
1.0
 40
1.0
 40
1.0
 10
-4.608112888024788
 20
-5.87209923664122
 30
0.0
 10
-4.612829913655556
 20
-5.871767477890504
 30
0.0
 10
-4.622064300616725
 20
-5.87111800321691
 30
0.0
 10
-4.635433486977626
 20
-5.868191846168296
 30
0.0
 10
-4.647951093097479
 20
-5.863843029665525
 30
0.0
 10
-4.659573862067397
 20
-5.85792031958999
 30
0.0
 10
-4.670224177514762
 20
-5.850424438797362
 30
0.0
 10
-4.680080372893538
 20
-5.841522523125725
 30
0.0
 10
-4.688996276149217
 20
-5.831032970953992
 30
0.0
 10
-4.696886935570913
 20
-5.819095648221084
 30
0.0
 10
-4.703841991267478
 20
-5.806139661177607
 30
0.0
 10
-4.709985367030363
 20
-5.792502879319426
 30
0.0
 10
-4.715242691255656
 20
-5.778265711814407
 30
0.0
 10
-4.719377963753652
 20
-5.763331188216406
 30
0.0
 10
-4.722776706714353
 20
-5.747839939185853
 30
0.0
 10
-4.725084954564879
 20
-5.731701653765953
 30
0.0
 10
-4.726553201920886
 20
-5.714963691207276
 30
0.0
 10
-4.726747039639284
 20
-5.703575677847784
 30
0.0
 10
-4.726845712452269
 20
-5.697778625954197
 30
0.0
  0
LINE
  5
169
330
1F
100
AcDbEntity
  8
0
  6
Continuous
 62
     7
370
    25
100
AcDbLine
 10
-0.75
 20
6.75
 30
0.0
 11
-5.5
 21
6.75
 31
0.0
  0
LINE
  5
16A
330
1F
100
AcDbEntity
  8
0
  6
Continuous
 62
     7
370
    25
100
AcDbLine
 10
-0.75
 20
5.5
 30
0.0
 11
-0.75
 21
6.75
 31
0.0
  0
LINE
  5
16B
330
1F
100
AcDbEntity
  8
0
  6
Continuous
 62
     7
370
    25
100
AcDbLine
 10
-3.1875
 20
5.5
 30
0.0
 11
-0.75
 21
5.5
 31
0.0
  0
LINE
  5
16C
330
1F
100
AcDbEntity
  8
0
  6
Continuous
 62
     7
370
    25
100
AcDbLine
 10
-3.1875
 20
1.5625
 30
0.0
 11
-3.1875
 21
5.5
 31
0.0
  0
LINE
  5
16D
330
1F
100
AcDbEntity
  8
0
  6
Continuous
 62
     7
370
    25
100
AcDbLine
 10
-0.75
 20
1.5625
 30
0.0
 11
-3.1875
 21
1.5625
 31
0.0
  0
LINE
  5
16E
330
1F
100
AcDbEntity
  8
0
  6
Continuous
 62
     7
370
    25
100
AcDbLine
 10
-0.75
 20
-1.25
 30
0.0
 11
-0.75
 21
1.5625
 31
0.0
  0
LINE
  5
16F
330
1F
100
AcDbEntity
  8
0
  6
Continuous
 62
     7
370
    25
100
AcDbLine
 10
-4.875
 20
-1.25
 30
0.0
 11
-0.75
 21
-1.25
 31
0.0
  0
LINE
  5
170
330
1F
100
AcDbEntity
  8
0
  6
Continuous
 62
     7
370
    25
100
AcDbLine
 10
-4.875
 20
-5.125
 30
0.0
 11
-4.875
 21
-1.25
 31
0.0
  0
LINE
  5
171
330
1F
100
AcDbEntity
  8
0
  6
Continuous
 62
     7
370
    25
100
AcDbLine
 10
-0.75
 20
-5.125
 30
0.0
 11
-4.875
 21
-5.125
 31
0.0
  0
LINE
  5
172
330
1F
100
AcDbEntity
  8
0
  6
Continuous
 62
     7
370
    25
100
AcDbLine
 10
-0.75
 20
-6.75
 30
0.0
 11
-0.75
 21
-5.125
 31
0.0
  0
LINE
  5
173
330
1F
100
AcDbEntity
  8
0
  6
Continuous
 62
     7
370
    25
100
AcDbLine
 10
-5.5
 20
-6.75
 30
0.0
 11
-0.75
 21
-6.75
 31
0.0
  0
LINE
  5
174
330
1F
100
AcDbEntity
  8
0
  6
Continuous
 62
     7
370
    25
100
AcDbLine
 10
-5.5
 20
6.75
 30
0.0
 11
-5.5
 21
-6.75
 31
0.0
  0
LINE
  5
175
330
1F
100
AcDbEntity
  8
0
  6
Continuous
 62
     7
370
    25
100
AcDbLine
 10
-5.2195814902
 20
-0.790610687
 30
0.0
 11
-5.2346841038
 21
-0.8472013508
 31
0.0
  0
LINE
  5
176
330
1F
100
AcDbEntity
  8
0
  6
Continuous
 62
     7
370
    25
100
AcDbLine
 10
-5.0038639329
 20
-0.4914274809
 30
0.0
 11
-4.987543434
 21
-0.4376898109
 31
0.0
  0
LINE
  5
177
330
1F
100
AcDbEntity
  8
0
  6
Continuous
 62
     7
370
    25
100
AcDbLine
 10
-1.1405938041
 20
-5.5379847328
 30
0.0
 11
-1.12603773
 21
-5.4849542432
 31
0.0
  0
LINE
  5
178
330
1F
100
AcDbEntity
  8
0
  6
Continuous
 62
     7
370
    25
100
AcDbLine
 10
-1.1278304453
 20
-5.9054351145
 30
0.0
 11
-1.139387071
 21
-5.8509855901
 31
0.0
  0
LINE
  5
179
330
1F
100
AcDbEntity
  8
0
  6
Continuous
 62
     7
370
    25
100
AcDbLine
 10
-1.6215882056
 20
-5.4739161125
 30
0.0
 11
-1.703994232
 21
-5.4739161125
 31
0.0
  0
LINE
  5
17A
330
1F
100
AcDbEntity
  8
0
  6
Continuous
 62
     7
370
    25
100
AcDbLine
 10
-1.703994232
 20
-5.4739161125
 30
0.0
 11
-1.8398076265
 21
-5.9139161125
 31
0.0
  0
LINE
  5
17B
330
1F
100
AcDbEntity
  8
0
  6
Continuous
 62
     7
370
    25
100
AcDbLine
 10
-1.8398076265
 20
-5.9139161125
 30
0.0
 11
-1.7707315068
 21
-5.9139161125
 31
0.0
  0
LINE
  5
17C
330
1F
100
AcDbEntity
  8
0
  6
Continuous
 62
     7
370
    25
100
AcDbLine
 10
-1.7707315068
 20
-5.9139161125
 30
0.0
 11
-1.7324301143
 21
-5.7844351965
 31
0.0
  0
LINE
  5
17D
330
1F
100
AcDbEntity
  8
0
  6
Continuous
 62
     7
370
    25
100
AcDbLine
 10
-1.7324301143
 20
-5.7844351965
 30
0.0
 11
-1.596634268
 21
-5.7844351965
 31
0.0
  0
LINE
  5
17E
330
1F
100
AcDbEntity
  8
0
  6
Continuous
 62
     7
370
    25
100
AcDbLine
 10
-1.596634268
 20
-5.7844351965
 30
0.0
 11
-1.5565919031
 21
-5.9139161125
 31
0.0
  0
LINE
  5
17F
330
1F
100
AcDbEntity
  8
0
  6
Continuous
 62
     7
370
    25
100
AcDbLine
 10
-1.5565919031
 20
-5.9139161125
 30
0.0
 11
-1.4857923593
 21
-5.9139161125
 31
0.0
  0
LINE
  5
180
330
1F
100
AcDbEntity
  8
0
  6
Continuous
 62
     7
370
    25
100
AcDbLine
 10
-1.4857923593
 20
-5.9139161125
 30
0.0
 11
-1.6215882056
 21
-5.4739161125
 31
0.0
  0
LINE
  5
181
330
1F
100
AcDbEntity
  8
0
  6
Continuous
 62
     7
370
    25
100
AcDbLine
 10
-1.944967984
 20
-5.4739161125
 30
0.0
 11
-2.0076518462
 21
-5.6818368917
 31
0.0
  0
LINE
  5
182
330
1F
100
AcDbEntity
  8
0
  6
Continuous
 62
     7
370
    25
100
AcDbLine
 10
-2.0506548728
 20
-5.8447251908
 30
0.0
 11
-2.0523431182
 21
-5.8447251908
 31
0.0
  0
LINE
  5
183
330
1F
100
AcDbEntity
  8
0
  6
Continuous
 62
     7
370
    25
100
AcDbLine
 10
-2.094151056
 20
-5.6813206107
 30
0.0
 11
-2.1527533788
 21
-5.4739161125
 31
0.0
  0
LINE
  5
184
330
1F
100
AcDbEntity
  8
0
  6
Continuous
 62
     7
370
    25
100
AcDbLine
 10
-2.1527533788
 20
-5.4739161125
 30
0.0
 11
-2.2264649574
 21
-5.4739161125
 31
0.0
  0
LINE
  5
185
330
1F
100
AcDbEntity
  8
0
  6
Continuous
 62
     7
370
    25
100
AcDbLine
 10
-2.2264649574
 20
-5.4739161125
 30
0.0
 11
-2.0918107351
 21
-5.9139161125
 31
0.0
  0
LINE
  5
186
330
1F
100
AcDbEntity
  8
0
  6
Continuous
 62
     7
370
    25
100
AcDbLine
 10
-2.0918107351
 20
-5.9139161125
 30
0.0
 11
-2.0169383443
 21
-5.9139161125
 31
0.0
  0
LINE
  5
187
330
1F
100
AcDbEntity
  8
0
  6
Continuous
 62
     7
370
    25
100
AcDbLine
 10
-2.0169383443
 20
-5.9139161125
 30
0.0
 11
-1.8729976238
 21
-5.4739161125
 31
0.0
  0
LINE
  5
188
330
1F
100
AcDbEntity
  8
0
  6
Continuous
 62
     7
370
    25
100
AcDbLine
 10
-1.8729976238
 20
-5.4739161125
 30
0.0
 11
-1.944967984
 21
-5.4739161125
 31
0.0
  0
LINE
  5
189
330
1F
100
AcDbEntity
  8
0
  6
Continuous
 62
     7
370
    25
100
AcDbLine
 10
-2.5511068199
 20
-5.861351145
 30
0.0
 11
-2.7223266285
 21
-5.861351145
 31
0.0
  0
LINE
  5
18A
330
1F
100
AcDbEntity
  8
0
  6
Continuous
 62
     7
370
    25
100
AcDbLine
 10
-2.7223266285
 20
-5.861351145
 30
0.0
 11
-2.7223266285
 21
-5.4739161125
 31
0.0
  0
LINE
  5
18B
330
1F
100
AcDbEntity
  8
0
  6
Continuous
 62
     7
370
    25
100
AcDbLine
 10
-2.7223266285
 20
-5.4739161125
 30
0.0
 11
-2.7905099166
 21
-5.4739161125
 31
0.0
  0
LINE
  5
18C
330
1F
100
AcDbEntity
  8
0
  6
Continuous
 62
     7
370
    25
100
AcDbLine
 10
-2.7905099166
 20
-5.4739161125
 30
0.0
 11
-2.7905099166
 21
-5.9187862595
 31
0.0
  0
LINE
  5
18D
330
1F
100
AcDbEntity
  8
0
  6
Continuous
 62
     7
370
    25
100
AcDbLine
 10
-2.7905099166
 20
-5.9187862595
 30
0.0
 11
-2.5511068199
 21
-5.9187862595
 31
0.0
  0
LINE
  5
18E
330
1F
100
AcDbEntity
  8
0
  6
Continuous
 62
     7
370
    25
100
AcDbLine
 10
-2.5511068199
 20
-5.9187862595
 30
0.0
 11
-2.5511068199
 21
-5.861351145
 31
0.0
  0
LINE
  5
18F
330
1F
100
AcDbEntity
  8
0
  6
Continuous
 62
     7
370
    25
100
AcDbLine
 10
-3.0568609796
 20
-5.469129771
 30
0.0
 11
-3.056825637
 21
-5.4690458835
 31
0.0
  0
LINE
  5
190
330
1F
100
AcDbEntity
  8
0
  6
Continuous
 62
     7
370
    25
100
AcDbLine
 10
-4.8885739386
 20
-0.8639161125
 30
0.0
 11
-4.8203906505
 21
-0.8639161125
 31
0.0
  0
LINE
  5
191
330
1F
100
AcDbEntity
  8
0
  6
Continuous
 62
     7
370
    25
100
AcDbLine
 10
-4.8203906505
 20
-0.8639161125
 30
0.0
 11
-4.8203906505
 21
-0.6939874165
 31
0.0
  0
LINE
  5
192
330
1F
100
AcDbEntity
  8
0
  6
Continuous
 62
     7
370
    25
100
AcDbLine
 10
-4.888657826
 20
-0.4274427481
 30
0.0
 11
-4.8885739386
 21
-0.8639161125
 31
0.0
  0
LINE
  5
193
330
1F
100
AcDbEntity
  8
0
  6
Continuous
 62
     7
370
    25
100
AcDbLine
 10
-4.5338869157
 20
-0.8639161125
 30
0.0
 11
-4.4657036276
 21
-0.8639161125
 31
0.0
  0
LINE
  5
194
330
1F
100
AcDbEntity
  8
0
  6
Continuous
 62
     7
370
    25
100
AcDbLine
 10
-4.4657036276
 20
-0.8639161125
 30
0.0
 11
-4.4657036276
 21
-0.4239161125
 31
0.0
  0
LINE
  5
195
330
1F
100
AcDbEntity
  8
0
  6
Continuous
 62
     7
370
    25
100
AcDbLine
 10
-4.4657036276
 20
-0.4239161125
 30
0.0
 11
-4.5338869157
 21
-0.4239161125
 31
0.0
  0
LINE
  5
196
330
1F
100
AcDbEntity
  8
0
  6
Continuous
 62
     7
370
    25
100
AcDbLine
 10
-4.5338869157
 20
-0.4239161125
 30
0.0
 11
-4.5338869157
 21
-0.8639161125
 31
0.0
  0
LINE
  5
197
330
1F
100
AcDbEntity
  8
0
  6
Continuous
 62
     7
370
    25
100
AcDbLine
 10
-4.0357800454
 20
-0.4239161125
 30
0.0
 11
-4.0985892878
 21
-0.4239161125
 31
0.0
  0
LINE
  5
198
330
1F
100
AcDbEntity
  8
0
  6
Continuous
 62
     7
370
    25
100
AcDbLine
 10
-4.0985892878
 20
-0.4239161125
 30
0.0
 11
-4.0985892878
 21
-0.5861147796
 31
0.0
  0
LINE
  5
199
330
1F
100
AcDbEntity
  8
0
  6
Continuous
 62
     7
370
    25
100
AcDbLine
 10
-4.0916196581
 20
-0.7724732824
 30
0.0
 11
-4.0933027375
 21
-0.7730411424
 31
0.0
  0
LINE
  5
19A
330
1F
100
AcDbEntity
  8
0
  6
Continuous
 62
     7
370
    25
100
AcDbLine
 10
-4.1658486657
 20
-0.6275419847
 30
0.0
 11
-4.2826312501
 21
-0.4239161125
 31
0.0
  0
LINE
  5
19B
330
1F
100
AcDbEntity
  8
0
  6
Continuous
 62
     7
370
    25
100
AcDbLine
 10
-4.2826312501
 20
-0.4239161125
 30
0.0
 11
-4.3565434042
 21
-0.4239161125
 31
0.0
  0
LINE
  5
19C
330
1F
100
AcDbEntity
  8
0
  6
Continuous
 62
     7
370
    25
100
AcDbLine
 10
-4.3565434042
 20
-0.4239161125
 30
0.0
 11
-4.3565434042
 21
-0.8639161125
 31
0.0
  0
LINE
  5
19D
330
1F
100
AcDbEntity
  8
0
  6
Continuous
 62
     7
370
    25
100
AcDbLine
 10
-4.3565434042
 20
-0.8639161125
 30
0.0
 11
-4.2937341619
 21
-0.8639161125
 31
0.0
  0
LINE
  5
19E
330
1F
100
AcDbEntity
  8
0
  6
Continuous
 62
     7
370
    25
100
AcDbLine
 10
-4.2937341619
 20
-0.8639161125
 30
0.0
 11
-4.2937341619
 21
-0.6994209133
 31
0.0
  0
LINE
  5
19F
330
1F
100
AcDbEntity
  8
0
  6
Continuous
 62
     7
370
    25
100
AcDbLine
 10
-4.298436452
 20
-0.509648855
 30
0.0
 11
-4.2960820269
 21
-0.5090436024
 31
0.0
  0
LINE
  5
1A0
330
1F
100
AcDbEntity
  8
0
  6
Continuous
 62
     7
370
    25
100
AcDbLine
 10
-4.2219402688
 20
-0.6580229008
 30
0.0
 11
-4.1044318897
 21
-0.8639161125
 31
0.0
  0
LINE
  5
1A1
330
1F
100
AcDbEntity
  8
0
  6
Continuous
 62
     7
370
    25
100
AcDbLine
 10
-4.1044318897
 20
-0.8639161125
 30
0.0
 11
-4.0357800454
 21
-0.8639161125
 31
0.0
  0
LINE
  5
1A2
330
1F
100
AcDbEntity
  8
0
  6
Continuous
 62
     7
370
    25
100
AcDbLine
 10
-4.0357800454
 20
-0.8639161125
 30
0.0
 11
-4.0357800454
 21
-0.4239161125
 31
0.0
  0
LINE
  5
1A3
330
1F
100
AcDbEntity
  8
0
  6
Continuous
 62
     7
370
    25
100
AcDbLine
 10
-3.5898181314
 20
-0.6343435115
 30
0.0
 11
-3.5897342439
 21
-0.6337052123
 31
0.0
  0
LINE
  5
1A4
330
1F
100
AcDbEntity
  8
0
  6
Continuous
 62
     7
370
    25
100
AcDbLine
 10
-3.9320776734
 20
-0.4281145038
 30
0.0
 11
-3.9319937859
 21
-0.8637478456
 31
0.0
  0
LINE
  5
1A5
330
1F
100
AcDbEntity
  8
0
  6
Continuous
 62
     7
370
    25
100
AcDbLine
 10
-3.2645586341
 20
-0.8108473282
 30
0.0
 11
-3.4392608795
 21
-0.8108473282
 31
0.0
  0
LINE
  5
1A6
330
1F
100
AcDbEntity
  8
0
  6
Continuous
 62
     7
370
    25
100
AcDbLine
 10
-3.4392608795
 20
-0.8108473282
 30
0.0
 11
-3.4392608795
 21
-0.6597023721
 31
0.0
  0
LINE
  5
1A7
330
1F
100
AcDbEntity
  8
0
  6
Continuous
 62
     7
370
    25
100
AcDbLine
 10
-3.4392608795
 20
-0.6597023721
 30
0.0
 11
-3.2837120364
 21
-0.6597023721
 31
0.0
  0
LINE
  5
1A8
330
1F
100
AcDbEntity
  8
0
  6
Continuous
 62
     7
370
    25
100
AcDbLine
 10
-3.2837120364
 20
-0.6597023721
 30
0.0
 11
-3.2837120364
 21
-0.6066336698
 31
0.0
  0
LINE
  5
1A9
330
1F
100
AcDbEntity
  8
0
  6
Continuous
 62
     7
370
    25
100
AcDbLine
 10
-3.2837120364
 20
-0.6066336698
 30
0.0
 11
-3.4392608795
 21
-0.6066336698
 31
0.0
  0
LINE
  5
1AA
330
1F
100
AcDbEntity
  8
0
  6
Continuous
 62
     7
370
    25
100
AcDbLine
 10
-3.4392608795
 20
-0.6066336698
 30
0.0
 11
-3.4392608795
 21
-0.4769848968
 31
0.0
  0
LINE
  5
1AB
330
1F
100
AcDbEntity
  8
0
  6
Continuous
 62
     7
370
    25
100
AcDbLine
 10
-3.4392608795
 20
-0.4769848968
 30
0.0
 11
-3.2744255383
 21
-0.4769848968
 31
0.0
  0
LINE
  5
1AC
330
1F
100
AcDbEntity
  8
0
  6
Continuous
 62
     7
370
    25
100
AcDbLine
 10
-3.2744255383
 20
-0.4769848968
 30
0.0
 11
-3.2744255383
 21
-0.4239161125
 31
0.0
  0
LINE
  5
1AD
330
1F
100
AcDbEntity
  8
0
  6
Continuous
 62
     7
370
    25
100
AcDbLine
 10
-3.2744255383
 20
-0.4239161125
 30
0.0
 11
-3.5074441676
 21
-0.4239161125
 31
0.0
  0
LINE
  5
1AE
330
1F
100
AcDbEntity
  8
0
  6
Continuous
 62
     7
370
    25
100
AcDbLine
 10
-3.5074441676
 20
-0.4239161125
 30
0.0
 11
-3.5074441676
 21
-0.8639161125
 31
0.0
  0
LINE
  5
1AF
330
1F
100
AcDbEntity
  8
0
  6
Continuous
 62
     7
370
    25
100
AcDbLine
 10
-3.5074441676
 20
-0.8639161125
 30
0.0
 11
-3.2645586341
 21
-0.8639161125
 31
0.0
  0
LINE
  5
1B0
330
1F
100
AcDbEntity
  8
0
  6
Continuous
 62
     7
370
    25
100
AcDbLine
 10
-3.2645586341
 20
-0.8639161125
 30
0.0
 11
-3.2645586341
 21
-0.8108473282
 31
0.0
  0
LINE
  5
1B1
330
1F
100
AcDbEntity
  8
0
  6
Continuous
 62
     7
370
    25
100
AcDbLine
 10
-2.940224277
 20
-0.811351145
 30
0.0
 11
-3.1114440856
 21
-0.811351145
 31
0.0
  0
LINE
  5
1B2
330
1F
100
AcDbEntity
  8
0
  6
Continuous
 62
     7
370
    25
100
AcDbLine
 10
-3.1114440856
 20
-0.811351145
 30
0.0
 11
-3.1114440856
 21
-0.4239161125
 31
0.0
  0
LINE
  5
1B3
330
1F
100
AcDbEntity
  8
0
  6
Continuous
 62
     7
370
    25
100
AcDbLine
 10
-3.1114440856
 20
-0.4239161125
 30
0.0
 11
-3.1796273737
 21
-0.4239161125
 31
0.0
  0
LINE
  5
1B4
330
1F
100
AcDbEntity
  8
0
  6
Continuous
 62
     7
370
    25
100
AcDbLine
 10
-3.1796273737
 20
-0.4239161125
 30
0.0
 11
-3.1796273737
 21
-0.8687862595
 31
0.0
  0
LINE
  5
1B5
330
1F
100
AcDbEntity
  8
0
  6
Continuous
 62
     7
370
    25
100
AcDbLine
 10
-3.1796273737
 20
-0.8687862595
 30
0.0
 11
-2.940224277
 21
-0.8687862595
 31
0.0
  0
LINE
  5
1B6
330
1F
100
AcDbEntity
  8
0
  6
Continuous
 62
     7
370
    25
100
AcDbLine
 10
-2.940224277
 20
-0.8687862595
 30
0.0
 11
-2.940224277
 21
-0.811351145
 31
0.0
  0
LINE
  5
1B7
330
1F
100
AcDbEntity
  8
0
  6
Continuous
 62
     7
370
    25
100
AcDbLine
 10
-2.3383311472
 20
-0.811351145
 30
0.0
 11
-2.5095509558
 21
-0.811351145
 31
0.0
  0
LINE
  5
1B8
330
1F
100
AcDbEntity
  8
0
  6
Continuous
 62
     7
370
    25
100
AcDbLine
 10
-2.5095509558
 20
-0.811351145
 30
0.0
 11
-2.5095509558
 21
-0.4239161125
 31
0.0
  0
LINE
  5
1B9
330
1F
100
AcDbEntity
  8
0
  6
Continuous
 62
     7
370
    25
100
AcDbLine
 10
-2.5095509558
 20
-0.4239161125
 30
0.0
 11
-2.5777342439
 21
-0.4239161125
 31
0.0
  0
LINE
  5
1BA
330
1F
100
AcDbEntity
  8
0
  6
Continuous
 62
     7
370
    25
100
AcDbLine
 10
-2.5777342439
 20
-0.4239161125
 30
0.0
 11
-2.5777342439
 21
-0.8687862595
 31
0.0
  0
LINE
  5
1BB
330
1F
100
AcDbEntity
  8
0
  6
Continuous
 62
     7
370
    25
100
AcDbLine
 10
-2.5777342439
 20
-0.8687862595
 30
0.0
 11
-2.3383311472
 21
-0.8687862595
 31
0.0
  0
LINE
  5
1BC
330
1F
100
AcDbEntity
  8
0
  6
Continuous
 62
     7
370
    25
100
AcDbLine
 10
-2.3383311472
 20
-0.8687862595
 30
0.0
 11
-2.3383311472
 21
-0.811351145
 31
0.0
  0
LINE
  5
1BD
330
1F
100
AcDbEntity
  8
0
  6
Continuous
 62
     7
370
    25
100
AcDbLine
 10
-2.2660395874
 20
-0.8639161125
 30
0.0
 11
-2.1978562993
 21
-0.8639161125
 31
0.0
  0
LINE
  5
1BE
330
1F
100
AcDbEntity
  8
0
  6
Continuous
 62
     7
370
    25
100
AcDbLine
 10
-2.1978562993
 20
-0.8639161125
 30
0.0
 11
-2.1978562993
 21
-0.4239161125
 31
0.0
  0
LINE
  5
1BF
330
1F
100
AcDbEntity
  8
0
  6
Continuous
 62
     7
370
    25
100
AcDbLine
 10
-2.1978562993
 20
-0.4239161125
 30
0.0
 11
-2.2660395874
 21
-0.4239161125
 31
0.0
  0
LINE
  5
1C0
330
1F
100
AcDbEntity
  8
0
  6
Continuous
 62
     7
370
    25
100
AcDbLine
 10
-2.2660395874
 20
-0.4239161125
 30
0.0
 11
-2.2660395874
 21
-0.8639161125
 31
0.0
  0
LINE
  5
1C1
330
1F
100
AcDbEntity
  8
0
  6
Continuous
 62
     7
370
    25
100
AcDbLine
 10
-3.5859525827
 20
-5.4782824427
 30
0.0
 11
-3.5858686952
 21
-5.9139161125
 31
0.0
  0
LINE
  5
1C2
330
1F
100
AcDbEntity
  8
0
  6
Continuous
 62
     7
370
    25
100
AcDbLine
 10
-3.5858686952
 20
-5.9139161125
 30
0.0
 11
-3.5176854071
 21
-5.9139161125
 31
0.0
  0
LINE
  5
1C3
330
1F
100
AcDbEntity
  8
0
  6
Continuous
 62
     7
370
    25
100
AcDbLine
 10
-3.5176854071
 20
-5.9139161125
 30
0.0
 11
-3.5176854071
 21
-5.7306947385
 31
0.0
  0
LINE
  5
1C4
330
1F
100
AcDbEntity
  8
0
  6
Continuous
 62
     7
370
    25
100
AcDbLine
 10
-3.5176854071
 20
-5.7306947385
 30
0.0
 11
-3.4769895728
 21
-5.7306947385
 31
0.0
  0
LINE
  5
1C5
330
1F
100
AcDbEntity
  8
0
  6
Continuous
 62
     7
370
    25
100
AcDbLine
 10
-3.3682197583
 20
-5.914
 30
0.0
 11
-3.2978007831
 21
-5.9139161125
 31
0.0
  0
LINE
  5
1C6
330
1F
100
AcDbEntity
  8
0
  6
Continuous
 62
     7
370
    25
100
AcDbLine
 10
-3.3939144147
 20
-5.7067633588
 30
0.0
 11
-3.3938625078
 21
-5.7055634318
 31
0.0
  0
LINE
  5
1C7
330
1F
100
AcDbEntity
  8
0
  6
Continuous
 62
     7
370
    25
100
AcDbLine
 10
-3.6447474449
 20
-5.4744074651
 30
0.0
 11
-3.952638465
 21
-5.4744074651
 31
0.0
  0
LINE
  5
1C8
330
1F
100
AcDbEntity
  8
0
  6
Continuous
 62
     7
370
    25
100
AcDbLine
 10
-3.952638465
 20
-5.4744074651
 30
0.0
 11
-3.952638465
 21
-5.5318676721
 31
0.0
  0
LINE
  5
1C9
330
1F
100
AcDbEntity
  8
0
  6
Continuous
 62
     7
370
    25
100
AcDbLine
 10
-3.952638465
 20
-5.5318676721
 30
0.0
 11
-3.8330748021
 21
-5.5318676721
 31
0.0
  0
LINE
  5
1CA
330
1F
100
AcDbEntity
  8
0
  6
Continuous
 62
     7
370
    25
100
AcDbLine
 10
-3.8330748021
 20
-5.5318676721
 30
0.0
 11
-3.8330748021
 21
-5.9139161125
 31
0.0
  0
LINE
  5
1CB
330
1F
100
AcDbEntity
  8
0
  6
Continuous
 62
     7
370
    25
100
AcDbLine
 10
-3.8330748021
 20
-5.9139161125
 30
0.0
 11
-3.764891514
 21
-5.9139161125
 31
0.0
  0
LINE
  5
1CC
330
1F
100
AcDbEntity
  8
0
  6
Continuous
 62
     7
370
    25
100
AcDbLine
 10
-3.764891514
 20
-5.9139161125
 30
0.0
 11
-3.764891514
 21
-5.5318676721
 31
0.0
  0
LINE
  5
1CD
330
1F
100
AcDbEntity
  8
0
  6
Continuous
 62
     7
370
    25
100
AcDbLine
 10
-3.764891514
 20
-5.5318676721
 30
0.0
 11
-3.6447474449
 21
-5.5318676721
 31
0.0
  0
LINE
  5
1CE
330
1F
100
AcDbEntity
  8
0
  6
Continuous
 62
     7
370
    25
100
AcDbLine
 10
-3.6447474449
 20
-5.5318676721
 30
0.0
 11
-3.6447474449
 21
-5.4744074651
 31
0.0
  0
LINE
  5
1CF
330
1F
100
AcDbEntity
  8
0
  6
Continuous
 62
     7
370
    25
100
AcDbLine
 10
-4.0174717487
 20
-5.4739161125
 30
0.0
 11
-4.080280991
 21
-5.4739161125
 31
0.0
  0
LINE
  5
1D0
330
1F
100
AcDbEntity
  8
0
  6
Continuous
 62
     7
370
    25
100
AcDbLine
 10
-4.080280991
 20
-5.4739161125
 30
0.0
 11
-4.080280991
 21
-5.6361147796
 31
0.0
  0
LINE
  5
1D1
330
1F
100
AcDbEntity
  8
0
  6
Continuous
 62
     7
370
    25
100
AcDbLine
 10
-4.0733113613
 20
-5.8224732824
 30
0.0
 11
-4.0749944407
 21
-5.8230411424
 31
0.0
  0
LINE
  5
1D2
330
1F
100
AcDbEntity
  8
0
  6
Continuous
 62
     7
370
    25
100
AcDbLine
 10
-4.1475403689
 20
-5.6775419847
 30
0.0
 11
-4.2643229533
 21
-5.4739161125
 31
0.0
  0
LINE
  5
1D3
330
1F
100
AcDbEntity
  8
0
  6
Continuous
 62
     7
370
    25
100
AcDbLine
 10
-4.2643229533
 20
-5.4739161125
 30
0.0
 11
-4.3382351074
 21
-5.4739161125
 31
0.0
  0
LINE
  5
1D4
330
1F
100
AcDbEntity
  8
0
  6
Continuous
 62
     7
370
    25
100
AcDbLine
 10
-4.3382351074
 20
-5.4739161125
 30
0.0
 11
-4.3382351074
 21
-5.9139161125
 31
0.0
  0
LINE
  5
1D5
330
1F
100
AcDbEntity
  8
0
  6
Continuous
 62
     7
370
    25
100
AcDbLine
 10
-4.3382351074
 20
-5.9139161125
 30
0.0
 11
-4.2754258651
 21
-5.9139161125
 31
0.0
  0
LINE
  5
1D6
330
1F
100
AcDbEntity
  8
0
  6
Continuous
 62
     7
370
    25
100
AcDbLine
 10
-4.2754258651
 20
-5.9139161125
 30
0.0
 11
-4.2754258651
 21
-5.7494209133
 31
0.0
  0
LINE
  5
1D7
330
1F
100
AcDbEntity
  8
0
  6
Continuous
 62
     7
370
    25
100
AcDbLine
 10
-4.2801281552
 20
-5.559648855
 30
0.0
 11
-4.2777737301
 21
-5.5590436024
 31
0.0
  0
LINE
  5
1D8
330
1F
100
AcDbEntity
  8
0
  6
Continuous
 62
     7
370
    25
100
AcDbLine
 10
-4.203631972
 20
-5.7080229008
 30
0.0
 11
-4.0861235929
 21
-5.9139161125
 31
0.0
  0
LINE
  5
1D9
330
1F
100
AcDbEntity
  8
0
  6
Continuous
 62
     7
370
    25
100
AcDbLine
 10
-4.0861235929
 20
-5.9139161125
 30
0.0
 11
-4.0174717487
 21
-5.9139161125
 31
0.0
  0
LINE
  5
1DA
330
1F
100
AcDbEntity
  8
0
  6
Continuous
 62
     7
370
    25
100
AcDbLine
 10
-4.0174717487
 20
-5.9139161125
 30
0.0
 11
-4.0174717487
 21
-5.4739161125
 31
0.0
  0
LINE
  5
1DB
330
1F
100
AcDbEntity
  8
0
  6
Continuous
 62
     7
370
    25
100
AcDbLine
 10
-4.6045861705
 20
-5.469129771
 30
0.0
 11
-4.6045508279
 21
-5.4690458835
 31
0.0
  0
LINE
  5
1DC
330
1F
100
AcDbEntity
  8
0
  6
Continuous
 62
     7
370
    25
100
AcDbLine
 10
-1.7679327172
 20
-0.6286336698
 30
0.0
 11
-1.908860131
 21
-0.6286336698
 31
0.0
  0
LINE
  5
1DD
330
1F
100
AcDbEntity
  8
0
  6
Continuous
 62
     7
370
    25
100
AcDbLine
 10
-1.908860131
 20
-0.6286336698
 30
0.0
 11
-1.908860131
 21
-0.6806947385
 31
0.0
  0
LINE
  5
1DE
330
1F
100
AcDbEntity
  8
0
  6
Continuous
 62
     7
370
    25
100
AcDbLine
 10
-1.908860131
 20
-0.6806947385
 30
0.0
 11
-1.8307419595
 21
-0.6806947385
 31
0.0
  0
LINE
  5
1DF
330
1F
100
AcDbEntity
  8
0
  6
Continuous
 62
     7
370
    25
100
AcDbLine
 10
-1.8307419595
 20
-0.6806947385
 30
0.0
 11
-1.8307419595
 21
-0.8073442271
 31
0.0
  0
LINE
  5
1E0
330
1F
100
AcDbEntity
  8
0
  6
Continuous
 62
     7
370
    25
100
AcDbLine
 10
-1.7942990474
 20
-0.4932748092
 30
0.0
 11
-1.7797096808
 21
-0.4378008409
 31
0.0
  0
LINE
  5
1E1
330
1F
100
AcDbEntity
  8
0
  6
Continuous
 62
     7
370
    25
100
AcDbLine
 10
-1.7680166047
 20
-0.8474580153
 30
0.0
 11
-1.7679327172
 21
-0.6286336698
 31
0.0
  0
LINE
  5
1E2
330
1F
100
AcDbEntity
  8
0
  6
Continuous
 62
     7
370
    25
100
AcDbLine
 10
-1.3541311905
 20
-0.4239161125
 30
0.0
 11
-1.4223144786
 21
-0.4239161125
 31
0.0
  0
LINE
  5
1E3
330
1F
100
AcDbEntity
  8
0
  6
Continuous
 62
     7
370
    25
100
AcDbLine
 10
-1.4223144786
 20
-0.4239161125
 30
0.0
 11
-1.4223144786
 21
-0.6066336698
 31
0.0
  0
LINE
  5
1E4
330
1F
100
AcDbEntity
  8
0
  6
Continuous
 62
     7
370
    25
100
AcDbLine
 10
-1.4223144786
 20
-0.6066336698
 30
0.0
 11
-1.6067112612
 21
-0.6066336698
 31
0.0
  0
LINE
  5
1E5
330
1F
100
AcDbEntity
  8
0
  6
Continuous
 62
     7
370
    25
100
AcDbLine
 10
-1.6067112612
 20
-0.6066336698
 30
0.0
 11
-1.6067112612
 21
-0.4239161125
 31
0.0
  0
LINE
  5
1E6
330
1F
100
AcDbEntity
  8
0
  6
Continuous
 62
     7
370
    25
100
AcDbLine
 10
-1.6067112612
 20
-0.4239161125
 30
0.0
 11
-1.6748945493
 21
-0.4239161125
 31
0.0
  0
LINE
  5
1E7
330
1F
100
AcDbEntity
  8
0
  6
Continuous
 62
     7
370
    25
100
AcDbLine
 10
-1.6748945493
 20
-0.4239161125
 30
0.0
 11
-1.6748945493
 21
-0.8639161125
 31
0.0
  0
LINE
  5
1E8
330
1F
100
AcDbEntity
  8
0
  6
Continuous
 62
     7
370
    25
100
AcDbLine
 10
-1.6748945493
 20
-0.8639161125
 30
0.0
 11
-1.6067112612
 21
-0.8639161125
 31
0.0
  0
LINE
  5
1E9
330
1F
100
AcDbEntity
  8
0
  6
Continuous
 62
     7
370
    25
100
AcDbLine
 10
-1.6067112612
 20
-0.8639161125
 30
0.0
 11
-1.6067112612
 21
-0.6650764179
 31
0.0
  0
LINE
  5
1EA
330
1F
100
AcDbEntity
  8
0
  6
Continuous
 62
     7
370
    25
100
AcDbLine
 10
-1.6067112612
 20
-0.6650764179
 30
0.0
 11
-1.4223144786
 21
-0.6650764179
 31
0.0
  0
LINE
  5
1EB
330
1F
100
AcDbEntity
  8
0
  6
Continuous
 62
     7
370
    25
100
AcDbLine
 10
-1.4223144786
 20
-0.6650764179
 30
0.0
 11
-1.4223144786
 21
-0.8639161125
 31
0.0
  0
LINE
  5
1EC
330
1F
100
AcDbEntity
  8
0
  6
Continuous
 62
     7
370
    25
100
AcDbLine
 10
-1.4223144786
 20
-0.8639161125
 30
0.0
 11
-1.3541311905
 21
-0.8639161125
 31
0.0
  0
LINE
  5
1ED
330
1F
100
AcDbEntity
  8
0
  6
Continuous
 62
     7
370
    25
100
AcDbLine
 10
-1.3541311905
 20
-0.8639161125
 30
0.0
 11
-1.3541311905
 21
-0.4239161125
 31
0.0
  0
LINE
  5
1EE
330
1F
100
AcDbEntity
  8
0
  6
Continuous
 62
     7
370
    25
100
AcDbLine
 10
-0.9814068868
 20
-0.4244074651
 30
0.0
 11
-1.2892979068
 21
-0.4244074651
 31
0.0
  0
LINE
  5
1EF
330
1F
100
AcDbEntity
  8
0
  6
Continuous
 62
     7
370
    25
100
AcDbLine
 10
-1.2892979068
 20
-0.4244074651
 30
0.0
 11
-1.2892979068
 21
-0.4818676721
 31
0.0
  0
LINE
  5
1F0
330
1F
100
AcDbEntity
  8
0
  6
Continuous
 62
     7
370
    25
100
AcDbLine
 10
-1.2892979068
 20
-0.4818676721
 30
0.0
 11
-1.1697342439
 21
-0.4818676721
 31
0.0
  0
LINE
  5
1F1
330
1F
100
AcDbEntity
  8
0
  6
Continuous
 62
     7
370
    25
100
AcDbLine
 10
-1.1697342439
 20
-0.4818676721
 30
0.0
 11
-1.1697342439
 21
-0.8639161125
 31
0.0
  0
LINE
  5
1F2
330
1F
100
AcDbEntity
  8
0
  6
Continuous
 62
     7
370
    25
100
AcDbLine
 10
-1.1697342439
 20
-0.8639161125
 30
0.0
 11
-1.1015509558
 21
-0.8639161125
 31
0.0
  0
LINE
  5
1F3
330
1F
100
AcDbEntity
  8
0
  6
Continuous
 62
     7
370
    25
100
AcDbLine
 10
-1.1015509558
 20
-0.8639161125
 30
0.0
 11
-1.1015509558
 21
-0.4818676721
 31
0.0
  0
LINE
  5
1F4
330
1F
100
AcDbEntity
  8
0
  6
Continuous
 62
     7
370
    25
100
AcDbLine
 10
-1.1015509558
 20
-0.4818676721
 30
0.0
 11
-0.9814068868
 21
-0.4818676721
 31
0.0
  0
LINE
  5
1F5
330
1F
100
AcDbEntity
  8
0
  6
Continuous
 62
     7
370
    25
100
AcDbLine
 10
-0.9814068868
 20
-0.4818676721
 30
0.0
 11
-0.9814068868
 21
-0.4244074651
 31
0.0
  0
LINE
  5
1F6
330
1F
100
AcDbEntity
  8
0
  6
Continuous
 62
     7
370
    25
100
AcDbLine
 10
-4.8701815903
 20
-5.5379847328
 30
0.0
 11
-4.8556255162
 21
-5.4849542432
 31
0.0
  0
LINE
  5
1F7
330
1F
100
AcDbEntity
  8
0
  6
Continuous
 62
     7
370
    25
100
AcDbLine
 10
-4.8574182315
 20
-5.9054351145
 30
0.0
 11
-4.8689748573
 21
-5.8509855901
 31
0.0
  0
LINE
  5
1F8
330
1F
100
AcDbEntity
  8
0
  6
Continuous
 62
     7
370
    25
100
AcDbLine
 10
-4.8203906505
 20
-0.6412290076
 30
0.0
 11
-4.8203906505
 21
-0.475617031
 31
0.0
  0
LINE
  5
1F9
330
1F
100
AcDbEntity
  8
0
  6
Continuous
 62
     7
370
    25
100
AcDbLine
 10
-3.5176854071
 20
-5.6786336698
 30
0.0
 11
-3.5176854071
 21
-5.525275167
 31
0.0
  0
LINE
  5
1FA
330
1F
100
AcDbEntity
  8
0
  6
Continuous
 62
     7
370
    25
100
AcDbLine
 10
-3.4723418957
 20
-5.6787175573
 30
0.0
 11
-3.5176854071
 21
-5.6786336698
 31
0.0
  0
LINE
  5
1FB
330
1F
100
AcDbEntity
  8
0
  6
Continuous
 62
     7
370
    25
100
AcDbLine
 10
-1.6425632697
 20
-5.6183435115
 30
0.0
 11
-1.6076604265
 21
-5.7323740458
 31
0.0
  0
LINE
  5
1FC
330
1F
100
AcDbEntity
  8
0
  6
Continuous
 62
     7
370
    25
100
AcDbLine
 10
-1.6657388422
 20
-5.5321908397
 30
0.0
 11
-1.6645321912
 21
-5.5321578751
 31
0.0
  0
LINE
  5
1FD
330
1F
100
AcDbEntity
  8
0
  6
Continuous
 62
     7
370
    25
100
AcDbLine
 10
-1.72198428
 20
-5.7323740458
 30
0.0
 11
-1.6865845081
 21
-5.6171793371
 31
0.0
  0
LINE
  5
1FE
330
1F
100
AcDbEntity
  8
0
  6
Continuous
 62
     7
370
    25
100
AcDbLine
 10
-1.6076604265
 20
-5.7323740458
 30
0.0
 11
-1.72198428
 21
-5.7323740458
 31
0.0
  0
LINE
  5
1FF
330
1F
100
AcDbEntity
  8
0
  6
Continuous
 62
     7
370
    25
100
AcDbLine
 10
-3.8638104978
 20
-0.8144580153
 30
0.0
 11
-3.8638104978
 21
-0.4757484792
 31
0.0
  0
LINE
  5
200
330
1F
100
AcDbEntity
  8
0
  6
Continuous
 62
     7
370
    25
100
AcDbLine
 10
-3.0592121247
 20
-5.5211908397
 30
0.0
 11
-3.0591777661
 21
-5.5211070342
 31
0.0
  0
LINE
  5
201
330
1F
100
AcDbEntity
  8
0
  6
Continuous
 62
     7
370
    25
100
AcDbLine
 10
-4.6069373155
 20
-5.5211908397
 30
0.0
 11
-4.6069029569
 21
-5.5211070342
 31
0.0
  0
MTEXT
  5
203
330
1F
100
AcDbEntity
  8
0
  6
Continuous
 62
     7
100
AcDbMText
 10
-5.5
 20
-6.7901404091
 30
0.0
 40
0.1903
 41
0.0
 71
     1
 72
     1
  1
SOLIDWORKS Educational Product.
  7
SLDTEXTSTYLE0
 73
     1
 44
1.0
  0
MTEXT
  5
204
330
1F
100
AcDbEntity
  8
0
  6
Continuous
 62
     7
100
AcDbMText
 10
-5.5
 20
-7.0755904091
 30
0.0
 40
0.1903
 41
0.0
 71
     1
 72
     1
  1
For Instructional Use Only.
  7
SLDTEXTSTYLE0
 73
     1
 44
1.0
  0
ENDSEC
  0
SECTION
  2
OBJECTS
  0
DICTIONARY
  5
C
330
0
100
AcDbDictionary
281
     1
  3
ACAD_GROUP
350
D
  3
ACAD_LAYOUT
350
1A
  3
ACAD_MLINESTYLE
350
17
  3
ACAD_PLOTSETTINGS
350
19
  3
ACAD_PLOTSTYLENAME
350
E
  3
ACAD_SCALELIST
350
47
  0
DICTIONARY
  5
D
102
{ACAD_REACTORS
330
C
102
}
330
C
100
AcDbDictionary
281
     1
  0
DICTIONARY
  5
1A
102
{ACAD_REACTORS
330
C
102
}
330
C
100
AcDbDictionary
281
     1
  3
Layout1
350
1E
  3
Layout2
350
26
  3
Model
350
22
  0
DICTIONARY
  5
17
102
{ACAD_REACTORS
330
C
102
}
330
C
100
AcDbDictionary
281
     1
  3
Standard
350
18
  0
DICTIONARY
  5
19
102
{ACAD_REACTORS
330
C
102
}
330
C
100
AcDbDictionary
281
     1
  0
ACDBDICTIONARYWDFLT
  5
E
102
{ACAD_REACTORS
330
C
102
}
330
C
100
AcDbDictionary
281
     1
  3
Normal
350
F
100
AcDbDictionaryWithDefault
340
F
  0
DICTIONARY
  5
47
102
{ACAD_REACTORS
330
C
102
}
330
C
100
AcDbDictionary
281
     1
  3
A0
350
48
  3
A1
350
49
  3
A2
350
4A
  3
A3
350
4B
  3
A4
350
4C
  3
A5
350
4D
  3
A6
350
4E
  3
A7
350
4F
  3
A8
350
50
  3
A9
350
51
  3
B0
350
52
  3
B1
350
53
  3
B2
350
54
  3
B3
350
55
  3
B4
350
56
  3
B5
350
57
  3
B6
350
58
  3
B7
350
59
  3
B8
350
5A
  3
B9
350
5B
  3
C0
350
5C
  3
C1
350
5D
  3
C2
350
5E
  3
C3
350
5F
  3
C4
350
60
  3
C5
350
61
  3
C6
350
62
  3
C7
350
63
  3
C8
350
64
  3
C9
350
65
  3
D0
350
66
  3
D1
350
67
  3
D2
350
68
  0
LAYOUT
  5
1E
102
{ACAD_REACTORS
330
1A
102
}
330
1A
100
AcDbPlotSettings
  1

  2
none_device
  4

  6

 40
0.0
 41
0.0
 42
0.0
 43
0.0
 44
0.0
 45
0.0
 46
0.0
 47
0.0
 48
0.0
 49
0.0
140
0.0
141
0.0
142
1.0
143
1.0
 70
   688
 72
     0
 73
     0
 74
     5
  7

 75
    16
147
1.0
148
0.0
149
0.0
100
AcDbLayout
  1
Layout1
 70
     1
 71
     1
 10
0.0
 20
0.0
 11
12.0
 21
9.0
 12
0.0
 22
0.0
 32
0.0
 14
1.0000000000E+20
 24
1.0000000000E+20
 34
1.0000000000E+20
 15
-1.0000000000E+20
 25
-1.0000000000E+20
 35
-1.0000000000E+20
146
0.0
 13
0.0
 23
0.0
 33
0.0
 16
1.0
 26
0.0
 36
0.0
 17
0.0
 27
1.0
 37
0.0
 76
     0
330
1B
  0
LAYOUT
  5
26
102
{ACAD_REACTORS
330
1A
102
}
330
1A
100
AcDbPlotSettings
  1

  2
none_device
  4

  6

 40
0.0
 41
0.0
 42
0.0
 43
0.0
 44
0.0
 45
0.0
 46
0.0
 47
0.0
 48
0.0
 49
0.0
140
0.0
141
0.0
142
1.0
143
1.0
 70
   688
 72
     0
 73
     0
 74
     5
  7

 75
    16
147
1.0
148
0.0
149
0.0
100
AcDbLayout
  1
Layout2
 70
     1
 71
     2
 10
0.0
 20
0.0
 11
0.0
 21
0.0
 12
0.0
 22
0.0
 32
0.0
 14
0.0
 24
0.0
 34
0.0
 15
0.0
 25
0.0
 35
0.0
146
0.0
 13
0.0
 23
0.0
 33
0.0
 16
1.0
 26
0.0
 36
0.0
 17
0.0
 27
1.0
 37
0.0
 76
     0
330
23
  0
LAYOUT
  5
22
102
{ACAD_REACTORS
330
1A
102
}
330
1A
100
AcDbPlotSettings
  1

  2
none_device
  4
ANSI_A_(11.00_x_8.50_Inches)
  6

 40
6.35
 41
19.05
 42
6.35000508
 43
19.05000254
 44
279.4
 45
215.9
 46
182.8270807933
 47
88.89999873
 48
0.0
 49
0.0
140
0.0
141
0.0
142
0.6233333333
143
1.0
 70
  1696
 72
     0
 73
     0
 74
     0
  7

 75
     0
147
0.5913241897
148
-39.4088153714
149
0.0
100
AcDbLayout
  1
Model
 70
     1
 71
     0
 10
0.0
 20
0.0
 11
12.0
 21
9.0
 12
0.0
 22
0.0
 32
0.0
 14
-5.5
 24
-6.75
 34
0.0
 15
-0.75
 25
6.75
 35
0.0
146
0.0
 13
0.0
 23
0.0
 33
0.0
 16
1.0
 26
0.0
 36
0.0
 17
0.0
 27
1.0
 37
0.0
 76
     0
330
1F
331
29
  0
MLINESTYLE
  5
18
102
{ACAD_REACTORS
330
17
102
}
330
17
100
AcDbMlineStyle
  2
Standard
 70
     0
  3

 62
   256
 51
90.0
 52
90.0
 71
     2
 49
0.5
 62
   256
  6
BYLAYER
 49
-0.5
 62
   256
  6
BYLAYER
  0
ACDBPLACEHOLDER
  5
F
102
{ACAD_REACTORS
330
E
102
}
330
E
  0
SCALE
  5
48
102
{ACAD_REACTORS
330
47
102
}
330
47
100
AcDbScale
 70
     0
300
1:1
140
1.0
141
1.0
290
     1
  0
SCALE
  5
49
102
{ACAD_REACTORS
330
47
102
}
330
47
100
AcDbScale
 70
     0
300
1:2
140
1.0
141
2.0
290
     0
  0
SCALE
  5
4A
102
{ACAD_REACTORS
330
47
102
}
330
47
100
AcDbScale
 70
     0
300
1:4
140
1.0
141
4.0
290
     0
  0
SCALE
  5
4B
102
{ACAD_REACTORS
330
47
102
}
330
47
100
AcDbScale
 70
     0
300
1:5
140
1.0
141
5.0
290
     0
  0
SCALE
  5
4C
102
{ACAD_REACTORS
330
47
102
}
330
47
100
AcDbScale
 70
     0
300
1:8
140
1.0
141
8.0
290
     0
  0
SCALE
  5
4D
102
{ACAD_REACTORS
330
47
102
}
330
47
100
AcDbScale
 70
     0
300
1:10
140
1.0
141
10.0
290
     0
  0
SCALE
  5
4E
102
{ACAD_REACTORS
330
47
102
}
330
47
100
AcDbScale
 70
     0
300
1:16
140
1.0
141
16.0
290
     0
  0
SCALE
  5
4F
102
{ACAD_REACTORS
330
47
102
}
330
47
100
AcDbScale
 70
     0
300
1:20
140
1.0
141
20.0
290
     0
  0
SCALE
  5
50
102
{ACAD_REACTORS
330
47
102
}
330
47
100
AcDbScale
 70
     0
300
1:30
140
1.0
141
30.0
290
     0
  0
SCALE
  5
51
102
{ACAD_REACTORS
330
47
102
}
330
47
100
AcDbScale
 70
     0
300
1:40
140
1.0
141
40.0
290
     0
  0
SCALE
  5
52
102
{ACAD_REACTORS
330
47
102
}
330
47
100
AcDbScale
 70
     0
300
1:50
140
1.0
141
50.0
290
     0
  0
SCALE
  5
53
102
{ACAD_REACTORS
330
47
102
}
330
47
100
AcDbScale
 70
     0
300
1:100
140
1.0
141
100.0
290
     0
  0
SCALE
  5
54
102
{ACAD_REACTORS
330
47
102
}
330
47
100
AcDbScale
 70
     0
300
2:1
140
2.0
141
1.0
290
     0
  0
SCALE
  5
55
102
{ACAD_REACTORS
330
47
102
}
330
47
100
AcDbScale
 70
     0
300
4:1
140
4.0
141
1.0
290
     0
  0
SCALE
  5
56
102
{ACAD_REACTORS
330
47
102
}
330
47
100
AcDbScale
 70
     0
300
8:1
140
8.0
141
1.0
290
     0
  0
SCALE
  5
57
102
{ACAD_REACTORS
330
47
102
}
330
47
100
AcDbScale
 70
     0
300
10:1
140
10.0
141
1.0
290
     0
  0
SCALE
  5
58
102
{ACAD_REACTORS
330
47
102
}
330
47
100
AcDbScale
 70
     0
300
100:1
140
100.0
141
1.0
290
     0
  0
SCALE
  5
59
102
{ACAD_REACTORS
330
47
102
}
330
47
100
AcDbScale
 70
     0
300
1/128" = 1'-0"
140
0.0078125
141
12.0
290
     0
  0
SCALE
  5
5A
102
{ACAD_REACTORS
330
47
102
}
330
47
100
AcDbScale
 70
     0
300
1/64" = 1'-0"
140
0.015625
141
12.0
290
     0
  0
SCALE
  5
5B
102
{ACAD_REACTORS
330
47
102
}
330
47
100
AcDbScale
 70
     0
300
1/32" = 1'-0"
140
0.03125
141
12.0
290
     0
  0
SCALE
  5
5C
102
{ACAD_REACTORS
330
47
102
}
330
47
100
AcDbScale
 70
     0
300
1/16" = 1'-0"
140
0.0625
141
12.0
290
     0
  0
SCALE
  5
5D
102
{ACAD_REACTORS
330
47
102
}
330
47
100
AcDbScale
 70
     0
300
3/32" = 1'-0"
140
0.09375
141
12.0
290
     0
  0
SCALE
  5
5E
102
{ACAD_REACTORS
330
47
102
}
330
47
100
AcDbScale
 70
     0
300
1/8" = 1'-0"
140
0.125
141
12.0
290
     0
  0
SCALE
  5
5F
102
{ACAD_REACTORS
330
47
102
}
330
47
100
AcDbScale
 70
     0
300
3/16" = 1'-0"
140
0.1875
141
12.0
290
     0
  0
SCALE
  5
60
102
{ACAD_REACTORS
330
47
102
}
330
47
100
AcDbScale
 70
     0
300
1/4" = 1'-0"
140
0.25
141
12.0
290
     0
  0
SCALE
  5
61
102
{ACAD_REACTORS
330
47
102
}
330
47
100
AcDbScale
 70
     0
300
3/8" = 1'-0"
140
0.375
141
12.0
290
     0
  0
SCALE
  5
62
102
{ACAD_REACTORS
330
47
102
}
330
47
100
AcDbScale
 70
     0
300
1/2" = 1'-0"
140
0.5
141
12.0
290
     0
  0
SCALE
  5
63
102
{ACAD_REACTORS
330
47
102
}
330
47
100
AcDbScale
 70
     0
300
3/4" = 1'-0"
140
0.75
141
12.0
290
     0
  0
SCALE
  5
64
102
{ACAD_REACTORS
330
47
102
}
330
47
100
AcDbScale
 70
     0
300
1" = 1'-0"
140
1.0
141
12.0
290
     0
  0
SCALE
  5
65
102
{ACAD_REACTORS
330
47
102
}
330
47
100
AcDbScale
 70
     0
300
1-1/2" = 1'-0"
140
1.5
141
12.0
290
     0
  0
SCALE
  5
66
102
{ACAD_REACTORS
330
47
102
}
330
47
100
AcDbScale
 70
     0
300
3" = 1'-0"
140
3.0
141
12.0
290
     0
  0
SCALE
  5
67
102
{ACAD_REACTORS
330
47
102
}
330
47
100
AcDbScale
 70
     0
300
6" = 1'-0"
140
6.0
141
12.0
290
     0
  0
SCALE
  5
68
102
{ACAD_REACTORS
330
47
102
}
330
47
100
AcDbScale
 70
     0
300
1'-0" = 1'-0"
140
12.0
141
12.0
290
     0
  0
ENDSEC
  0
EOF
