  0
SECTION
  2
HEADER
  9
$ACADVER
  1
AC1015
  9
$ACADMAINTVER
 70
     6
  9
$DWGCODEPAGE
  3
ANSI_1252
  9
$INSBASE
 10
0.0
 20
0.0
 30
0.0
  9
$EXTMIN
 10
0.75
 20
-6.75
 30
0.0
  9
$EXTMAX
 10
5.5
 20
6.75
 30
0.0
  9
$LIMMIN
 10
0.0
 20
0.0
  9
$LIMMAX
 10
12.0
 20
9.0
  9
$ORTHOMODE
 70
     0
  9
$REGENMODE
 70
     1
  9
$FILLMODE
 70
     1
  9
$QTEXTMODE
 70
     0
  9
$MIRRTEXT
 70
     1
  9
$LTSCALE
 40
1.0
  9
$ATTMODE
 70
     1
  9
$TEXTSIZE
 40
0.25
  9
$TRACEWID
 40
0.05
  9
$TEXTSTYLE
  7
Standard
  9
$CLAYER
  8
0
  9
$CELTYPE
  6
ByLayer
  9
$CECOLOR
 62
   256
  9
$CELTSCALE
 40
1.0
  9
$DISPSILH
 70
     0
  9
$DIMSCALE
 40
1.0
  9
$DIMASZ
 40
0.236
  9
$DIMEXO
 40
0.039
  9
$DIMDLI
 40
0.38
  9
$DIMRND
 40
0.0
  9
$DIMDLE
 40
0.0
  9
$DIMEXE
 40
0.039
  9
$DIMTP
 40
0.0
  9
$DIMTM
 40
0.0
  9
$DIMTXT
 40
0.25
  9
$DIMCEN
 40
0.09
  9
$DIMTSZ
 40
0.0
  9
$DIMTOL
 70
     0
  9
$DIMLIM
 70
     0
  9
$DIMTIH
 70
     1
  9
$DIMTOH
 70
     1
  9
$DIMSE1
 70
     0
  9
$DIMSE2
 70
     0
  9
$DIMTAD
 70
     1
  9
$DIMZIN
 70
     1
  9
$DIMBLK
  1

  9
$DIMASO
 70
     1
  9
$DIMSHO
 70
     1
  9
$DIMPOST
  1

  9
$DIMAPOST
  1

  9
$DIMALT
 70
     0
  9
$DIMALTD
 70
     2
  9
$DIMALTF
 40
25.4
  9
$DIMLFAC
 40
1.0
  9
$DIMTOFL
 70
     0
  9
$DIMTVP
 40
0.0
  9
$DIMTIX
 70
     0
  9
$DIMSOXD
 70
     0
  9
$DIMSAH
 70
     0
  9
$DIMBLK1
  1

  9
$DIMBLK2
  1

  9
$DIMSTYLE
  2
Standard
  9
$DIMCLRD
 70
     0
  9
$DIMCLRE
 70
     0
  9
$DIMCLRT
 70
     0
  9
$DIMTFAC
 40
1.0
  9
$DIMGAP
 40
0.06
  9
$DIMJUST
 70
     0
  9
$DIMSD1
 70
     0
  9
$DIMSD2
 70
     0
  9
$DIMTOLJ
 70
     1
  9
$DIMTZIN
 70
     1
  9
$DIMALTZ
 70
     0
  9
$DIMALTTZ
 70
     0
  9
$DIMUPT
 70
     0
  9
$DIMDEC
 70
     2
  9
$DIMTDEC
 70
     2
  9
$DIMALTU
 70
     2
  9
$DIMALTTD
 70
     2
  9
$DIMTXSTY
  7
Standard
  9
$DIMAUNIT
 70
     0
  9
$DIMADEC
 70
     2
  9
$DIMALTRND
 40
0.0
  9
$DIMAZIN
 70
     0
  9
$DIMDSEP
 70
    46
  9
$DIMATFIT
 70
     3
  9
$DIMFRAC
 70
     0
  9
$DIMLDRBLK
  1

  9
$DIMLUNIT
 70
     2
  9
$DIMLWD
 70
    -2
  9
$DIMLWE
 70
    -2
  9
$DIMTMOVE
 70
     0
  9
$LUNITS
 70
     2
  9
$LUPREC
 70
     2
  9
$SKETCHINC
 40
0.1
  9
$FILLETRAD
 40
0.5
  9
$AUNITS
 70
     0
  9
$AUPREC
 70
     2
  9
$MENU
  1
.
  9
$ELEVATION
 40
0.0
  9
$PELEVATION
 40
0.0
  9
$THICKNESS
 40
0.0
  9
$LIMCHECK
 70
     0
  9
$CHAMFERA
 40
0.0
  9
$CHAMFERB
 40
0.0
  9
$CHAMFERC
 40
0.0
  9
$CHAMFERD
 40
0.0
  9
$SKPOLY
 70
     0
  9
$TDCREATE
 40
2458799.920016863
  9
$TDUCREATE
 40
2458800.128350197
  9
$TDUPDATE
 40
2458799.920070162
  9
$TDUUPDATE
 40
2458800.128403496
  9
$TDINDWG
 40
0.0000000116
  9
$TDUSRTIMER
 40
0.0000000116
  9
$USRTIMER
 70
     1
  9
$ANGBASE
 50
0.0
  9
$ANGDIR
 70
     0
  9
$PDMODE
 70
     0
  9
$PDSIZE
 40
-1.0
  9
$PLINEWID
 40
0.0
  9
$SPLFRAME
 70
     0
  9
$SPLINETYPE
 70
     6
  9
$SPLINESEGS
 70
     8
  9
$HANDSEED
  5
A2
  9
$SURFTAB1
 70
     6
  9
$SURFTAB2
 70
     6
  9
$SURFTYPE
 70
     6
  9
$SURFU
 70
     6
  9
$SURFV
 70
     6
  9
$UCSBASE
  2

  9
$UCSNAME
  2

  9
$UCSORG
 10
0.0
 20
0.0
 30
0.0
  9
$UCSXDIR
 10
1.0
 20
0.0
 30
0.0
  9
$UCSYDIR
 10
0.0
 20
1.0
 30
0.0
  9
$UCSORTHOREF
  2

  9
$UCSORTHOVIEW
 70
     0
  9
$UCSORGTOP
 10
0.0
 20
0.0
 30
0.0
  9
$UCSORGBOTTOM
 10
0.0
 20
0.0
 30
0.0
  9
$UCSORGLEFT
 10
0.0
 20
0.0
 30
0.0
  9
$UCSORGRIGHT
 10
0.0
 20
0.0
 30
0.0
  9
$UCSORGFRONT
 10
0.0
 20
0.0
 30
0.0
  9
$UCSORGBACK
 10
0.0
 20
0.0
 30
0.0
  9
$PUCSBASE
  2

  9
$PUCSNAME
  2

  9
$PUCSORG
 10
0.0
 20
0.0
 30
0.0
  9
$PUCSXDIR
 10
1.0
 20
0.0
 30
0.0
  9
$PUCSYDIR
 10
0.0
 20
1.0
 30
0.0
  9
$PUCSORTHOREF
  2

  9
$PUCSORTHOVIEW
 70
     0
  9
$PUCSORGTOP
 10
0.0
 20
0.0
 30
0.0
  9
$PUCSORGBOTTOM
 10
0.0
 20
0.0
 30
0.0
  9
$PUCSORGLEFT
 10
0.0
 20
0.0
 30
0.0
  9
$PUCSORGRIGHT
 10
0.0
 20
0.0
 30
0.0
  9
$PUCSORGFRONT
 10
0.0
 20
0.0
 30
0.0
  9
$PUCSORGBACK
 10
0.0
 20
0.0
 30
0.0
  9
$USERI1
 70
     0
  9
$USERI2
 70
     0
  9
$USERI3
 70
     0
  9
$USERI4
 70
     0
  9
$USERI5
 70
     0
  9
$USERR1
 40
0.0
  9
$USERR2
 40
0.0
  9
$USERR3
 40
0.0
  9
$USERR4
 40
0.0
  9
$USERR5
 40
0.0
  9
$WORLDVIEW
 70
     1
  9
$SHADEDGE
 70
     3
  9
$SHADEDIF
 70
    70
  9
$TILEMODE
 70
     1
  9
$MAXACTVP
 70
    64
  9
$PINSBASE
 10
0.0
 20
0.0
 30
0.0
  9
$PLIMCHECK
 70
     0
  9
$PEXTMIN
 10
1.0000000000E+20
 20
1.0000000000E+20
 30
1.0000000000E+20
  9
$PEXTMAX
 10
-1.0000000000E+20
 20
-1.0000000000E+20
 30
-1.0000000000E+20
  9
$PLIMMIN
 10
0.0
 20
0.0
  9
$PLIMMAX
 10
12.0
 20
9.0
  9
$UNITMODE
 70
     0
  9
$VISRETAIN
 70
     1
  9
$PLINEGEN
 70
     0
  9
$PSLTSCALE
 70
     1
  9
$TREEDEPTH
 70
  3020
  9
$CMLSTYLE
  2
Standard
  9
$CMLJUST
 70
     0
  9
$CMLSCALE
 40
1.0
  9
$PROXYGRAPHICS
 70
     1
  9
$MEASUREMENT
 70
     0
  9
$CELWEIGHT
370
    -1
  9
$ENDCAPS
280
     0
  9
$JOINSTYLE
280
     0
  9
$LWDISPLAY
290
     1
  9
$INSUNITS
 70
     1
  9
$HYPERLINKBASE
  1

  9
$STYLESHEET
  1

  9
$XEDIT
290
     1
  9
$CEPSNTYPE
380
     0
  9
$PSTYLEMODE
290
     1
  9
$FINGERPRINTGUID
  2
{c864ca22-0453-47de-9db5-0b8033c79647}
  9
$VERSIONGUID
  2
{FAEB1C32-E019-11D5-929B-00C0DF256EC4}
  9
$EXTNAMES
290
     1
  9
$PSVPSCALE
 40
0.0
  9
$OLESTARTUP
290
     0
  0
ENDSEC
  0
SECTION
  2
CLASSES
  0
CLASS
  1
ACDBDICTIONARYWDFLT
  2
AcDbDictionaryWithDefault
  3
ObjectDBX Classes
 90
        0
280
     0
281
     0
  0
CLASS
  1
VISUALSTYLE
  2
AcDbVisualStyle
  3
ObjectDBX Classes
 90
     4095
280
     0
281
     0
  0
CLASS
  1
MATERIAL
  2
AcDbMaterial
  3
ObjectDBX Classes
 90
     1153
280
     0
281
     0
  0
CLASS
  1
SCALE
  2
AcDbScale
  3
ObjectDBX Classes
 90
     1153
280
     0
281
     0
  0
CLASS
  1
TABLESTYLE
  2
AcDbTableStyle
  3
ObjectDBX Classes
 90
     4095
280
     0
281
     0
  0
CLASS
  1
MLEADERSTYLE
  2
AcDbMLeaderStyle
  3
ACDB_MLEADERSTYLE_CLASS
 90
     4095
280
     0
281
     0
  0
CLASS
  1
SUN
  2
AcDbSun
  3
SCENEOE
 90
     1153
280
     0
281
     0
  0
CLASS
  1
ACDBPLACEHOLDER
  2
AcDbPlaceHolder
  3
ObjectDBX Classes
 90
        0
280
     0
281
     0
  0
CLASS
  1
LAYOUT
  2
AcDbLayout
  3
ObjectDBX Classes
 90
        0
280
     0
281
     0
  0
ENDSEC
  0
SECTION
  2
TABLES
  0
TABLE
  2
VPORT
  5
8
330
0
100
AcDbSymbolTable
 70
     1
  0
VPORT
  5
29
330
8
100
AcDbSymbolTableRecord
100
AcDbViewportTableRecord
  2
*Active
 70
     0
 10
0.0
 20
0.0
 11
1.0
 21
1.0
 12
3.125
 22
0.0
 13
0.0
 23
0.0
 14
0.5
 24
0.5
 15
0.5
 25
0.5
 16
0.0
 26
0.0
 36
1.0
 17
0.0
 27
0.0
 37
0.0
 40
13.77
 41
0.3518518519
 42
50.0
 43
0.0
 44
0.0
 50
0.0
 51
0.0
 71
     0
 72
   100
 73
     1
 74
     3
 75
     0
 76
     0
 77
     0
 78
     0
281
     0
 65
     1
110
0.0
120
0.0
130
0.0
111
1.0
121
0.0
131
0.0
112
0.0
122
1.0
132
0.0
 79
     0
146
0.0
  0
ENDTAB
  0
TABLE
  2
LTYPE
  5
5
330
0
100
AcDbSymbolTable
 70
     6
  0
LTYPE
  5
14
330
5
100
AcDbSymbolTableRecord
100
AcDbLinetypeTableRecord
  2
ByBlock
 70
     0
  3

 72
    65
 73
     0
 40
0.0
  0
LTYPE
  5
15
330
5
100
AcDbSymbolTableRecord
100
AcDbLinetypeTableRecord
  2
ByLayer
 70
     0
  3

 72
    65
 73
     0
 40
0.0
  0
LTYPE
  5
16
330
5
100
AcDbSymbolTableRecord
100
AcDbLinetypeTableRecord
  2
Continuous
 70
     0
  3
Solid line
 72
    65
 73
     0
 40
0.0
  0
LTYPE
  5
6E
330
5
100
AcDbSymbolTableRecord
100
AcDbLinetypeTableRecord
  2
HIDDEN
 70
     0
  3
Hidden __ __ __ __ __ __ __ __ __ __ __ __ __ __
 72
    65
 73
     2
 40
0.075
 49
0.05
 74
     0
 49
-0.025
 74
     0
  0
LTYPE
  5
6F
330
5
100
AcDbSymbolTableRecord
100
AcDbLinetypeTableRecord
  2
PHANTOM
 70
     0
  3
Phantom ______  __  __  ______  __  __  ______
 72
    65
 73
     6
 40
0.5
 49
0.25
 74
     0
 49
-0.05
 74
     0
 49
0.05
 74
     0
 49
-0.05
 74
     0
 49
0.05
 74
     0
 49
-0.05
 74
     0
  0
LTYPE
  5
70
330
5
100
AcDbSymbolTableRecord
100
AcDbLinetypeTableRecord
  2
CENTER
 70
     0
  3
Center ____ _ ____ _ ____ _ ____ _ ____ _ ____
 72
    65
 73
     4
 40
0.4
 49
0.25
 74
     0
 49
-0.05
 74
     0
 49
0.05
 74
     0
 49
-0.05
 74
     0
  0
LTYPE
  5
71
330
5
100
AcDbSymbolTableRecord
100
AcDbLinetypeTableRecord
  2
CENTERX2
 70
     0
  3
Center (2x) ________  __  ________  __  _____
 72
    65
 73
     4
 40
0.8
 49
0.5
 74
     0
 49
-0.1
 74
     0
 49
0.1
 74
     0
 49
-0.1
 74
     0
  0
LTYPE
  5
72
330
5
100
AcDbSymbolTableRecord
100
AcDbLinetypeTableRecord
  2
DOT2
 70
     0
  3
Dot (.5x) ........................................
 72
    65
 73
     2
 40
0.025
 49
0.0
 74
     0
 49
-0.025
 74
     0
  0
ENDTAB
  0
TABLE
  2
LAYER
  5
2
330
0
100
AcDbSymbolTable
 70
     1
  0
LAYER
  5
10
330
2
100
AcDbSymbolTableRecord
100
AcDbLayerTableRecord
  2
0
 70
     0
 62
     7
  6
Continuous
370
    -3
390
F
  0
ENDTAB
  0
TABLE
  2
STYLE
  5
3
330
0
100
AcDbSymbolTable
 70
     2
  0
STYLE
  5
11
330
3
100
AcDbSymbolTableRecord
100
AcDbTextStyleTableRecord
  2
Standard
 70
     0
 40
0.0
 41
1.0
 50
0.0
 71
     0
 42
0.25
  3
txt
  4

  0
STYLE
  5
9F
330
3
100
AcDbSymbolTableRecord
100
AcDbTextStyleTableRecord
  2
SLDTEXTSTYLE0
 70
     0
 40
0.0
 41
0.7
 50
0.0
 71
     0
 42
0.25
  3
TXT
  4

  0
ENDTAB
  0
TABLE
  2
VIEW
  5
6
330
0
100
AcDbSymbolTable
 70
     0
  0
ENDTAB
  0
TABLE
  2
UCS
  5
7
330
0
100
AcDbSymbolTable
 70
     0
  0
ENDTAB
  0
TABLE
  2
APPID
  5
9
330
0
100
AcDbSymbolTable
 70
     1
  0
APPID
  5
12
330
9
100
AcDbSymbolTableRecord
100
AcDbRegAppTableRecord
  2
ACAD
 70
     0
  0
ENDTAB
  0
TABLE
  2
DIMSTYLE
  5
A
330
0
100
AcDbSymbolTable
 70
     1
100
AcDbDimStyleTable
  0
DIMSTYLE
105
27
330
A
100
AcDbSymbolTableRecord
100
AcDbDimStyleTableRecord
  2
Standard
 70
     0
178
     0
340
11
  0
ENDTAB
  0
TABLE
  2
BLOCK_RECORD
  5
1
330
0
100
AcDbSymbolTable
 70
     1
  0
BLOCK_RECORD
  5
1F
330
1
100
AcDbSymbolTableRecord
100
AcDbBlockTableRecord
  2
*Model_Space
340
22
  0
BLOCK_RECORD
  5
1B
330
1
100
AcDbSymbolTableRecord
100
AcDbBlockTableRecord
  2
*Paper_Space
340
1E
  0
BLOCK_RECORD
  5
23
330
1
100
AcDbSymbolTableRecord
100
AcDbBlockTableRecord
  2
*Paper_Space0
340
26
  0
ENDTAB
  0
ENDSEC
  0
SECTION
  2
BLOCKS
  0
BLOCK
  5
20
330
1F
100
AcDbEntity
  8
0
100
AcDbBlockBegin
  2
*Model_Space
 70
     0
 10
0.0
 20
0.0
 30
0.0
  3
*Model_Space
  1

  0
ENDBLK
  5
21
330
1F
100
AcDbEntity
  8
0
100
AcDbBlockEnd
  0
BLOCK
  5
1C
330
1B
100
AcDbEntity
 67
     1
  8
0
100
AcDbBlockBegin
  2
*Paper_Space
 70
     0
 10
0.0
 20
0.0
 30
0.0
  3
*Paper_Space
  1

  0
ENDBLK
  5
1D
330
1B
100
AcDbEntity
 67
     1
  8
0
100
AcDbBlockEnd
  0
BLOCK
  5
24
330
23
100
AcDbEntity
  8
0
100
AcDbBlockBegin
  2
*Paper_Space0
 70
     0
 10
0.0
 20
0.0
 30
0.0
  3
*Paper_Space0
  1

  0
ENDBLK
  5
25
330
23
100
AcDbEntity
  8
0
100
AcDbBlockEnd
  0
ENDSEC
  0
SECTION
  2
ENTITIES
  0
LWPOLYLINE
  5
73
330
1F
100
AcDbEntity
  8
0
  6
Continuous
 62
     7
100
AcDbPolyline
 90
       12
 70
   128
 43
0.0
 10
1.207516184
 20
-0.806351145
 10
1.03629638
 20
-0.806351145
 10
1.03629638
 20
-0.806351145
 10
1.03629638
 20
-0.4189161125
 10
1.03629638
 20
-0.4189161125
 10
0.9681130919
 20
-0.4189161125
 10
0.9681130919
 20
-0.4189161125
 10
0.9681130919
 20
-0.8637862595
 10
0.9681130919
 20
-0.8637862595
 10
1.2075161886
 20
-0.8637862595
 10
1.2075161886
 20
-0.8637862595
 10
1.2075161886
 20
-0.806351145
  0
LWPOLYLINE
  5
74
330
1F
100
AcDbEntity
  8
0
  6
Continuous
 62
     7
100
AcDbPolyline
 90
        8
 70
   128
 43
0.0
 10
1.2798067622
 20
-0.8589161125
 10
1.3479910365
 20
-0.8589161125
 10
1.3479910365
 20
-0.8589161125
 10
1.3479910365
 20
-0.4189161125
 10
1.3479910365
 20
-0.4189161125
 10
1.2798077484
 20
-0.4189161125
 10
1.2798077484
 20
-0.4189161125
 10
1.2798077484
 20
-0.8589161125
  0
LWPOLYLINE
  5
75
330
1F
100
AcDbEntity
  8
0
  6
Continuous
 62
     7
100
AcDbPolyline
 90
      124
 70
   128
 43
0.0
 10
1.7779138614
 20
-0.6236336698
 10
1.6369872048
 20
-0.6236336698
 10
1.6369872048
 20
-0.6236336698
 10
1.6369872048
 20
-0.6756947385
 10
1.6369872048
 20
-0.6756947385
 10
1.7151053763
 20
-0.6756947385
 10
1.7151053763
 20
-0.6756947385
 10
1.7151053763
 20
-0.8023442271
 10
1.7151053763
 20
-0.8023442271
 10
1.7106551586
 20
-0.8044198473
 10
1.7054490518
 20
-0.8062671756
 10
1.6992353113
 20
-0.807778626
 10
1.6921818762
 20
-0.8090381679
 10
1.6842047769
 20
-0.810129771
 10
1.6753040136
 20
-0.8108854962
 10
1.6654795861
 20
-0.8114732824
 10
1.6547314945
 20
-0.8117251908
 10
1.6547314945
 20
-0.8117251908
 10
1.6381895098
 20
-0.8109694656
 10
1.6225711892
 20
-0.808870229
 10
1.6077085937
 20
-0.8054274809
 10
1.593685693
 20
-0.8006412214
 10
1.5805024869
 20
-0.7945114504
 10
1.5681589754
 20
-0.7869541985
 10
1.5566551586
 20
-0.7781374046
 10
1.5459910365
 20
-0.7678931298
 10
1.5363345479
 20
-0.756389313
 10
1.5279376014
 20
-0.7435419847
 10
1.5208001968
 20
-0.729519084
 10
1.5149223342
 20
-0.7142366412
 10
1.5103040136
 20
-0.6976946565
 10
1.5068612655
 20
-0.6798091603
 10
1.5047620289
 20
-0.6607480916
 10
1.5038383647
 20
-0.6404274809
 10
1.5038383647
 20
-0.6404274809
 10
1.5048459983
 20
-0.6201068702
 10
1.5071131739
 20
-0.601129771
 10
1.5107238609
 20
-0.5834122137
 10
1.5157620289
 20
-0.5669541985
 10
1.5219757693
 20
-0.5518396947
 10
1.5296169907
 20
-0.5379847328
 10
1.5386017235
 20
-0.525389313
 10
1.5488459983
 20
-0.5141374046
 10
1.5601818762
 20
-0.5041450382
 10
1.5724414182
 20
-0.4955801527
 10
1.5854566853
 20
-0.4882748092
 10
1.5993956166
 20
-0.4822290076
 10
1.6141742426
 20
-0.477610687
 10
1.6297925632
 20
-0.4742519084
 10
1.6462505785
 20
-0.4722366412
 10
1.6635482884
 20
-0.4715648855
 10
1.6635482884
 20
-0.4715648855
 10
1.6783269144
 20
-0.4719007634
 10
1.6919299678
 20
-0.4728244275
 10
1.7043574487
 20
-0.4743358779
 10
1.7155253876
 20
-0.4764351145
 10
1.725685693
 20
-0.4789541985
 10
1.7350902731
 20
-0.4817251908
 10
1.7437391281
 20
-0.4848320611
 10
1.7515482884
 20
-0.4882748092
 10
1.7515482884
 20
-0.4882748092
 10
1.766137655
 20
-0.4328008409
 10
1.766137655
 20
-0.4328008409
 10
1.7573421815
 20
-0.4288244275
 10
1.7473498151
 20
-0.4252137405
 10
1.7360139373
 20
-0.4220229008
 10
1.7235024869
 20
-0.4192519084
 10
1.7098994334
 20
-0.4170687023
 10
1.6953727159
 20
-0.4154732824
 10
1.6799223342
 20
-0.4144656489
 10
1.6635482884
 20
-0.414129771
 10
1.6635482884
 20
-0.414129771
 10
1.6384414182
 20
-0.4153053435
 10
1.6145940899
 20
-0.4182442748
 10
1.5920063037
 20
-0.4231145038
 10
1.5707620289
 20
-0.4298320611
 10
1.5508612655
 20
-0.4383969466
 10
1.5322200441
 20
-0.4487251908
 10
1.5148383647
 20
-0.4609847328
 10
1.4988001968
 20
-0.4750916031
 10
1.4843574487
 20
-0.4908778626
 10
1.4717620289
 20
-0.5081755725
 10
1.4610139373
 20
-0.5269007634
 10
1.4521971434
 20
-0.547221374
 10
1.4452276777
 20
-0.5689694656
 10
1.4401055403
 20
-0.5922290076
 10
1.4369147006
 20
-0.617
 10
1.4355711892
 20
-0.6432824427
 10
1.4355711892
 20
-0.6432824427
 10
1.4351513418
 20
-0.658480916
 10
1.4361589754
 20
-0.6741832061
 10
1.4385101205
 20
-0.6904732824
 10
1.4422887464
 20
-0.7072671756
 10
1.4474948533
 20
-0.7245648855
 10
1.4541284411
 20
-0.7424503817
 10
1.4621055403
 20
-0.7608396947
 10
1.4715101205
 20
-0.7798167939
 10
1.4769681357
 20
-0.7891374046
 10
1.4831818762
 20
-0.7979541985
 10
1.4902353113
 20
-0.8061832061
 10
1.4979605021
 20
-0.8138244275
 10
1.5065253876
 20
-0.8209618321
 10
1.5159299678
 20
-0.8275954198
 10
1.5260063037
 20
-0.8336412214
 10
1.5369223342
 20
-0.8391832061
 10
1.5485940899
 20
-0.8441374046
 10
1.5611055403
 20
-0.8485877863
 10
1.5743727159
 20
-0.8524503817
 10
1.5883956166
 20
-0.8558091603
 10
1.6031742426
 20
-0.8586641221
 10
1.6187925632
 20
-0.8609312977
 10
1.635166609
 20
-0.862610687
 10
1.65229638
 20
-0.8637862595
 10
1.65229638
 20
-0.8637862595
 10
1.6722811128
 20
-0.8631984733
 10
1.6912582121
 20
-0.8617709924
 10
1.7093116472
 20
-0.8595877863
 10
1.7262734792
 20
-0.856648855
 10
1.7418917998
 20
-0.8532061069
 10
1.7556627922
 20
-0.8497633588
 10
1.7676704258
 20
-0.8461526718
 10
1.7778307311
 20
-0.8424580153
 10
1.7778307311
 20
-0.8424580153
 10
1.7779146186
 20
-0.6236336698
  0
LWPOLYLINE
  5
76
330
1F
100
AcDbEntity
  8
0
  6
Continuous
 62
     7
100
AcDbPolyline
 90
       24
 70
   128
 43
0.0
 10
2.1917155878
 20
-0.4189161125
 10
2.1235328572
 20
-0.4189161125
 10
2.1235328572
 20
-0.4189161125
 10
2.1235328572
 20
-0.6016336698
 10
2.1235328572
 20
-0.6016336698
 10
1.9391360747
 20
-0.6016336698
 10
1.9391360747
 20
-0.6016336698
 10
1.9391360747
 20
-0.4189161125
 10
1.9391360747
 20
-0.4189161125
 10
1.8709527865
 20
-0.4189161125
 10
1.8709527865
 20
-0.4189161125
 10
1.8709527865
 20
-0.8589161125
 10
1.8709527865
 20
-0.8589161125
 10
1.9391360747
 20
-0.8589161125
 10
1.9391360747
 20
-0.8589161125
 10
1.9391360747
 20
-0.6600764179
 10
1.9391360747
 20
-0.6600764179
 10
2.1235328572
 20
-0.6600764179
 10
2.1235328572
 20
-0.6600764179
 10
2.1235328572
 20
-0.8589161125
 10
2.1235328572
 20
-0.8589161125
 10
2.1917161453
 20
-0.8589161125
 10
2.1917161453
 20
-0.8589161125
 10
2.1917161453
 20
-0.4189161125
  0
LWPOLYLINE
  5
77
330
1F
100
AcDbEntity
  8
0
  6
Continuous
 62
     7
100
AcDbPolyline
 90
       16
 70
   128
 43
0.0
 10
2.5644382154
 20
-0.4194074651
 10
2.256549429
 20
-0.4194074651
 10
2.256549429
 20
-0.4194074651
 10
2.256549429
 20
-0.4768676721
 10
2.256549429
 20
-0.4768676721
 10
2.3761130919
 20
-0.4768676721
 10
2.3761130919
 20
-0.4768676721
 10
2.3761130919
 20
-0.8589161125
 10
2.3761130919
 20
-0.8589161125
 10
2.44429638
 20
-0.8589161125
 10
2.44429638
 20
-0.8589161125
 10
2.44429638
 20
-0.4768676721
 10
2.44429638
 20
-0.4768676721
 10
2.5644404491
 20
-0.4768676721
 10
2.5644404491
 20
-0.4768676721
 10
2.5644404491
 20
-0.4194074651
  0
LWPOLYLINE
  5
78
330
1F
100
AcDbEntity
  8
0
  6
Continuous
 62
     7
100
AcDbPolyline
 90
      172
 70
   128
 43
0.0
 10
3.1423639125
 20
-0.4326898109
 10
3.1345253876
 20
-0.4292442748
 10
3.1256246243
 20
-0.4258015267
 10
3.1154643189
 20
-0.4226946565
 10
3.1042124105
 20
-0.4196717557
 10
3.0918688991
 20
-0.4171526718
 10
3.0784337846
 20
-0.415221374
 10
3.0639910365
 20
-0.414129771
 10
3.0483727159
 20
-0.4136259542
 10
3.0483727159
 20
-0.4136259542
 10
3.0319147006
 20
-0.4142977099
 10
3.0163803495
 20
-0.4160610687
 10
3.0017696624
 20
-0.4187480916
 10
2.9879986701
 20
-0.4224427481
 10
2.9752353113
 20
-0.4271450382
 10
2.9633116472
 20
-0.4328549618
 10
2.9522276777
 20
-0.4394885496
 10
2.9421513418
 20
-0.4472137405
 10
2.9330826395
 20
-0.455778626
 10
2.9251895098
 20
-0.4649312977
 10
2.9184719525
 20
-0.4747557252
 10
2.9129299678
 20
-0.4852519084
 10
2.9085635556
 20
-0.4963358779
 10
2.9054566853
 20
-0.5080916031
 10
2.9034414182
 20
-0.520519084
 10
2.902685693
 20
-0.5336183206
 10
2.902685693
 20
-0.5336183206
 10
2.9033574487
 20
-0.5447022901
 10
2.9048688991
 20
-0.5553664122
 10
2.9073879831
 20
-0.5655267176
 10
2.9107467617
 20
-0.5752671756
 10
2.9151131739
 20
-0.5845877863
 10
2.9203192808
 20
-0.5934885496
 10
2.9264490518
 20
-0.6019694656
 10
2.9335024869
 20
-0.6099465649
 10
2.9413116472
 20
-0.6175877863
 10
2.9497925632
 20
-0.6248091603
 10
2.958945235
 20
-0.631778626
 10
2.9687696624
 20
-0.6383282443
 10
2.9791818762
 20
-0.6445419847
 10
2.9902658456
 20
-0.6503358779
 10
3.0020215708
 20
-0.6558778626
 10
3.0143650823
 20
-0.661
 10
3.0143650823
 20
-0.661
 10
3.0240215708
 20
-0.6651145038
 10
3.0329223342
 20
-0.6693129771
 10
3.0412353113
 20
-0.6735954198
 10
3.0487925632
 20
-0.6780458015
 10
3.0557620289
 20
-0.6825801527
 10
3.0620597388
 20
-0.6871984733
 10
3.0676017235
 20
-0.6919007634
 10
3.072555922
 20
-0.6967709924
 10
3.0768383647
 20
-0.7018091603
 10
3.0806169907
 20
-0.7070992366
 10
3.0837238609
 20
-0.7126412214
 10
3.0863269144
 20
-0.7184351145
 10
3.0882582121
 20
-0.724480916
 10
3.089685693
 20
-0.7308625954
 10
3.0904414182
 20
-0.7374122137
 10
3.0906933266
 20
-0.7442977099
 10
3.0906933266
 20
-0.7442977099
 10
3.0902734792
 20
-0.7517709924
 10
3.0892658456
 20
-0.7588244275
 10
3.0875024869
 20
-0.7654580153
 10
3.0851513418
 20
-0.7717557252
 10
3.0821284411
 20
-0.7777175573
 10
3.0784337846
 20
-0.7831755725
 10
3.0740673724
 20
-0.7882977099
 10
3.0690292044
 20
-0.7930839695
 10
3.0634032502
 20
-0.7973664122
 10
3.0571055403
 20
-0.8010610687
 10
3.0503040136
 20
-0.8042519084
 10
3.0428307311
 20
-0.8068549618
 10
3.0348536319
 20
-0.808870229
 10
3.0262887464
 20
-0.8103816794
 10
3.0170521052
 20
-0.8113053435
 10
3.0073116472
 20
-0.8117251908
 10
3.0073116472
 20
-0.8117251908
 10
2.9934566853
 20
-0.8111374046
 10
2.9799376014
 20
-0.8097099237
 10
2.9667543953
 20
-0.8073587786
 10
2.953907067
 20
-0.8041679389
 10
2.941647525
 20
-0.800221374
 10
2.9303116472
 20
-0.7958549618
 10
2.9198994334
 20
-0.7909847328
 10
2.9103269144
 20
-0.785610687
 10
2.9103269144
 20
-0.785610687
 10
2.8952243007
 20
-0.8422013508
 10
2.8952243007
 20
-0.8422013508
 10
2.9044490518
 20
-0.8476641221
 10
2.9151971434
 20
-0.8526183206
 10
2.9275406548
 20
-0.8571526718
 10
2.9414795861
 20
-0.8611832061
 10
2.9563421815
 20
-0.8645419847
 10
2.9715406548
 20
-0.8670610687
 10
2.9871589754
 20
-0.8685725191
 10
3.0031971434
 20
-0.8691603053
 10
3.0031971434
 20
-0.8691603053
 10
3.0215864563
 20
-0.8683206107
 10
3.0388841663
 20
-0.866389313
 10
3.0550902731
 20
-0.8633664122
 10
3.0701208075
 20
-0.8592519084
 10
3.0839757693
 20
-0.8540458015
 10
3.0968230976
 20
-0.8476641221
 10
3.1084948533
 20
-0.8402748092
 10
3.1189910365
 20
-0.8317938931
 10
3.1283116472
 20
-0.822389313
 10
3.1364566853
 20
-0.8123129771
 10
3.1433421815
 20
-0.801648855
 10
3.1489681357
 20
-0.7903129771
 10
3.1533345479
 20
-0.7783053435
 10
3.1565253876
 20
-0.7656259542
 10
3.1584566853
 20
-0.7523587786
 10
3.1591284411
 20
-0.7384198473
 10
3.1591284411
 20
-0.7384198473
 10
3.1587925632
 20
-0.7273358779
 10
3.1575330212
 20
-0.7165877863
 10
3.155517754
 20
-0.7063435115
 10
3.1526627922
 20
-0.696519084
 10
3.1489681357
 20
-0.6871145038
 10
3.144517754
 20
-0.6782137405
 10
3.1391437082
 20
-0.669648855
 10
3.1330139373
 20
-0.6615877863
 10
3.1260444716
 20
-0.6538625954
 10
3.1182353113
 20
-0.6463053435
 10
3.1095024869
 20
-0.6390839695
 10
3.0999299678
 20
-0.6321145038
 10
3.089517754
 20
-0.6253969466
 10
3.0782658456
 20
-0.6190152672
 10
3.0660902731
 20
-0.6128015267
 10
3.053075006
 20
-0.6069236641
 10
3.053075006
 20
-0.6069236641
 10
3.0428307311
 20
-0.6025572519
 10
3.0332582121
 20
-0.5981068702
 10
3.0243574487
 20
-0.593740458
 10
3.0162124105
 20
-0.5892900763
 10
3.0088230976
 20
-0.5848396947
 10
3.0020215708
 20
-0.580389313
 10
2.9959757693
 20
-0.5759389313
 10
2.990685693
 20
-0.5714885496
 10
2.9859834029
 20
-0.566870229
 10
2.9819528685
 20
-0.5619160305
 10
2.9785101205
 20
-0.5567099237
 10
2.9757391281
 20
-0.5511679389
 10
2.9736398915
 20
-0.5453740458
 10
2.9721284411
 20
-0.5392442748
 10
2.9712047769
 20
-0.532778626
 10
2.9709528685
 20
-0.5260610687
 10
2.9709528685
 20
-0.5260610687
 10
2.9719605021
 20
-0.5150610687
 10
2.9752353113
 20
-0.5047328244
 10
2.9808612655
 20
-0.4949083969
 10
2.9887543953
 20
-0.4856717557
 10
2.9936246243
 20
-0.4814732824
 10
2.999166609
 20
-0.477778626
 10
3.0053803495
 20
-0.4745877863
 10
3.0122658456
 20
-0.4719007634
 10
3.0198230976
 20
-0.4698015267
 10
3.0280521052
 20
-0.4682900763
 10
3.037036838
 20
-0.4671984733
 10
3.0466093571
 20
-0.4666946565
 10
3.0466093571
 20
-0.4666946565
 10
3.0600444716
 20
-0.4672824427
 10
3.0726398915
 20
-0.4686259542
 10
3.0841437082
 20
-0.4706412214
 10
3.0948078304
 20
-0.4734961832
 10
3.1043803495
 20
-0.4766870229
 10
3.112777296
 20
-0.4798778626
 10
3.1199986701
 20
-0.4831526718
 10
3.1260444716
 20
-0.4864274809
 10
3.1260444716
 20
-0.4864274809
 10
3.1423649705
 20
-0.4326898109
  0
LWPOLYLINE
  5
79
330
1F
100
AcDbEntity
  8
0
  6
Continuous
 62
     7
100
AcDbPolyline
 90
       55
 70
   128
 43
0.0
 10
3.2413334358
 20
-0.8589161125
 10
3.309517754
 20
-0.8589161125
 10
3.309517754
 20
-0.8589161125
 10
3.309517754
 20
-0.6889874165
 10
3.309517754
 20
-0.6889874165
 10
3.3180826395
 20
-0.690389313
 10
3.3272353113
 20
-0.6913129771
 10
3.3368917998
 20
-0.6918167939
 10
3.3471360747
 20
-0.6919007634
 10
3.3471360747
 20
-0.6919007634
 10
3.3626704258
 20
-0.691648855
 10
3.3777849296
 20
-0.6903053435
 10
3.3924795861
 20
-0.6879541985
 10
3.4068383647
 20
-0.6845114504
 10
3.420777296
 20
-0.6799770992
 10
3.4343803495
 20
-0.6744351145
 10
3.4475635556
 20
-0.6678015267
 10
3.4603269144
 20
-0.6600763359
 10
3.472166609
 20
-0.6510916031
 10
3.4825788227
 20
-0.6405954198
 10
3.4914795861
 20
-0.6286717557
 10
3.4988688991
 20
-0.6151526718
 10
3.5048307311
 20
-0.6002061069
 10
3.5092811128
 20
-0.5837480916
 10
3.5122200441
 20
-0.5658625954
 10
3.513647525
 20
-0.5463816794
 10
3.513647525
 20
-0.5463816794
 10
3.5129757693
 20
-0.5311832061
 10
3.5109605021
 20
-0.516740458
 10
3.5076017235
 20
-0.5031374046
 10
3.5028994334
 20
-0.4902900763
 10
3.4970215708
 20
-0.4783664122
 10
3.4901360747
 20
-0.4675343511
 10
3.4821589754
 20
-0.4577938931
 10
3.4730902731
 20
-0.4491450382
 10
3.4730902731
 20
-0.4491450382
 10
3.4622582121
 20
-0.4408320611
 10
3.450166609
 20
-0.433610687
 10
3.4367314945
 20
-0.427480916
 10
3.4221208075
 20
-0.4224427481
 10
3.406166609
 20
-0.4185801527
 10
3.3888688991
 20
-0.4158931298
 10
3.3703956166
 20
-0.4142137405
 10
3.3505788227
 20
-0.4137099237
 10
3.3505788227
 20
-0.4137099237
 10
3.3338688991
 20
-0.4140458015
 10
3.3179986701
 20
-0.4145496183
 10
3.3030521052
 20
-0.4153053435
 10
3.288945235
 20
-0.4163129771
 10
3.2756780594
 20
-0.4174885496
 10
3.2633345479
 20
-0.4189160305
 10
3.2518307311
 20
-0.4205954198
 10
3.2412505785
 20
-0.4224427481
 10
3.2412505785
 20
-0.4224427481
 10
3.2413344659
 20
-0.8589161125
  0
LWPOLYLINE
  5
7A
330
1F
100
AcDbEntity
  8
0
  6
Continuous
 62
     7
100
AcDbPolyline
 90
       46
 70
   128
 43
0.0
 10
3.3095173948
 20
-0.470617031
 10
3.3174108838
 20
-0.469129771
 10
3.3274872197
 20
-0.4679541985
 10
3.3399147006
 20
-0.4670305344
 10
3.3546093571
 20
-0.4665267176
 10
3.3546093571
 20
-0.4665267176
 10
3.3646017235
 20
-0.4668625954
 10
3.3740902731
 20
-0.4677862595
 10
3.383075006
 20
-0.4694656489
 10
3.391555922
 20
-0.4717328244
 10
3.3995330212
 20
-0.4745877863
 10
3.4069223342
 20
-0.4781984733
 10
3.4138917998
 20
-0.4823969466
 10
3.4202734792
 20
-0.4872671756
 10
3.4260673724
 20
-0.4928091603
 10
3.4311055403
 20
-0.4989389313
 10
3.4353879831
 20
-0.505740458
 10
3.4389147006
 20
-0.513129771
 10
3.441685693
 20
-0.5211908397
 10
3.4437009602
 20
-0.5299236641
 10
3.4449605021
 20
-0.5393282443
 10
3.4454643189
 20
-0.5493206107
 10
3.4454643189
 20
-0.5493206107
 10
3.4449605021
 20
-0.5599007634
 10
3.4437009602
 20
-0.5698931298
 10
3.4416017235
 20
-0.5792137405
 10
3.4387467617
 20
-0.5878625954
 10
3.4351360747
 20
-0.5959236641
 10
3.430685693
 20
-0.6033969466
 10
3.4253956166
 20
-0.6101984733
 10
3.4193498151
 20
-0.6163282443
 10
3.4125482884
 20
-0.6217862595
 10
3.4051589754
 20
-0.6264885496
 10
3.3970979067
 20
-0.630519084
 10
3.3883650823
 20
-0.6337938931
 10
3.3790444716
 20
-0.6363969466
 10
3.3690521052
 20
-0.6382442748
 10
3.3583879831
 20
-0.6394198473
 10
3.3471360747
 20
-0.6398396947
 10
3.3471360747
 20
-0.6398396947
 10
3.3361360747
 20
-0.6397557252
 10
3.3261437082
 20
-0.6391679389
 10
3.3173269144
 20
-0.6379923664
 10
3.309517754
 20
-0.6362290076
 10
3.309517754
 20
-0.6362290076
 10
3.309517754
 20
-0.470617031
  0
LWPOLYLINE
  5
7B
330
1F
100
AcDbEntity
  8
0
  6
Continuous
 62
     7
100
AcDbPolyline
 90
        8
 70
   128
 43
0.0
 10
3.5960209651
 20
-0.8589161125
 10
3.6642047769
 20
-0.8589161125
 10
3.6642047769
 20
-0.8589161125
 10
3.6642047769
 20
-0.4189161125
 10
3.6642047769
 20
-0.4189161125
 10
3.5960214888
 20
-0.4189161125
 10
3.5960214888
 20
-0.4189161125
 10
3.5960214888
 20
-0.8589161125
  0
LWPOLYLINE
  5
7C
330
1F
100
AcDbEntity
  8
0
  6
Continuous
 62
     7
100
AcDbPolyline
 90
       48
 70
   128
 43
0.0
 10
4.0941280643
 20
-0.4189161125
 10
4.0313191168
 20
-0.4189161125
 10
4.0313191168
 20
-0.4189161125
 10
4.0313191168
 20
-0.5811147796
 10
4.0313191168
 20
-0.5811147796
 10
4.0313192808
 20
-0.6067557252
 10
4.0316551586
 20
-0.6314427481
 10
4.0321589754
 20
-0.6552900763
 10
4.0328307311
 20
-0.6782137405
 10
4.0350139373
 20
-0.7230534351
 10
4.0382887464
 20
-0.7674732824
 10
4.0382887464
 20
-0.7674732824
 10
4.036605667
 20
-0.7680411424
 10
4.036605667
 20
-0.7680411424
 10
4.021075006
 20
-0.7324580153
 10
4.0036093571
 20
-0.6959312977
 10
3.9845482884
 20
-0.6590687023
 10
3.9640597388
 20
-0.6225419847
 10
3.9640597388
 20
-0.6225419847
 10
3.8472771544
 20
-0.4189161125
 10
3.8472771544
 20
-0.4189161125
 10
3.7733650003
 20
-0.4189161125
 10
3.7733650003
 20
-0.4189161125
 10
3.7733650003
 20
-0.8589161125
 10
3.7733650003
 20
-0.8589161125
 10
3.8361742426
 20
-0.8589161125
 10
3.8361742426
 20
-0.8589161125
 10
3.8361742426
 20
-0.6944209133
 10
3.8361742426
 20
-0.6944209133
 10
3.8360902731
 20
-0.6666259542
 10
3.8359223342
 20
-0.6400916031
 10
3.8355864563
 20
-0.6151526718
 10
3.8350826395
 20
-0.5915572519
 10
3.8336551586
 20
-0.5469694656
 10
3.8314719525
 20
-0.504648855
 10
3.8314719525
 20
-0.504648855
 10
3.8338263776
 20
-0.5040436024
 10
3.8338263776
 20
-0.5040436024
 10
3.8502811128
 20
-0.5415114504
 10
3.8685024869
 20
-0.5792137405
 10
3.8879834029
 20
-0.6165801527
 10
3.9079681357
 20
-0.6530229008
 10
3.9079681357
 20
-0.6530229008
 10
4.0254765148
 20
-0.8589161125
 10
4.0254765148
 20
-0.8589161125
 10
4.0941283591
 20
-0.8589161125
 10
4.0941283591
 20
-0.8589161125
 10
4.0941283591
 20
-0.4189161125
  0
LWPOLYLINE
  5
7D
330
1F
100
AcDbEntity
  8
0
  6
Continuous
 62
     7
100
AcDbPolyline
 90
       73
 70
   128
 43
0.0
 10
4.197912892
 20
-0.8587478456
 10
4.2076551586
 20
-0.8599236641
 10
4.2180673724
 20
-0.8609312977
 10
4.2292353113
 20
-0.8618549618
 10
4.2411589754
 20
-0.8625267176
 10
4.2536704258
 20
-0.8631145038
 10
4.2668536319
 20
-0.8634503817
 10
4.2807925632
 20
-0.8637022901
 10
4.2954032502
 20
-0.8637862595
 10
4.2954032502
 20
-0.8637862595
 10
4.3243727159
 20
-0.8628625954
 10
4.3518307311
 20
-0.860259542
 10
4.3775253876
 20
-0.8558091603
 10
4.4017085937
 20
-0.8495954198
 10
4.4131284411
 20
-0.8458167939
 10
4.4239605021
 20
-0.8416183206
 10
4.4343727159
 20
-0.837
 10
4.4442811128
 20
-0.8318778626
 10
4.4536017235
 20
-0.8263358779
 10
4.4624185174
 20
-0.8203740458
 10
4.470815464
 20
-0.8139923664
 10
4.4786246243
 20
-0.8071068702
 10
4.4786246243
 20
-0.8071068702
 10
4.4855940899
 20
-0.7998015267
 10
4.4921437082
 20
-0.7919083969
 10
4.4982734792
 20
-0.7835954198
 10
4.5040673724
 20
-0.7746946565
 10
4.5095253876
 20
-0.7653740458
 10
4.5145635556
 20
-0.7555496183
 10
4.5191818762
 20
-0.745221374
 10
4.5234643189
 20
-0.734389313
 10
4.5273269144
 20
-0.7230534351
 10
4.530685693
 20
-0.7112137405
 10
4.5334566853
 20
-0.698870229
 10
4.5358078304
 20
-0.6859389313
 10
4.5376551586
 20
-0.6725877863
 10
4.5389986701
 20
-0.658648855
 10
4.5397543953
 20
-0.6442900763
 10
4.5400902731
 20
-0.6293435115
 10
4.5400902731
 20
-0.6293435115
 10
4.5401741606
 20
-0.6287052123
 10
4.5401741606
 20
-0.6287052123
 10
4.5401742426
 20
-0.6093587786
 10
4.5387467617
 20
-0.5902977099
 10
4.5358078304
 20
-0.5716564885
 10
4.5312734792
 20
-0.5534351145
 10
4.5251437082
 20
-0.5355496183
 10
4.5174185174
 20
-0.5180839695
 10
4.5081818762
 20
-0.5009541985
 10
4.4974337846
 20
-0.4842442748
 10
4.4913040136
 20
-0.4762671756
 10
4.4844185174
 20
-0.4687099237
 10
4.4768612655
 20
-0.4616564885
 10
4.4685482884
 20
-0.4551068702
 10
4.4594795861
 20
-0.4490610687
 10
4.4497391281
 20
-0.4434351145
 10
4.4392429449
 20
-0.4383129771
 10
4.428075006
 20
-0.4336946565
 10
4.4160673724
 20
-0.4295801527
 10
4.4034719525
 20
-0.4258854962
 10
4.3901208075
 20
-0.422778626
 10
4.3760139373
 20
-0.4200916031
 10
4.3611513418
 20
-0.4178244275
 10
4.3456169907
 20
-0.4161450382
 10
4.3293269144
 20
-0.4148854962
 10
4.3123650823
 20
-0.414129771
 10
4.3123650823
 20
-0.414129771
 10
4.2812124105
 20
-0.4148015267
 10
4.2514032502
 20
-0.4167328244
 10
4.2234414182
 20
-0.4195877863
 10
4.1978307311
 20
-0.4231145038
 10
4.1978307311
 20
-0.4231145038
 10
4.1979146186
 20
-0.8587478456
  0
LWPOLYLINE
  5
7E
330
1F
100
AcDbEntity
  8
0
  6
Continuous
 62
     7
100
AcDbPolyline
 90
       46
 70
   128
 43
0.0
 10
4.266096851
 20
-0.4707484792
 10
4.2760063037
 20
-0.4689618321
 10
4.2880979067
 20
-0.4676183206
 10
4.3023727159
 20
-0.4666946565
 10
4.3188307311
 20
-0.4661908397
 10
4.3188307311
 20
-0.4661908397
 10
4.3366322579
 20
-0.4668625954
 10
4.3533421815
 20
-0.4687938931
 10
4.3689605021
 20
-0.4720687023
 10
4.3836551586
 20
-0.4766030534
 10
4.3971742426
 20
-0.4823969466
 10
4.4097696624
 20
-0.4895343511
 10
4.4212734792
 20
-0.4979312977
 10
4.431685693
 20
-0.5076717557
 10
4.4410063037
 20
-0.5186717557
 10
4.4491513418
 20
-0.5308473282
 10
4.456036838
 20
-0.5443664122
 10
4.4616627922
 20
-0.5590610687
 10
4.4660292044
 20
-0.5750992366
 10
4.4692200441
 20
-0.5923129771
 10
4.4711513418
 20
-0.6107862595
 10
4.471907067
 20
-0.630519084
 10
4.471907067
 20
-0.630519084
 10
4.4710673724
 20
-0.6527709924
 10
4.4689681357
 20
-0.6735954198
 10
4.4656093571
 20
-0.6929083969
 10
4.4608230976
 20
-0.7107938931
 10
4.454777296
 20
-0.7271679389
 10
4.4474719525
 20
-0.7420305344
 10
4.4388230976
 20
-0.7554656489
 10
4.4288307311
 20
-0.7674732824
 10
4.4176627922
 20
-0.7779694656
 10
4.4054872197
 20
-0.7870381679
 10
4.3922200441
 20
-0.7946793893
 10
4.377945235
 20
-0.8009770992
 10
4.3625788227
 20
-0.8057633588
 10
4.3461208075
 20
-0.8092061069
 10
4.3286551586
 20
-0.8111374046
 10
4.3100979067
 20
-0.8117251908
 10
4.3100979067
 20
-0.8117251908
 10
4.2979223342
 20
-0.8116412214
 10
4.2865864563
 20
-0.811221374
 10
4.2759223342
 20
-0.8105496183
 10
4.2660979067
 20
-0.8094580153
 10
4.2660979067
 20
-0.8094580153
 10
4.2660979067
 20
-0.4707484792
  0
LWPOLYLINE
  5
7F
330
1F
100
AcDbEntity
  8
0
  6
Continuous
 62
     7
100
AcDbPolyline
 90
       24
 70
   128
 43
0.0
 10
4.8653488084
 20
-0.8058473282
 10
4.690647525
 20
-0.8058473282
 10
4.690647525
 20
-0.8058473282
 10
4.690647525
 20
-0.6547023721
 10
4.690647525
 20
-0.6547023721
 10
4.8461963681
 20
-0.6547023721
 10
4.8461963681
 20
-0.6547023721
 10
4.8461963681
 20
-0.6016336698
 10
4.8461963681
 20
-0.6016336698
 10
4.690647525
 20
-0.6016336698
 10
4.690647525
 20
-0.6016336698
 10
4.690647525
 20
-0.4719848968
 10
4.690647525
 20
-0.4719848968
 10
4.8554828662
 20
-0.4719848968
 10
4.8554828662
 20
-0.4719848968
 10
4.8554828662
 20
-0.4189161125
 10
4.8554828662
 20
-0.4189161125
 10
4.6224642369
 20
-0.4189161125
 10
4.6224642369
 20
-0.4189161125
 10
4.6224642369
 20
-0.8589161125
 10
4.6224642369
 20
-0.8589161125
 10
4.8653497704
 20
-0.8589161125
 10
4.8653497704
 20
-0.8589161125
 10
4.8653497704
 20
-0.8058473282
  0
LWPOLYLINE
  5
80
330
1F
100
AcDbEntity
  8
0
  6
Continuous
 62
     7
100
AcDbPolyline
 90
       12
 70
   128
 43
0.0
 10
5.189682555
 20
-0.806351145
 10
5.0184643189
 20
-0.806351145
 10
5.0184643189
 20
-0.806351145
 10
5.0184643189
 20
-0.4189161125
 10
5.0184643189
 20
-0.4189161125
 10
4.9502810308
 20
-0.4189161125
 10
4.9502810308
 20
-0.4189161125
 10
4.9502810308
 20
-0.8637862595
 10
4.9502810308
 20
-0.8637862595
 10
5.1896841275
 20
-0.8637862595
 10
5.1896841275
 20
-0.8637862595
 10
5.1896841275
 20
-0.806351145
  0
LWPOLYLINE
  5
81
330
1F
100
AcDbEntity
  8
0
  6
Continuous
 62
     7
100
AcDbPolyline
 90
       26
 70
   128
 43
0.0
 10
1.2461477377
 20
-5.4739161125
 10
1.1834642652
 20
-5.6818368917
 10
1.1834642652
 20
-5.6818368917
 10
1.1709421546
 20
-5.7231374046
 10
1.1596062767
 20
-5.7639465649
 10
1.1494459714
 20
-5.8045038168
 10
1.1404612386
 20
-5.8447251908
 10
1.1404612386
 20
-5.8447251908
 10
1.1387729931
 20
-5.8447251908
 10
1.1387729931
 20
-5.8447251908
 10
1.129713147
 20
-5.8046717557
 10
1.11980475
 20
-5.7641145038
 10
1.1088887195
 20
-5.7229694656
 10
1.0969650554
 20
-5.6813206107
 10
1.0969650554
 20
-5.6813206107
 10
1.0383627325
 20
-5.4739161125
 10
1.0383627325
 20
-5.4739161125
 10
0.9646511539
 20
-5.4739161125
 10
0.9646511539
 20
-5.4739161125
 10
1.0993053762
 20
-5.9139161125
 10
1.0993053762
 20
-5.9139161125
 10
1.1741777671
 20
-5.9139161125
 10
1.1741777671
 20
-5.9139161125
 10
1.3181184875
 20
-5.4739161125
 10
1.3181184875
 20
-5.4739161125
 10
1.2461481273
 20
-5.4739161125
  0
LWPOLYLINE
  5
82
330
1F
100
AcDbEntity
  8
0
  6
Continuous
 62
     7
100
AcDbPolyline
 90
       16
 70
   128
 43
0.0
 10
1.5695275754
 20
-5.4739161125
 10
1.4871218794
 20
-5.4739161125
 10
1.4871218794
 20
-5.4739161125
 10
1.3513084848
 20
-5.9139161125
 10
1.3513084848
 20
-5.9139161125
 10
1.4203846045
 20
-5.9139161125
 10
1.4203846045
 20
-5.9139161125
 10
1.458685997
 20
-5.7844351965
 10
1.458685997
 20
-5.7844351965
 10
1.5944818433
 20
-5.7844351965
 10
1.5944818433
 20
-5.7844351965
 10
1.6345242082
 20
-5.9139161125
 10
1.6345242082
 20
-5.9139161125
 10
1.705323752
 20
-5.9139161125
 10
1.705323752
 20
-5.9139161125
 10
1.5695279057
 20
-5.4739161125
  0
LWPOLYLINE
  5
83
330
1F
100
AcDbEntity
  8
0
  6
Continuous
 62
     7
100
AcDbPolyline
 90
       18
 70
   128
 43
0.0
 10
1.4691312951
 20
-5.7323740458
 10
1.5045316032
 20
-5.6171793371
 10
1.5045316032
 20
-5.6171793371
 10
1.5100948264
 20
-5.5965954198
 10
1.5153849027
 20
-5.5749312977
 10
1.5205070401
 20
-5.5530992366
 10
1.5253772691
 20
-5.5321908397
 10
1.5253772691
 20
-5.5321908397
 10
1.5265839202
 20
-5.5321578751
 10
1.5265839202
 20
-5.5321578751
 10
1.5315070401
 20
-5.5529312977
 10
1.5368810859
 20
-5.5745954198
 10
1.5425910096
 20
-5.5965954198
 10
1.5485528416
 20
-5.6183435115
 10
1.5485528416
 20
-5.6183435115
 10
1.5834556848
 20
-5.7323740458
 10
1.5834556848
 20
-5.7323740458
 10
1.4691318314
 20
-5.7323740458
  0
LWPOLYLINE
  5
84
330
1F
100
AcDbEntity
  8
0
  6
Continuous
 62
     7
100
AcDbPolyline
 90
      106
 70
   128
 43
0.0
 10
2.0517279783
 20
-5.8509855901
 10
2.0438887195
 20
-5.8543816794
 10
2.035323834
 20
-5.8574045802
 10
2.0259192538
 20
-5.8600916031
 10
2.0157589485
 20
-5.8623587786
 10
1.9941787958
 20
-5.8655496183
 10
1.9715910096
 20
-5.8667251908
 10
1.9715910096
 20
-5.8667251908
 10
1.954713147
 20
-5.8659694656
 10
1.9387589485
 20
-5.863870229
 10
1.9237284141
 20
-5.8603435115
 10
1.9097055134
 20
-5.8554732824
 10
1.8966062767
 20
-5.849259542
 10
1.8844307042
 20
-5.8417022901
 10
1.8731787958
 20
-5.8328015267
 10
1.862934521
 20
-5.8224732824
 10
1.8536978798
 20
-5.8108854962
 10
1.8457207806
 20
-5.7981221374
 10
1.8389192538
 20
-5.7840992366
 10
1.8333772691
 20
-5.7689007634
 10
1.8290108569
 20
-5.7524427481
 10
1.8258200172
 20
-5.7348091603
 10
1.82380475
 20
-5.716
 10
1.8230490248
 20
-5.6959312977
 10
1.8230490248
 20
-5.6959312977
 10
1.8239726889
 20
-5.6748549618
 10
1.8261558951
 20
-5.6551221374
 10
1.8295986431
 20
-5.6368167939
 10
1.8343849027
 20
-5.6197709924
 10
1.8402627653
 20
-5.6041526718
 10
1.8474841393
 20
-5.5897938931
 10
1.8559650554
 20
-5.5768625954
 10
1.8657055134
 20
-5.5652748092
 10
1.876453605
 20
-5.5550305344
 10
1.8878734523
 20
-5.5462137405
 10
1.9001329943
 20
-5.538740458
 10
1.9131482615
 20
-5.532610687
 10
1.9269192538
 20
-5.5278244275
 10
1.9414459714
 20
-5.5243816794
 10
1.9567284141
 20
-5.5223664122
 10
1.9727665821
 20
-5.5216946565
 10
1.9727665821
 20
-5.5216946565
 10
1.9848581851
 20
-5.5220305344
 10
1.9962780325
 20
-5.5229541985
 10
2.0070261241
 20
-5.5244656489
 10
2.0171024599
 20
-5.5265648855
 10
2.0265070401
 20
-5.529
 10
2.0352398645
 20
-5.5317709924
 10
2.0432169638
 20
-5.5347099237
 10
2.0505223073
 20
-5.5379847328
 10
2.0505223073
 20
-5.5379847328
 10
2.0650783813
 20
-5.4849542432
 10
2.0650783813
 20
-5.4849542432
 10
2.0595910096
 20
-5.482480916
 10
2.052285666
 20
-5.4798778626
 10
2.0432169638
 20
-5.4772748092
 10
2.0323009332
 20
-5.4745038168
 10
2.0196215439
 20
-5.4720687023
 10
2.0050108569
 20
-5.4703053435
 10
1.9886368111
 20
-5.469129771
 10
1.970415437
 20
-5.4686259542
 10
1.970415437
 20
-5.4686259542
 10
1.9474078035
 20
-5.4695496183
 10
1.9254917729
 20
-5.4723206107
 10
1.904583376
 20
-5.4769389313
 10
1.8848505515
 20
-5.4833206107
 10
1.8661253607
 20
-5.4915496183
 10
1.8484917729
 20
-5.5016259542
 10
1.8319497882
 20
-5.5134656489
 10
1.8164994065
 20
-5.5271526718
 10
1.8024765057
 20
-5.5426030534
 10
1.7902169638
 20
-5.5598167939
 10
1.77980475
 20
-5.5787938931
 10
1.7712398645
 20
-5.5994503817
 10
1.7644383378
 20
-5.621870229
 10
1.7594001699
 20
-5.6459694656
 10
1.7562093302
 20
-5.6718320611
 10
1.7547818493
 20
-5.6994580153
 10
1.7547818493
 20
-5.6994580153
 10
1.7558734523
 20
-5.7255725191
 10
1.7587284141
 20
-5.7500916031
 10
1.7631787958
 20
-5.7730992366
 10
1.7693085668
 20
-5.7945954198
 10
1.7771177271
 20
-5.8144961832
 10
1.7865223073
 20
-5.8328854962
 10
1.7976902462
 20
-5.8497633588
 10
1.810453605
 20
-5.865129771
 10
1.8247284141
 20
-5.8788167939
 10
1.8401787958
 20
-5.890740458
 10
1.8568887195
 20
-5.9008167939
 10
1.8747742157
 20
-5.9090458015
 10
1.8939192538
 20
-5.9155114504
 10
1.914323834
 20
-5.9202137405
 10
1.9359879561
 20
-5.9230687023
 10
1.9588276508
 20
-5.9241603053
 10
1.9588276508
 20
-5.9241603053
 10
1.9764612386
 20
-5.923740458
 10
1.9928352844
 20
-5.9225648855
 10
2.0081177271
 20
-5.9208015267
 10
2.0221406279
 20
-5.9183664122
 10
2.0348200172
 20
-5.9154274809
 10
2.0459039867
 20
-5.9123206107
 10
2.0553925363
 20
-5.9089618321
 10
2.063285666
 20
-5.9054351145
 10
2.063285666
 20
-5.9054351145
 10
2.0517290403
 20
-5.8509855901
  0
LWPOLYLINE
  5
85
330
1F
100
AcDbEntity
  8
0
  6
Continuous
 62
     7
100
AcDbPolyline
 90
      106
 70
   128
 43
0.0
 10
2.7127364489
 20
-5.8509855901
 10
2.7048963531
 20
-5.8543816794
 10
2.6963314676
 20
-5.8574045802
 10
2.6869268874
 20
-5.8600916031
 10
2.6767665821
 20
-5.8623587786
 10
2.6551864294
 20
-5.8655496183
 10
2.6325986431
 20
-5.8667251908
 10
2.6325986431
 20
-5.8667251908
 10
2.6157207806
 20
-5.8659694656
 10
2.5997665821
 20
-5.863870229
 10
2.5847360477
 20
-5.8603435115
 10
2.570713147
 20
-5.8554732824
 10
2.5576139103
 20
-5.849259542
 10
2.5454383378
 20
-5.8417022901
 10
2.5341864294
 20
-5.8328015267
 10
2.5239421546
 20
-5.8224732824
 10
2.5147055134
 20
-5.8108854962
 10
2.5067284141
 20
-5.7981221374
 10
2.4999268874
 20
-5.7840992366
 10
2.4943849027
 20
-5.7689007634
 10
2.4900184905
 20
-5.7524427481
 10
2.4868276508
 20
-5.7348091603
 10
2.4848123836
 20
-5.716
 10
2.4840566584
 20
-5.6959312977
 10
2.4840566584
 20
-5.6959312977
 10
2.4849803225
 20
-5.6748549618
 10
2.4871635286
 20
-5.6551221374
 10
2.4906062767
 20
-5.6368167939
 10
2.4953925363
 20
-5.6197709924
 10
2.5012703989
 20
-5.6041526718
 10
2.5084917729
 20
-5.5897938931
 10
2.5169726889
 20
-5.5768625954
 10
2.526713147
 20
-5.5652748092
 10
2.5374612386
 20
-5.5550305344
 10
2.5488810859
 20
-5.5462137405
 10
2.5611406279
 20
-5.538740458
 10
2.5741558951
 20
-5.532610687
 10
2.5879268874
 20
-5.5278244275
 10
2.602453605
 20
-5.5243816794
 10
2.6177360477
 20
-5.5223664122
 10
2.6337742157
 20
-5.5216946565
 10
2.6337742157
 20
-5.5216946565
 10
2.6458658187
 20
-5.5220305344
 10
2.657285666
 20
-5.5229541985
 10
2.6680337577
 20
-5.5244656489
 10
2.6781100935
 20
-5.5265648855
 10
2.6875146737
 20
-5.529
 10
2.6962474981
 20
-5.5317709924
 10
2.7042245973
 20
-5.5347099237
 10
2.7115299409
 20
-5.5379847328
 10
2.7115299409
 20
-5.5379847328
 10
2.7260860149
 20
-5.4849542432
 10
2.7260860149
 20
-5.4849542432
 10
2.7205986431
 20
-5.482480916
 10
2.7132932996
 20
-5.4798778626
 10
2.7042245973
 20
-5.4772748092
 10
2.6933085668
 20
-5.4745038168
 10
2.6806291775
 20
-5.4720687023
 10
2.6660184905
 20
-5.4703053435
 10
2.6496444447
 20
-5.469129771
 10
2.6314230706
 20
-5.4686259542
 10
2.6314230706
 20
-5.4686259542
 10
2.608415437
 20
-5.4695496183
 10
2.5864994065
 20
-5.4723206107
 10
2.5655910096
 20
-5.4769389313
 10
2.5458581851
 20
-5.4833206107
 10
2.5271329943
 20
-5.4915496183
 10
2.5094994065
 20
-5.5016259542
 10
2.4929574218
 20
-5.5134656489
 10
2.4775070401
 20
-5.5271526718
 10
2.4634841393
 20
-5.5426030534
 10
2.4512245973
 20
-5.5598167939
 10
2.4408123836
 20
-5.5787938931
 10
2.4322474981
 20
-5.5994503817
 10
2.4254459714
 20
-5.621870229
 10
2.4204078035
 20
-5.6459694656
 10
2.4172169638
 20
-5.6718320611
 10
2.4157894828
 20
-5.6994580153
 10
2.4157894828
 20
-5.6994580153
 10
2.4168810859
 20
-5.7255725191
 10
2.4197360477
 20
-5.7500916031
 10
2.4241864294
 20
-5.7730992366
 10
2.4303162004
 20
-5.7945954198
 10
2.4381253607
 20
-5.8144961832
 10
2.4475299409
 20
-5.8328854962
 10
2.4586978798
 20
-5.8497633588
 10
2.4714612386
 20
-5.865129771
 10
2.4857360477
 20
-5.8788167939
 10
2.5011864294
 20
-5.890740458
 10
2.5178963531
 20
-5.9008167939
 10
2.5357818493
 20
-5.9090458015
 10
2.5549268874
 20
-5.9155114504
 10
2.5753314676
 20
-5.9202137405
 10
2.5969955897
 20
-5.9230687023
 10
2.6198352844
 20
-5.9241603053
 10
2.6198352844
 20
-5.9241603053
 10
2.6374688722
 20
-5.923740458
 10
2.653842918
 20
-5.9225648855
 10
2.6691253607
 20
-5.9208015267
 10
2.6831482615
 20
-5.9183664122
 10
2.6958276508
 20
-5.9154274809
 10
2.7069116202
 20
-5.9123206107
 10
2.7164001699
 20
-5.9089618321
 10
2.7242932996
 20
-5.9054351145
 10
2.7242932996
 20
-5.9054351145
 10
2.7127366739
 20
-5.8509855901
  0
LWPOLYLINE
  5
86
330
1F
100
AcDbEntity
  8
0
  6
Continuous
 62
     7
100
AcDbPolyline
 90
       70
 70
   128
 43
0.0
 10
2.9771604876
 20
-5.4690458835
 10
2.9557971164
 20
-5.4703053435
 10
2.9356444447
 20
-5.4734122137
 10
2.916583376
 20
-5.4783664122
 10
2.8986978798
 20
-5.4851679389
 10
2.8819879561
 20
-5.4939007634
 10
2.8663696355
 20
-5.504480916
 10
2.8519268874
 20
-5.5169083969
 10
2.8386597118
 20
-5.5312671756
 10
2.8267360477
 20
-5.547221374
 10
2.816323834
 20
-5.5646870229
 10
2.8075070401
 20
-5.5835801527
 10
2.8002016966
 20
-5.6038167939
 10
2.7944917729
 20
-5.625648855
 10
2.7902932996
 20
-5.6488244275
 10
2.7876902462
 20
-5.6734274809
 10
2.7865986431
 20
-5.6995419847
 10
2.7865986431
 20
-5.6995419847
 10
2.7875223073
 20
-5.724648855
 10
2.7900413912
 20
-5.7484122137
 10
2.7939039867
 20
-5.7707480916
 10
2.7993620019
 20
-5.7918244275
 10
2.8062474981
 20
-5.8115572519
 10
2.8147284141
 20
-5.8299465649
 10
2.8245528416
 20
-5.8469923664
 10
2.8359726889
 20
-5.8626946565
 10
2.8486520783
 20
-5.8768015267
 10
2.8625910096
 20
-5.8891450382
 10
2.8777055134
 20
-5.8995572519
 10
2.8939955897
 20
-5.9081221374
 10
2.911545208
 20
-5.9149236641
 10
2.9302703989
 20
-5.9198778626
 10
2.9501711622
 20
-5.9229007634
 10
2.9712474981
 20
-5.9241603053
 10
2.9712474981
 20
-5.9241603053
 10
2.9916520783
 20
-5.9233206107
 10
3.0111329943
 20
-5.9206335878
 10
3.0296062767
 20
-5.9161832061
 10
3.0470719256
 20
-5.9098854962
 10
3.0635299409
 20
-5.9019083969
 10
3.079064292
 20
-5.892
 10
3.0935910096
 20
-5.8803282443
 10
3.107194063
 20
-5.8668931298
 10
3.119453605
 20
-5.851610687
 10
3.1302016966
 20
-5.834480916
 10
3.1392703989
 20
-5.8154198473
 10
3.1468276508
 20
-5.7945954198
 10
3.1527894828
 20
-5.7718396947
 10
3.1571558951
 20
-5.7472366412
 10
3.1599268874
 20
-5.7207862595
 10
3.1611024599
 20
-5.6924885496
 10
3.1611024599
 20
-5.6924885496
 10
3.1603467347
 20
-5.668389313
 10
3.1580795592
 20
-5.6454656489
 10
3.1543009332
 20
-5.6237175573
 10
3.1491787958
 20
-5.6031450382
 10
3.142545208
 20
-5.5836641221
 10
3.1344001699
 20
-5.5654427481
 10
3.1248276508
 20
-5.5483129771
 10
3.1138276508
 20
-5.5323587786
 10
3.1014001699
 20
-5.5179160305
 10
3.0876291775
 20
-5.5054045802
 10
3.0725986431
 20
-5.4946564885
 10
3.0561406279
 20
-5.4858396947
 10
3.0384230706
 20
-5.478870229
 10
3.0192780325
 20
-5.4737480916
 10
2.9988734523
 20
-5.4705572519
 10
2.9771253607
 20
-5.469129771
 10
2.9771253607
 20
-5.469129771
 10
2.9771607033
 20
-5.4690458835
  0
LWPOLYLINE
  5
87
330
1F
100
AcDbEntity
  8
0
  6
Continuous
 62
     7
100
AcDbPolyline
 90
       70
 70
   128
 43
0.0
 10
2.9748068081
 20
-5.5211070342
 10
2.9893009332
 20
-5.5226183206
 10
3.0029039867
 20
-5.5256412214
 10
3.015583376
 20
-5.5301755725
 10
3.0271711622
 20
-5.536221374
 10
3.0378352844
 20
-5.5438625954
 10
3.0475757424
 20
-5.5530152672
 10
3.0563085668
 20
-5.5636793893
 10
3.0640337577
 20
-5.5758549618
 10
3.0708352844
 20
-5.5890381679
 10
3.076713147
 20
-5.6027251908
 10
3.0817513149
 20
-5.6169160305
 10
3.0857818493
 20
-5.6315267176
 10
3.0889726889
 20
-5.6466412214
 10
3.0911558951
 20
-5.662259542
 10
3.0924994065
 20
-5.6782977099
 10
3.0929192538
 20
-5.6948396947
 10
3.0929192538
 20
-5.6948396947
 10
3.092415437
 20
-5.7129770992
 10
3.0910719256
 20
-5.7303587786
 10
3.0887207806
 20
-5.7469847328
 10
3.0854459714
 20
-5.7629389313
 10
3.0811635286
 20
-5.7781374046
 10
3.0760413912
 20
-5.7925801527
 10
3.0699116202
 20
-5.806351145
 10
3.0628581851
 20
-5.8193664122
 10
3.0548810859
 20
-5.8312900763
 10
3.0459803225
 20
-5.8416183206
 10
3.0362398645
 20
-5.850519084
 10
3.0254917729
 20
-5.8578244275
 10
3.0139039867
 20
-5.8637022901
 10
3.0013925363
 20
-5.8679847328
 10
2.9879574218
 20
-5.8708396947
 10
2.9735986431
 20
-5.8720992366
 10
2.9735986431
 20
-5.8720992366
 10
2.9594917729
 20
-5.8707557252
 10
2.9462245973
 20
-5.8679007634
 10
2.9337971164
 20
-5.8635343511
 10
2.9222932996
 20
-5.8576564885
 10
2.911713147
 20
-5.8502671756
 10
2.9019726889
 20
-5.8414503817
 10
2.8930719256
 20
-5.8310381679
 10
2.8850948264
 20
-5.8191145038
 10
2.8780413912
 20
-5.8060992366
 10
2.8719116202
 20
-5.7924961832
 10
2.8667055134
 20
-5.7783053435
 10
2.8625070401
 20
-5.7634427481
 10
2.8591482615
 20
-5.7479083969
 10
2.8567971164
 20
-5.731870229
 10
2.8553696355
 20
-5.7151603053
 10
2.8548658187
 20
-5.697778626
 10
2.8548658187
 20
-5.697778626
 10
2.8552016966
 20
-5.6808167939
 10
2.856545208
 20
-5.6644427481
 10
2.8587284141
 20
-5.6484885496
 10
2.8619192538
 20
-5.6330381679
 10
2.8659497882
 20
-5.6181755725
 10
2.8709039867
 20
-5.6037328244
 10
2.8768658187
 20
-5.5898778626
 10
2.8836673454
 20
-5.5764427481
 10
2.8914765057
 20
-5.5640992366
 10
2.9002932996
 20
-5.5532671756
 10
2.9102016966
 20
-5.5440305344
 10
2.9210337577
 20
-5.536389313
 10
2.9329574218
 20
-5.530259542
 10
2.9458887195
 20
-5.5256412214
 10
2.9598276508
 20
-5.5226183206
 10
2.9747742157
 20
-5.5211908397
 10
2.9747742157
 20
-5.5211908397
 10
2.9748085743
 20
-5.5211070342
  0
LWPOLYLINE
  5
88
330
1F
100
AcDbEntity
  8
0
  6
Continuous
 62
     7
100
AcDbPolyline
 90
       48
 70
   128
 43
0.0
 10
3.564238079
 20
-5.4739161125
 10
3.5014305402
 20
-5.4739161125
 10
3.5014305402
 20
-5.4739161125
 10
3.5014305402
 20
-5.6361147796
 10
3.5014305402
 20
-5.6361147796
 10
3.5014307042
 20
-5.6617557252
 10
3.5017665821
 20
-5.6864427481
 10
3.5022703989
 20
-5.7102900763
 10
3.5029421546
 20
-5.7332137405
 10
3.5051253607
 20
-5.7780534351
 10
3.5084001699
 20
-5.8224732824
 10
3.5084001699
 20
-5.8224732824
 10
3.5067170905
 20
-5.8230411424
 10
3.5067170905
 20
-5.8230411424
 10
3.4911864294
 20
-5.7874580153
 10
3.4737207806
 20
-5.7509312977
 10
3.4546597118
 20
-5.7140687023
 10
3.4341711622
 20
-5.6775419847
 10
3.4341711622
 20
-5.6775419847
 10
3.3173885778
 20
-5.4739161125
 10
3.3173885778
 20
-5.4739161125
 10
3.2434764237
 20
-5.4739161125
 10
3.2434764237
 20
-5.4739161125
 10
3.2434764237
 20
-5.9139161125
 10
3.2434764237
 20
-5.9139161125
 10
3.306285666
 20
-5.9139161125
 10
3.306285666
 20
-5.9139161125
 10
3.306285666
 20
-5.7494209133
 10
3.306285666
 20
-5.7494209133
 10
3.3062016966
 20
-5.7216259542
 10
3.3060337577
 20
-5.6950916031
 10
3.3056978798
 20
-5.6701526718
 10
3.305194063
 20
-5.6465572519
 10
3.3037665821
 20
-5.6019694656
 10
3.301583376
 20
-5.559648855
 10
3.301583376
 20
-5.559648855
 10
3.3039378011
 20
-5.5590436024
 10
3.3039378011
 20
-5.5590436024
 10
3.3203925363
 20
-5.5965114504
 10
3.3386139103
 20
-5.6342137405
 10
3.3580948264
 20
-5.6715801527
 10
3.3780795592
 20
-5.7080229008
 10
3.3780795592
 20
-5.7080229008
 10
3.4955879382
 20
-5.9139161125
 10
3.4955879382
 20
-5.9139161125
 10
3.5642397825
 20
-5.9139161125
 10
3.5642397825
 20
-5.9139161125
 10
3.5642397825
 20
-5.4739161125
  0
LWPOLYLINE
  5
89
330
1F
100
AcDbEntity
  8
0
  6
Continuous
 62
     7
100
AcDbPolyline
 90
       16
 70
   128
 43
0.0
 10
3.9369618799
 20
-5.4744074651
 10
3.6290730662
 20
-5.4744074651
 10
3.6290730662
 20
-5.4744074651
 10
3.6290730662
 20
-5.5318676721
 10
3.6290730662
 20
-5.5318676721
 10
3.7486367291
 20
-5.5318676721
 10
3.7486367291
 20
-5.5318676721
 10
3.7486367291
 20
-5.9139161125
 10
3.7486367291
 20
-5.9139161125
 10
3.8168200172
 20
-5.9139161125
 10
3.8168200172
 20
-5.9139161125
 10
3.8168200172
 20
-5.5318676721
 10
3.8168200172
 20
-5.5318676721
 10
3.9369640863
 20
-5.5318676721
 10
3.9369640863
 20
-5.5318676721
 10
3.9369640863
 20
-5.4744074651
  0
LWPOLYLINE
  5
8A
330
1F
100
AcDbEntity
  8
0
  6
Continuous
 62
     7
100
AcDbPolyline
 90
       98
 70
   128
 43
0.0
 10
4.187848155
 20
-5.7055634318
 10
4.1962780325
 20
-5.7020610687
 10
4.2043391012
 20
-5.6980305344
 10
4.212064292
 20
-5.6935801527
 10
4.219453605
 20
-5.6885419847
 10
4.2263391012
 20
-5.6830839695
 10
4.2328887195
 20
-5.6770381679
 10
4.2391024599
 20
-5.6705725191
 10
4.2448963531
 20
-5.6636030534
 10
4.2501864294
 20
-5.6562137405
 10
4.25480475
 20
-5.6483206107
 10
4.2587513149
 20
-5.6400076336
 10
4.2619421546
 20
-5.6312748092
 10
4.264545208
 20
-5.6220381679
 10
4.2663925363
 20
-5.6123816794
 10
4.2676520783
 20
-5.6023053435
 10
4.2681558951
 20
-5.5918091603
 10
4.2681558951
 20
-5.5918091603
 10
4.2675681088
 20
-5.5782900763
 10
4.26580475
 20
-5.5655267176
 10
4.2630337577
 20
-5.5534351145
 10
4.2590871928
 20
-5.5421832061
 10
4.2540490248
 20
-5.5316030534
 10
4.2479192538
 20
-5.521778626
 10
4.2406139103
 20
-5.5127099237
 10
4.2323009332
 20
-5.5043969466
 10
4.2323009332
 20
-5.5043969466
 10
4.2213009332
 20
-5.4958320611
 10
4.2089574218
 20
-5.4885267176
 10
4.1951864294
 20
-5.4823129771
 10
4.1799879561
 20
-5.4772748092
 10
4.1634459714
 20
-5.4734961832
 10
4.1454765057
 20
-5.4708091603
 10
4.1260795592
 20
-5.4692977099
 10
4.1052551317
 20
-5.4689618321
 10
4.1052551317
 20
-5.4689618321
 10
4.0753620019
 20
-5.4697175573
 10
4.0463925363
 20
-5.471648855
 10
4.0325375744
 20
-5.4730763359
 10
4.0195223073
 20
-5.4745877863
 10
4.0072627653
 20
-5.476351145
 10
3.9957589485
 20
-5.4782824427
 10
3.9957589485
 20
-5.4782824427
 10
3.995842836
 20
-5.9139161125
 10
3.995842836
 20
-5.9139161125
 10
4.0640261241
 20
-5.9139161125
 10
4.0640261241
 20
-5.9139161125
 10
4.0640261241
 20
-5.7306947385
 10
4.0640261241
 20
-5.7306947385
 10
4.1047219584
 20
-5.7306947385
 10
4.1047219584
 20
-5.7306947385
 10
4.1131482615
 20
-5.7309465649
 10
4.1210413912
 20
-5.7317022901
 10
4.1285146737
 20
-5.733129771
 10
4.1354841393
 20
-5.7350610687
 10
4.1418658187
 20
-5.7376641221
 10
4.1478276508
 20
-5.7408549618
 10
4.1532016966
 20
-5.7446335878
 10
4.1581558951
 20
-5.749
 10
4.1626902462
 20
-5.7540381679
 10
4.1668887195
 20
-5.7598320611
 10
4.1707513149
 20
-5.7663816794
 10
4.1742780325
 20
-5.7736870229
 10
4.1775528416
 20
-5.7817480916
 10
4.1804917729
 20
-5.7905648855
 10
4.1830948264
 20
-5.8001374046
 10
4.1854459714
 20
-5.8104656489
 10
4.1854459714
 20
-5.8104656489
 10
4.1895604752
 20
-5.8296946565
 10
4.1935910096
 20
-5.8473282443
 10
4.197453605
 20
-5.8631984733
 10
4.2012322309
 20
-5.8774732824
 10
4.2047589485
 20
-5.8898167939
 10
4.2079497882
 20
-5.9000610687
 10
4.2108887195
 20
-5.9081221374
 10
4.2134917729
 20
-5.914
 10
4.2134917729
 20
-5.914
 10
4.283910748
 20
-5.9139161125
 10
4.283910748
 20
-5.9139161125
 10
4.2804994065
 20
-5.9064427481
 10
4.2768887195
 20
-5.8966183206
 10
4.2730261241
 20
-5.8845267176
 10
4.2689955897
 20
-5.8701679389
 10
4.264713147
 20
-5.8539618321
 10
4.2602627653
 20
-5.8362442748
 10
4.2554765057
 20
-5.8170992366
 10
4.2505223073
 20
-5.7963587786
 10
4.2505223073
 20
-5.7963587786
 10
4.2462398645
 20
-5.7798167939
 10
4.2409497882
 20
-5.7647862595
 10
4.2348200172
 20
-5.7511832061
 10
4.2277665821
 20
-5.7390916031
 10
4.2196215439
 20
-5.7285114504
 10
4.2102169638
 20
-5.719610687
 10
4.1996368111
 20
-5.712389313
 10
4.1877971164
 20
-5.7067633588
 10
4.1877971164
 20
-5.7067633588
 10
4.1878490233
 20
-5.7055634318
  0
LWPOLYLINE
  5
8B
330
1F
100
AcDbEntity
  8
0
  6
Continuous
 62
     7
100
AcDbPolyline
 90
       47
 70
   128
 43
0.0
 10
4.064025372
 20
-5.6786336698
 10
4.0640261241
 20
-5.525275167
 10
4.0640261241
 20
-5.525275167
 10
4.0675528416
 20
-5.5243816794
 10
4.0716673454
 20
-5.5236259542
 10
4.0765375744
 20
-5.5229541985
 10
4.0820795592
 20
-5.5223664122
 10
4.0882932996
 20
-5.5219465649
 10
4.0951787958
 20
-5.521610687
 10
4.1028200172
 20
-5.5213587786
 10
4.1110490248
 20
-5.5212748092
 10
4.1110490248
 20
-5.5212748092
 10
4.1202016966
 20
-5.5214427481
 10
4.128934521
 20
-5.5221145038
 10
4.1373314676
 20
-5.5233740458
 10
4.1453085668
 20
-5.525221374
 10
4.1529497882
 20
-5.5276564885
 10
4.1602551317
 20
-5.5306793893
 10
4.1671406279
 20
-5.5342900763
 10
4.1736062767
 20
-5.5384045802
 10
4.1795681088
 20
-5.5431908397
 10
4.1847742157
 20
-5.5488167939
 10
4.1892245973
 20
-5.5551984733
 10
4.1929192538
 20
-5.5623358779
 10
4.1957742157
 20
-5.5702290076
 10
4.1979574218
 20
-5.5789618321
 10
4.1993009332
 20
-5.5884503817
 10
4.1999726889
 20
-5.598778626
 10
4.1999726889
 20
-5.598778626
 10
4.1994688722
 20
-5.6075954198
 10
4.1982932996
 20
-5.6159923664
 10
4.1963620019
 20
-5.6239694656
 10
4.193674979
 20
-5.6314427481
 10
4.1902322309
 20
-5.6384122137
 10
4.1861177271
 20
-5.6449618321
 10
4.1812474981
 20
-5.6510076336
 10
4.1756215439
 20
-5.6566335878
 10
4.169323834
 20
-5.6616717557
 10
4.1624383378
 20
-5.6660381679
 10
4.1550490248
 20
-5.6698167939
 10
4.1470719256
 20
-5.6729236641
 10
4.1385070401
 20
-5.6753587786
 10
4.1293543683
 20
-5.6771221374
 10
4.1196139103
 20
-5.6782137405
 10
4.1093696355
 20
-5.6787175573
 10
4.1093696355
 20
-5.6787175573
 10
4.0640261241
 20
-5.6786336698
  0
LWPOLYLINE
  5
8C
330
1F
100
AcDbEntity
  8
0
  6
Continuous
 62
     7
100
AcDbPolyline
 90
       70
 70
   128
 43
0.0
 10
4.5248842615
 20
-5.4690458835
 10
4.5035223073
 20
-5.4703053435
 10
4.4833696355
 20
-5.4734122137
 10
4.4643085668
 20
-5.4783664122
 10
4.4464230706
 20
-5.4851679389
 10
4.429713147
 20
-5.4939007634
 10
4.4140948264
 20
-5.504480916
 10
4.3996520783
 20
-5.5169083969
 10
4.3863849027
 20
-5.5312671756
 10
4.3744612386
 20
-5.547221374
 10
4.3640490248
 20
-5.5646870229
 10
4.3552322309
 20
-5.5835801527
 10
4.3479268874
 20
-5.6038167939
 10
4.3422169638
 20
-5.625648855
 10
4.3380184905
 20
-5.6488244275
 10
4.335415437
 20
-5.6734274809
 10
4.334323834
 20
-5.6995419847
 10
4.334323834
 20
-5.6995419847
 10
4.3352474981
 20
-5.724648855
 10
4.3377665821
 20
-5.7484122137
 10
4.3416291775
 20
-5.7707480916
 10
4.3470871928
 20
-5.7918244275
 10
4.3539726889
 20
-5.8115572519
 10
4.362453605
 20
-5.8299465649
 10
4.3722780325
 20
-5.8469923664
 10
4.3836978798
 20
-5.8626946565
 10
4.3963772691
 20
-5.8768015267
 10
4.4103162004
 20
-5.8891450382
 10
4.4254307042
 20
-5.8995572519
 10
4.4417207806
 20
-5.9081221374
 10
4.4592703989
 20
-5.9149236641
 10
4.4779955897
 20
-5.9198778626
 10
4.4978963531
 20
-5.9229007634
 10
4.5189726889
 20
-5.9241603053
 10
4.5189726889
 20
-5.9241603053
 10
4.5393772691
 20
-5.9233206107
 10
4.5588581851
 20
-5.9206335878
 10
4.5773314676
 20
-5.9161832061
 10
4.5947971164
 20
-5.9098854962
 10
4.6112551317
 20
-5.9019083969
 10
4.6267894828
 20
-5.892
 10
4.6413162004
 20
-5.8803282443
 10
4.6549192538
 20
-5.8668931298
 10
4.6671787958
 20
-5.851610687
 10
4.6779268874
 20
-5.834480916
 10
4.6869955897
 20
-5.8154198473
 10
4.6945528416
 20
-5.7945954198
 10
4.7005146737
 20
-5.7718396947
 10
4.7048810859
 20
-5.7472366412
 10
4.7076520783
 20
-5.7207862595
 10
4.7088276508
 20
-5.6924885496
 10
4.7088276508
 20
-5.6924885496
 10
4.7080719256
 20
-5.668389313
 10
4.70580475
 20
-5.6454656489
 10
4.7020261241
 20
-5.6237175573
 10
4.6969039867
 20
-5.6031450382
 10
4.6902703989
 20
-5.5836641221
 10
4.6821253607
 20
-5.5654427481
 10
4.6725528416
 20
-5.5483129771
 10
4.6615528416
 20
-5.5323587786
 10
4.6491253607
 20
-5.5179160305
 10
4.6353543683
 20
-5.5054045802
 10
4.620323834
 20
-5.4946564885
 10
4.6038658187
 20
-5.4858396947
 10
4.5861482615
 20
-5.478870229
 10
4.5670032233
 20
-5.4737480916
 10
4.5465986431
 20
-5.4705572519
 10
4.5248505515
 20
-5.469129771
 10
4.5248505515
 20
-5.469129771
 10
4.5248858942
 20
-5.4690458835
  0
LWPOLYLINE
  5
8D
330
1F
100
AcDbEntity
  8
0
  6
Continuous
 62
     7
100
AcDbPolyline
 90
       70
 70
   128
 43
0.0
 10
4.5225329286
 20
-5.5211070342
 10
4.5370261241
 20
-5.5226183206
 10
4.5506291775
 20
-5.5256412214
 10
4.5633085668
 20
-5.5301755725
 10
4.5748963531
 20
-5.536221374
 10
4.5855604752
 20
-5.5438625954
 10
4.5953009332
 20
-5.5530152672
 10
4.6040337577
 20
-5.5636793893
 10
4.6117589485
 20
-5.5758549618
 10
4.6185604752
 20
-5.5890381679
 10
4.6244383378
 20
-5.6027251908
 10
4.6294765057
 20
-5.6169160305
 10
4.6335070401
 20
-5.6315267176
 10
4.6366978798
 20
-5.6466412214
 10
4.6388810859
 20
-5.662259542
 10
4.6402245973
 20
-5.6782977099
 10
4.6406444447
 20
-5.6948396947
 10
4.6406444447
 20
-5.6948396947
 10
4.6401406279
 20
-5.7129770992
 10
4.6387971164
 20
-5.7303587786
 10
4.6364459714
 20
-5.7469847328
 10
4.6331711622
 20
-5.7629389313
 10
4.6288887195
 20
-5.7781374046
 10
4.6237665821
 20
-5.7925801527
 10
4.6176368111
 20
-5.806351145
 10
4.610583376
 20
-5.8193664122
 10
4.6026062767
 20
-5.8312900763
 10
4.5937055134
 20
-5.8416183206
 10
4.5839650554
 20
-5.850519084
 10
4.5732169638
 20
-5.8578244275
 10
4.5616291775
 20
-5.8637022901
 10
4.5491177271
 20
-5.8679847328
 10
4.5356826126
 20
-5.8708396947
 10
4.521323834
 20
-5.8720992366
 10
4.521323834
 20
-5.8720992366
 10
4.5072169638
 20
-5.8707557252
 10
4.4939497882
 20
-5.8679007634
 10
4.4815223073
 20
-5.8635343511
 10
4.4700184905
 20
-5.8576564885
 10
4.4594383378
 20
-5.8502671756
 10
4.4496978798
 20
-5.8414503817
 10
4.4407971164
 20
-5.8310381679
 10
4.4328200172
 20
-5.8191145038
 10
4.4257665821
 20
-5.8060992366
 10
4.4196368111
 20
-5.7924961832
 10
4.4144307042
 20
-5.7783053435
 10
4.4102322309
 20
-5.7634427481
 10
4.4068734523
 20
-5.7479083969
 10
4.4045223073
 20
-5.731870229
 10
4.4030948264
 20
-5.7151603053
 10
4.4025910096
 20
-5.697778626
 10
4.4025910096
 20
-5.697778626
 10
4.4029268874
 20
-5.6808167939
 10
4.4042703989
 20
-5.6644427481
 10
4.406453605
 20
-5.6484885496
 10
4.4096444447
 20
-5.6330381679
 10
4.413674979
 20
-5.6181755725
 10
4.4186291775
 20
-5.6037328244
 10
4.4245910096
 20
-5.5898778626
 10
4.4313925363
 20
-5.5764427481
 10
4.4392016966
 20
-5.5640992366
 10
4.4480184905
 20
-5.5532671756
 10
4.4579268874
 20
-5.5440305344
 10
4.4687589485
 20
-5.536389313
 10
4.4806826126
 20
-5.530259542
 10
4.4936139103
 20
-5.5256412214
 10
4.5075528416
 20
-5.5226183206
 10
4.5224994065
 20
-5.5211908397
 10
4.5224994065
 20
-5.5211908397
 10
4.5225337651
 20
-5.5211070342
  0
LWPOLYLINE
  5
8E
330
1F
100
AcDbEntity
  8
0
  6
Continuous
 62
     7
100
AcDbPolyline
 90
       12
 70
   128
 43
0.0
 10
5.0306038594
 20
-5.861351145
 10
4.8593849027
 20
-5.861351145
 10
4.8593849027
 20
-5.861351145
 10
4.8593849027
 20
-5.4739161125
 10
4.8593849027
 20
-5.4739161125
 10
4.7912016146
 20
-5.4739161125
 10
4.7912016146
 20
-5.4739161125
 10
4.7912016146
 20
-5.9187862595
 10
4.7912016146
 20
-5.9187862595
 10
5.0306047113
 20
-5.9187862595
 10
5.0306047113
 20
-5.9187862595
 10
5.0306047113
 20
-5.861351145
  0
LINE
  5
97
330
1F
100
AcDbEntity
  8
0
  6
Continuous
 62
     7
370
    25
100
AcDbLine
 10
0.75
 20
-1.25
 30
0.0
 11
4.875
 21
-1.25
 31
0.0
  0
LINE
  5
98
330
1F
100
AcDbEntity
  8
0
  6
Continuous
 62
     7
370
    25
100
AcDbLine
 10
4.875
 20
-1.25
 30
0.0
 11
4.875
 21
-5.125
 31
0.0
  0
LINE
  5
99
330
1F
100
AcDbEntity
  8
0
  6
Continuous
 62
     7
370
    25
100
AcDbLine
 10
4.875
 20
-5.125
 30
0.0
 11
0.75
 21
-5.125
 31
0.0
  0
LINE
  5
9A
330
1F
100
AcDbEntity
  8
0
  6
Continuous
 62
     7
370
    25
100
AcDbLine
 10
0.75
 20
-5.125
 30
0.0
 11
0.75
 21
-6.75
 31
0.0
  0
LINE
  5
9B
330
1F
100
AcDbEntity
  8
0
  6
Continuous
 62
     7
370
    25
100
AcDbLine
 10
0.75
 20
-6.75
 30
0.0
 11
5.5
 21
-6.75
 31
0.0
  0
LINE
  5
9C
330
1F
100
AcDbEntity
  8
0
  6
Continuous
 62
     7
370
    25
100
AcDbLine
 10
5.5
 20
-6.75
 30
0.0
 11
5.5
 21
6.75
 31
0.0
  0
LINE
  5
9D
330
1F
100
AcDbEntity
  8
0
  6
Continuous
 62
     7
370
    25
100
AcDbLine
 10
5.5
 20
6.75
 30
0.0
 11
0.75
 21
6.75
 31
0.0
  0
LINE
  5
9E
330
1F
100
AcDbEntity
  8
0
  6
Continuous
 62
     7
370
    25
100
AcDbLine
 10
0.75
 20
6.75
 30
0.0
 11
0.75
 21
-1.25
 31
0.0
  0
MTEXT
  5
A0
330
1F
100
AcDbEntity
  8
0
  6
Continuous
 62
     7
100
AcDbMText
 10
0.75
 20
-6.7901404091
 30
0.0
 40
0.1903
 41
0.0
 71
     1
 72
     1
  1
SOLIDWORKS Educational Product.
  7
SLDTEXTSTYLE0
 73
     1
 44
1.0
  0
MTEXT
  5
A1
330
1F
100
AcDbEntity
  8
0
  6
Continuous
 62
     7
100
AcDbMText
 10
0.75
 20
-7.0755904091
 30
0.0
 40
0.1903
 41
0.0
 71
     1
 72
     1
  1
For Instructional Use Only.
  7
SLDTEXTSTYLE0
 73
     1
 44
1.0
  0
ENDSEC
  0
SECTION
  2
OBJECTS
  0
DICTIONARY
  5
C
330
0
100
AcDbDictionary
281
     1
  3
ACAD_GROUP
350
D
  3
ACAD_LAYOUT
350
1A
  3
ACAD_MLINESTYLE
350
17
  3
ACAD_PLOTSETTINGS
350
19
  3
ACAD_PLOTSTYLENAME
350
E
  3
ACAD_SCALELIST
350
47
  0
DICTIONARY
  5
D
102
{ACAD_REACTORS
330
C
102
}
330
C
100
AcDbDictionary
281
     1
  0
DICTIONARY
  5
1A
102
{ACAD_REACTORS
330
C
102
}
330
C
100
AcDbDictionary
281
     1
  3
Layout1
350
1E
  3
Layout2
350
26
  3
Model
350
22
  0
DICTIONARY
  5
17
102
{ACAD_REACTORS
330
C
102
}
330
C
100
AcDbDictionary
281
     1
  3
Standard
350
18
  0
DICTIONARY
  5
19
102
{ACAD_REACTORS
330
C
102
}
330
C
100
AcDbDictionary
281
     1
  0
ACDBDICTIONARYWDFLT
  5
E
102
{ACAD_REACTORS
330
C
102
}
330
C
100
AcDbDictionary
281
     1
  3
Normal
350
F
100
AcDbDictionaryWithDefault
340
F
  0
DICTIONARY
  5
47
102
{ACAD_REACTORS
330
C
102
}
330
C
100
AcDbDictionary
281
     1
  3
A0
350
48
  3
A1
350
49
  3
A2
350
4A
  3
A3
350
4B
  3
A4
350
4C
  3
A5
350
4D
  3
A6
350
4E
  3
A7
350
4F
  3
A8
350
50
  3
A9
350
51
  3
B0
350
52
  3
B1
350
53
  3
B2
350
54
  3
B3
350
55
  3
B4
350
56
  3
B5
350
57
  3
B6
350
58
  3
B7
350
59
  3
B8
350
5A
  3
B9
350
5B
  3
C0
350
5C
  3
C1
350
5D
  3
C2
350
5E
  3
C3
350
5F
  3
C4
350
60
  3
C5
350
61
  3
C6
350
62
  3
C7
350
63
  3
C8
350
64
  3
C9
350
65
  3
D0
350
66
  3
D1
350
67
  3
D2
350
68
  0
LAYOUT
  5
1E
102
{ACAD_REACTORS
330
1A
102
}
330
1A
100
AcDbPlotSettings
  1

  2
none_device
  4

  6

 40
0.0
 41
0.0
 42
0.0
 43
0.0
 44
0.0
 45
0.0
 46
0.0
 47
0.0
 48
0.0
 49
0.0
140
0.0
141
0.0
142
1.0
143
1.0
 70
   688
 72
     0
 73
     0
 74
     5
  7

 75
    16
147
1.0
148
0.0
149
0.0
100
AcDbLayout
  1
Layout1
 70
     1
 71
     1
 10
0.0
 20
0.0
 11
12.0
 21
9.0
 12
0.0
 22
0.0
 32
0.0
 14
1.0000000000E+20
 24
1.0000000000E+20
 34
1.0000000000E+20
 15
-1.0000000000E+20
 25
-1.0000000000E+20
 35
-1.0000000000E+20
146
0.0
 13
0.0
 23
0.0
 33
0.0
 16
1.0
 26
0.0
 36
0.0
 17
0.0
 27
1.0
 37
0.0
 76
     0
330
1B
  0
LAYOUT
  5
26
102
{ACAD_REACTORS
330
1A
102
}
330
1A
100
AcDbPlotSettings
  1

  2
none_device
  4

  6

 40
0.0
 41
0.0
 42
0.0
 43
0.0
 44
0.0
 45
0.0
 46
0.0
 47
0.0
 48
0.0
 49
0.0
140
0.0
141
0.0
142
1.0
143
1.0
 70
   688
 72
     0
 73
     0
 74
     5
  7

 75
    16
147
1.0
148
0.0
149
0.0
100
AcDbLayout
  1
Layout2
 70
     1
 71
     2
 10
0.0
 20
0.0
 11
0.0
 21
0.0
 12
0.0
 22
0.0
 32
0.0
 14
0.0
 24
0.0
 34
0.0
 15
0.0
 25
0.0
 35
0.0
146
0.0
 13
0.0
 23
0.0
 33
0.0
 16
1.0
 26
0.0
 36
0.0
 17
0.0
 27
1.0
 37
0.0
 76
     0
330
23
  0
LAYOUT
  5
22
102
{ACAD_REACTORS
330
1A
102
}
330
1A
100
AcDbPlotSettings
  1

  2
none_device
  4
ANSI_A_(11.00_x_8.50_Inches)
  6

 40
6.35
 41
19.05
 42
6.35000508
 43
19.05000254
 44
279.4
 45
215.9
 46
83.8729141267
 47
88.89999873
 48
0.0
 49
0.0
140
0.0
141
0.0
142
0.6233333333
143
1.0
 70
  1696
 72
     0
 73
     0
 74
     0
  7

 75
     0
147
0.5913241897
148
-39.4088153714
149
0.0
100
AcDbLayout
  1
Model
 70
     1
 71
     0
 10
0.0
 20
0.0
 11
12.0
 21
9.0
 12
0.0
 22
0.0
 32
0.0
 14
0.75
 24
-6.75
 34
0.0
 15
5.5
 25
6.75
 35
0.0
146
0.0
 13
0.0
 23
0.0
 33
0.0
 16
1.0
 26
0.0
 36
0.0
 17
0.0
 27
1.0
 37
0.0
 76
     0
330
1F
331
29
  0
MLINESTYLE
  5
18
102
{ACAD_REACTORS
330
17
102
}
330
17
100
AcDbMlineStyle
  2
Standard
 70
     0
  3

 62
   256
 51
90.0
 52
90.0
 71
     2
 49
0.5
 62
   256
  6
BYLAYER
 49
-0.5
 62
   256
  6
BYLAYER
  0
ACDBPLACEHOLDER
  5
F
102
{ACAD_REACTORS
330
E
102
}
330
E
  0
SCALE
  5
48
102
{ACAD_REACTORS
330
47
102
}
330
47
100
AcDbScale
 70
     0
300
1:1
140
1.0
141
1.0
290
     1
  0
SCALE
  5
49
102
{ACAD_REACTORS
330
47
102
}
330
47
100
AcDbScale
 70
     0
300
1:2
140
1.0
141
2.0
290
     0
  0
SCALE
  5
4A
102
{ACAD_REACTORS
330
47
102
}
330
47
100
AcDbScale
 70
     0
300
1:4
140
1.0
141
4.0
290
     0
  0
SCALE
  5
4B
102
{ACAD_REACTORS
330
47
102
}
330
47
100
AcDbScale
 70
     0
300
1:5
140
1.0
141
5.0
290
     0
  0
SCALE
  5
4C
102
{ACAD_REACTORS
330
47
102
}
330
47
100
AcDbScale
 70
     0
300
1:8
140
1.0
141
8.0
290
     0
  0
SCALE
  5
4D
102
{ACAD_REACTORS
330
47
102
}
330
47
100
AcDbScale
 70
     0
300
1:10
140
1.0
141
10.0
290
     0
  0
SCALE
  5
4E
102
{ACAD_REACTORS
330
47
102
}
330
47
100
AcDbScale
 70
     0
300
1:16
140
1.0
141
16.0
290
     0
  0
SCALE
  5
4F
102
{ACAD_REACTORS
330
47
102
}
330
47
100
AcDbScale
 70
     0
300
1:20
140
1.0
141
20.0
290
     0
  0
SCALE
  5
50
102
{ACAD_REACTORS
330
47
102
}
330
47
100
AcDbScale
 70
     0
300
1:30
140
1.0
141
30.0
290
     0
  0
SCALE
  5
51
102
{ACAD_REACTORS
330
47
102
}
330
47
100
AcDbScale
 70
     0
300
1:40
140
1.0
141
40.0
290
     0
  0
SCALE
  5
52
102
{ACAD_REACTORS
330
47
102
}
330
47
100
AcDbScale
 70
     0
300
1:50
140
1.0
141
50.0
290
     0
  0
SCALE
  5
53
102
{ACAD_REACTORS
330
47
102
}
330
47
100
AcDbScale
 70
     0
300
1:100
140
1.0
141
100.0
290
     0
  0
SCALE
  5
54
102
{ACAD_REACTORS
330
47
102
}
330
47
100
AcDbScale
 70
     0
300
2:1
140
2.0
141
1.0
290
     0
  0
SCALE
  5
55
102
{ACAD_REACTORS
330
47
102
}
330
47
100
AcDbScale
 70
     0
300
4:1
140
4.0
141
1.0
290
     0
  0
SCALE
  5
56
102
{ACAD_REACTORS
330
47
102
}
330
47
100
AcDbScale
 70
     0
300
8:1
140
8.0
141
1.0
290
     0
  0
SCALE
  5
57
102
{ACAD_REACTORS
330
47
102
}
330
47
100
AcDbScale
 70
     0
300
10:1
140
10.0
141
1.0
290
     0
  0
SCALE
  5
58
102
{ACAD_REACTORS
330
47
102
}
330
47
100
AcDbScale
 70
     0
300
100:1
140
100.0
141
1.0
290
     0
  0
SCALE
  5
59
102
{ACAD_REACTORS
330
47
102
}
330
47
100
AcDbScale
 70
     0
300
1/128" = 1'-0"
140
0.0078125
141
12.0
290
     0
  0
SCALE
  5
5A
102
{ACAD_REACTORS
330
47
102
}
330
47
100
AcDbScale
 70
     0
300
1/64" = 1'-0"
140
0.015625
141
12.0
290
     0
  0
SCALE
  5
5B
102
{ACAD_REACTORS
330
47
102
}
330
47
100
AcDbScale
 70
     0
300
1/32" = 1'-0"
140
0.03125
141
12.0
290
     0
  0
SCALE
  5
5C
102
{ACAD_REACTORS
330
47
102
}
330
47
100
AcDbScale
 70
     0
300
1/16" = 1'-0"
140
0.0625
141
12.0
290
     0
  0
SCALE
  5
5D
102
{ACAD_REACTORS
330
47
102
}
330
47
100
AcDbScale
 70
     0
300
3/32" = 1'-0"
140
0.09375
141
12.0
290
     0
  0
SCALE
  5
5E
102
{ACAD_REACTORS
330
47
102
}
330
47
100
AcDbScale
 70
     0
300
1/8" = 1'-0"
140
0.125
141
12.0
290
     0
  0
SCALE
  5
5F
102
{ACAD_REACTORS
330
47
102
}
330
47
100
AcDbScale
 70
     0
300
3/16" = 1'-0"
140
0.1875
141
12.0
290
     0
  0
SCALE
  5
60
102
{ACAD_REACTORS
330
47
102
}
330
47
100
AcDbScale
 70
     0
300
1/4" = 1'-0"
140
0.25
141
12.0
290
     0
  0
SCALE
  5
61
102
{ACAD_REACTORS
330
47
102
}
330
47
100
AcDbScale
 70
     0
300
3/8" = 1'-0"
140
0.375
141
12.0
290
     0
  0
SCALE
  5
62
102
{ACAD_REACTORS
330
47
102
}
330
47
100
AcDbScale
 70
     0
300
1/2" = 1'-0"
140
0.5
141
12.0
290
     0
  0
SCALE
  5
63
102
{ACAD_REACTORS
330
47
102
}
330
47
100
AcDbScale
 70
     0
300
3/4" = 1'-0"
140
0.75
141
12.0
290
     0
  0
SCALE
  5
64
102
{ACAD_REACTORS
330
47
102
}
330
47
100
AcDbScale
 70
     0
300
1" = 1'-0"
140
1.0
141
12.0
290
     0
  0
SCALE
  5
65
102
{ACAD_REACTORS
330
47
102
}
330
47
100
AcDbScale
 70
     0
300
1-1/2" = 1'-0"
140
1.5
141
12.0
290
     0
  0
SCALE
  5
66
102
{ACAD_REACTORS
330
47
102
}
330
47
100
AcDbScale
 70
     0
300
3" = 1'-0"
140
3.0
141
12.0
290
     0
  0
SCALE
  5
67
102
{ACAD_REACTORS
330
47
102
}
330
47
100
AcDbScale
 70
     0
300
6" = 1'-0"
140
6.0
141
12.0
290
     0
  0
SCALE
  5
68
102
{ACAD_REACTORS
330
47
102
}
330
47
100
AcDbScale
 70
     0
300
1'-0" = 1'-0"
140
12.0
141
12.0
290
     0
  0
ENDSEC
  0
EOF
